{
.appVersion = "1141";
DisplayStrings = (
"/yodyodpatah"
);
copyright = "Copyright 2009 by Yoram Gnat (yoram.gnat@gmail.com)\012Distributed under the terms of GNU General Public License version 2(http://www.gnu.org/licenses/gpl.html). \012\012Hebrew OpenType Layout logic copyright (c) 2003 & 2007, Ralph Hancock & John Hudson. This layout logic for Biblical Hebrew is open source software under the MIT License; for details  contact copyright holders at <license@tiro.com>.\012\012As a special exception, if you create a document which uses this font, and embed this font or unaltered portions of this font into the document, this font does not by itself cause the resulting document to be covered by the GNU General Public License. This exception does not however invalidate any other reasons why the document might be covered by the GNU General Public License. If you modify this font, you may extend this exception to your version of the font, but you are not obligated to do so. If you do not wish to do so, delete this exception statement from your version.";
customParameters = (
{
name = licenseURL;
value = "http://www.gnu.org/licenses/old-licenses/gpl-2.0.html, \012http://www.opensource.org/licenses/mit-license.php ";
},
{
name = license;

glyphs = (
{
glyphname = .notdef;
lastChange = "2018-07-29 14:56:13 +0000";
layers = (
{
layerId = "BE590684-9836-437F-B2F3-AE785A4EA4BE";
paths = (
{
closed = 1;
nodes = (
"278 1153 OFFCURVE",
"278 1096 QCURVE SMOOTH",
"278 1035 OFFCURVE",
"326 1035 QCURVE SMOOTH",
"530 1035 OFFCURVE",
"530 896 QCURVE SMOOTH",
"530 834 OFFCURVE",
"449 790 QCURVE SMOOTH",
"375 751 LINE SMOOTH",
"295 707 OFFCURVE",
"295 646 QCURVE SMOOTH",
"295 593 OFFCURVE",
"348 498 QCURVE",
"355 491 OFFCURVE",
"379 496 OFFCURVE",
"379 506 QCURVE",
"365 556 OFFCURVE",
"365 594 QCURVE SMOOTH",
"365 628 OFFCURVE",
"417 657 QCURVE SMOOTH",
"533 718 LINE SMOOTH",
"590 748 OFFCURVE",
"590 851 QCURVE SMOOTH",
"590 964 OFFCURVE",
"432 1153 OFFCURVE",
"337 1153 QCURVE SMOOTH"
);
},
{
closed = 1;
nodes = (
"332 349 OFFCURVE",
"285 299 OFFCURVE",
"285 260 QCURVE SMOOTH",
"285 227 OFFCURVE",
"331 178 OFFCURVE",
"368 178 QCURVE SMOOTH",
"403 178 OFFCURVE",
"452 222 OFFCURVE",
"452 260 QCURVE SMOOTH",
"452 296 OFFCURVE",
"405 349 OFFCURVE",
"368 349 QCURVE SMOOTH"
);
},
{
closed = 1;
nodes = (
"110 98 LINE",
"110 1313 LINE",
"799 1313 LINE",
"799 98 LINE"
);
},
{
closed = 1;
nodes = (
"27 1412 LINE",
"27 0 LINE",
"882 0 LINE",
"882 1412 LINE"
);
}
);
width = 942;
}
);
note = .notdef;
},
{
glyphname = exclam;
lastChange = "2018-07-29 14:56:13 +0000";
layers = (
{
layerId = "BE590684-9836-437F-B2F3-AE785A4EA4BE";
paths = (
{
closed = 1;
nodes = (
"151 434 LINE",
"307 534 LINE",
"339 1396 LINE",
"73 1210 LINE"
);
},
{
closed = 1;
nodes = (
"101 185 LINE",
"62 152 OFFCURVE",
"62 121 QCURVE SMOOTH",
"62 98 OFFCURVE",
"87 55 QCURVE SMOOTH",
"119 0 OFFCURVE",
"171 0 QCURVE SMOOTH",
"181 0 OFFCURVE",
"188 3 QCURVE",
"343 106 LINE",
"250 194 OFFCURVE",
"222 274 QCURVE"
);
}
);
width = 473;
}
);
note = exclam;
unicode = 0021;
},
{
glyphname = quotedbl;
lastChange = "2018-07-29 14:56:13 +0000";
layers = (
{
layerId = "BE590684-9836-437F-B2F3-AE785A4EA4BE";
paths = (
{
closed = 1;
nodes = (
"428 1407 LINE",
"407 982 LINE",
"513 995 LINE",
"601 1429 LINE"
);
},
{
closed = 1;
nodes = (
"101 1407 LINE",
"80 982 LINE",
"186 995 LINE",
"274 1429 LINE"
);
}
);
width = 721;
}
);
note = quotedbl;
unicode = 0022;
},
{
glyphname = numbersign;
lastChange = "2018-07-29 14:56:13 +0000";
layers = (
{
layerId = "BE590684-9836-437F-B2F3-AE785A4EA4BE";
paths = (
{
closed = 1;
nodes = (
"824 1032 LINE",
"910 1435 LINE",
"767 1435 LINE",
"681 1032 LINE",
"509 1032 LINE",
"593 1435 LINE",
"449 1435 LINE",
"365 1032 LINE",
"134 1032 LINE",
"105 889 LINE",
"335 889 LINE",
"261 547 LINE",
"31 547 LINE",
"0 403 LINE",
"230 403 LINE",
"144 0 LINE",
"287 0 LINE",
"373 403 LINE",
"547 403 LINE",
"461 0 LINE",
"605 0 LINE",
"691 403 LINE",
"920 403 LINE",
"949 547 LINE",
"720 547 LINE",
"793 889 LINE",
"1023 889 LINE",
"1053 1032 LINE"
);
},
{
closed = 1;
nodes = (
"576 547 LINE",
"406 547 LINE",
"478 889 LINE",
"650 889 LINE"
);
}
);
width = 1135;
}
);
note = numbersign;
unicode = 0023;
},
{
glyphname = dollar;
lastChange = "2018-07-29 14:56:13 +0000";
layers = (
{
layerId = "BE590684-9836-437F-B2F3-AE785A4EA4BE";
paths = (
{
closed = 1;
nodes = (
"679 603 OFFCURVE",
"798 473 OFFCURVE",
"798 380 QCURVE SMOOTH",
"798 268 OFFCURVE",
"690 128 OFFCURVE",
"596 114 QCURVE",
"585 607 LINE"
);
},
{
closed = 1;
nodes = (
"526 898 LINE",
"501 904 OFFCURVE",
"453 922 OFFCURVE",
"390 956 OFFCURVE",
"344 999 OFFCURVE",
"310 1065 OFFCURVE",
"309 1103 QCURVE",
"307 1123 OFFCURVE",
"307 1133 QCURVE SMOOTH",
"307 1221 OFFCURVE",
"410 1351 OFFCURVE",
"470 1357 QCURVE",
"475 1358 OFFCURVE",
"484 1358 QCURVE SMOOTH",
"488 1358 OFFCURVE",
"507 1357 OFFCURVE",
"513 1357 QCURVE"
);
},
{
closed = 1;
nodes = (
"72 882 OFFCURVE",
"103 829 OFFCURVE",
"149 792 QCURVE",
"230 744 OFFCURVE",
"508 657 OFFCURVE",
"525 650 QCURVE",
"527 126 LINE",
"490 137 OFFCURVE",
"447 152 OFFCURVE",
"382 188 OFFCURVE",
"339 232 OFFCURVE",
"293 308 OFFCURVE",
"277 358 QCURVE",
"45 218 LINE",
"33 208 OFFCURVE",
"33 180 QCURVE",
"35 124 OFFCURVE",
"150 28 OFFCURVE",
"321 -25 OFFCURVE",
"408 -25 QCURVE SMOOTH",
"472 -25 OFFCURVE",
"529 -8 QCURVE",
"521 -214 LINE",
"609 -158 LINE",
"609 26 LINE",
"679 65 OFFCURVE",
"826 180 OFFCURVE",
"958 317 OFFCURVE",
"1045 470 OFFCURVE",
"1047 536 QCURVE SMOOTH",
"1047 548 LINE SMOOTH",
"1047 588 OFFCURVE",
"1015 656 OFFCURVE",
"980 694 OFFCURVE",
"947 722 QCURVE",
"773 802 OFFCURVE",
"597 858 QCURVE",
"593 1356 LINE",
"616 1351 OFFCURVE",
"655 1329 OFFCURVE",
"693 1289 OFFCURVE",
"715 1262 OFFCURVE",
"755 1204 OFFCURVE",
"763 1194 QCURVE",
"815 1220 OFFCURVE",
"841 1252 QCURVE",
"923 1274 OFFCURVE",
"981 1322 QCURVE",
"961 1377 OFFCURVE",
"822 1462 OFFCURVE",
"709 1462 QCURVE SMOOTH",
"655 1462 OFFCURVE",
"589 1450 QCURVE",
"591 1626 LINE",
"513 1574 LINE",
"513 1428 LINE",
"463 1403 OFFCURVE",
"392 1365 OFFCURVE",
"293 1304 OFFCURVE",
"223 1248 OFFCURVE",
"148 1170 OFFCURVE",
"101 1090 OFFCURVE",
"71 988 OFFCURVE",
"71 934 QCURVE SMOOTH"
);
}
);
width = 1156;
}
);
note = dollar;
unicode = 0024;
},
{
glyphname = percent;
lastChange = "2018-07-29 14:56:13 +0000";
layers = (
{
layerId = "BE590684-9836-437F-B2F3-AE785A4EA4BE";
paths = (
{
closed = 1;
nodes = (
"1248 813 OFFCURVE",
"1307 813 QCURVE SMOOTH",
"1447 813 OFFCURVE",
"1637 589 OFFCURVE",
"1637 400 QCURVE SMOOTH",
"1637 365 LINE",
"1637 346 LINE SMOOTH",
"1637 248 OFFCURVE",
"1535 98 OFFCURVE",
"1363 98 OFFCURVE",
"1219 225 OFFCURVE",
"1138 434 OFFCURVE",
"1138 552 QCURVE SMOOTH",
"1138 617 OFFCURVE",
"1151 678 QCURVE",
"1137 662 OFFCURVE",
"1074 595 OFFCURVE",
"1042 554 OFFCURVE",
"1001 491 OFFCURVE",
"983 421 OFFCURVE",
"983 381 QCURVE SMOOTH",
"983 372 LINE SMOOTH",
"983 230 OFFCURVE",
"1165 20 OFFCURVE",
"1301 20 QCURVE SMOOTH",
"1404 20 OFFCURVE",
"1584 111 OFFCURVE",
"1707 263 OFFCURVE",
"1777 461 OFFCURVE",
"1777 566 QCURVE SMOOTH",
"1777 707 OFFCURVE",
"1596 916 OFFCURVE",
"1461 916 QCURVE SMOOTH",
"1432 916 OFFCURVE",
"1377 907 OFFCURVE",
"1339 898 OFFCURVE",
"1284 872 OFFCURVE",
"1255 857 OFFCURVE",
"1187 819 OFFCURVE",
"1171 810 QCURVE",
"1185 790 LINE"
);
},
{
closed = 1;
nodes = (
"276 1313 OFFCURVE",
"335 1313 QCURVE SMOOTH",
"475 1313 OFFCURVE",
"665 1089 OFFCURVE",
"665 900 QCURVE SMOOTH",
"665 865 LINE",
"665 846 LINE SMOOTH",
"665 748 OFFCURVE",
"563 598 OFFCURVE",
"391 598 OFFCURVE",
"247 725 OFFCURVE",
"166 934 OFFCURVE",
"166 1052 QCURVE SMOOTH",
"166 1117 OFFCURVE",
"179 1178 QCURVE",
"165 1162 OFFCURVE",
"102 1095 OFFCURVE",
"70 1054 OFFCURVE",
"29 991 OFFCURVE",
"11 921 OFFCURVE",
"11 881 QCURVE SMOOTH",
"11 872 LINE SMOOTH",
"11 730 OFFCURVE",
"193 520 OFFCURVE",
"329 520 QCURVE SMOOTH",
"432 520 OFFCURVE",
"612 611 OFFCURVE",
"735 763 OFFCURVE",
"805 961 OFFCURVE",
"805 1066 QCURVE SMOOTH",
"805 1207 OFFCURVE",
"624 1416 OFFCURVE",
"489 1416 QCURVE SMOOTH",
"460 1416 OFFCURVE",
"405 1407 OFFCURVE",
"367 1398 OFFCURVE",
"312 1372 OFFCURVE",
"283 1357 OFFCURVE",
"215 1319 OFFCURVE",
"199 1310 QCURVE",
"213 1290 LINE"
);
},
{
closed = 1;
nodes = (
"375 0 LINE",
"479 16 LINE",
"1407 1394 LINE",
"1313 1372 LINE"
);
}
);
width = 1886;
}
);
note = percent;
unicode = 0025;
},
{
glyphname = ampersand;
lastChange = "2018-07-29 14:56:13 +0000";
layers = (
{
layerId = "BE590684-9836-437F-B2F3-AE785A4EA4BE";
paths = (
{
closed = 1;
nodes = (
"926 668 LINE",
"926 330 LINE SMOOTH",
"926 251 OFFCURVE",
"825 182 OFFCURVE",
"728 170 QCURVE",
"656 170 LINE SMOOTH",
"575 170 OFFCURVE",
"399 233 OFFCURVE",
"264 366 OFFCURVE",
"264 449 QCURVE SMOOTH",
"264 576 OFFCURVE",
"444 668 OFFCURVE",
"655 668 QCURVE SMOOTH"
);
},
{
closed = 1;
nodes = (
"574 1236 OFFCURVE",
"697 1180 OFFCURVE",
"745 1115 QCURVE",
"938 1236 LINE",
"938 1239 OFFCURVE",
"931 1255 OFFCURVE",
"904 1286 OFFCURVE",
"862 1312 OFFCURVE",
"781 1334 OFFCURVE",
"729 1335 QCURVE",
"697 1337 OFFCURVE",
"682 1337 QCURVE SMOOTH",
"597 1337 OFFCURVE",
"480 1298 QCURVE",
"356 1243 LINE",
"65 1077 OFFCURVE",
"65 924 QCURVE SMOOTH",
"65 887 OFFCURVE",
"96 817 OFFCURVE",
"130 774 OFFCURVE",
"195 725 OFFCURVE",
"222 709 OFFCURVE",
"251 693 QCURVE SMOOTH",
"335 650 LINE",
"263 599 LINE SMOOTH",
"159 523 OFFCURVE",
"49 388 OFFCURVE",
"49 315 QCURVE SMOOTH",
"49 251 OFFCURVE",
"125 142 OFFCURVE",
"238 72 OFFCURVE",
"374 22 OFFCURVE",
"492 0 OFFCURVE",
"536 0 QCURVE SMOOTH",
"628 0 OFFCURVE",
"776 82 OFFCURVE",
"896 189 QCURVE SMOOTH",
"1036 314 OFFCURVE",
"1136 475 OFFCURVE",
"1136 581 QCURVE SMOOTH",
"1136 662 LINE",
"1333 668 LINE",
"1504 822 LINE",
"1149 822 LINE",
"1149 1012 LINE",
"938 888 LINE",
"938 811 LINE",
"688 811 LINE SMOOTH",
"571 811 OFFCURVE",
"473 820 OFFCURVE",
"413 837 QCURVE SMOOTH",
"366 851 OFFCURVE",
"300 905 OFFCURVE",
"272 970 OFFCURVE",
"262 1017 OFFCURVE",
"262 1037 QCURVE SMOOTH",
"262 1092 OFFCURVE",
"309 1174 OFFCURVE",
"381 1216 OFFCURVE",
"451 1236 OFFCURVE",
"482 1236 QCURVE SMOOTH"
);
}
);
width = 1598;
}
);
note = ampersand;
unicode = 0026;
},
{
glyphname = quotesingle;
lastChange = "2018-07-29 14:56:13 +0000";
layers = (
{
layerId = "BE590684-9836-437F-B2F3-AE785A4EA4BE";
paths = (
{
closed = 1;
nodes = (
"101 1407 LINE",
"80 982 LINE",
"186 995 LINE",
"274 1429 LINE"
);
}
);
width = 394;
}
);
note = quotesingle;
unicode = 0027;
},
{
glyphname = parenleft;
lastChange = "2018-07-29 14:56:13 +0000";
layers = (
{
layerId = "BE590684-9836-437F-B2F3-AE785A4EA4BE";
paths = (
{
closed = 1;
nodes = (
"258 1448 LINE",
"62 1056 OFFCURVE",
"62 635 QCURVE SMOOTH",
"62 188 OFFCURVE",
"298 -190 QCURVE",
"475 -40 LINE",
"439 23 OFFCURVE",
"405 88 OFFCURVE",
"322 274 OFFCURVE",
"277 428 OFFCURVE",
"238 660 OFFCURVE",
"238 775 QCURVE SMOOTH",
"238 1150 OFFCURVE",
"428 1530 QCURVE"
);
}
);
width = 609;
}
);
note = parenleft;
unicode = 0028;
},
{
glyphname = parenright;
lastChange = "2018-07-29 14:56:13 +0000";
layers = (
{
layerId = "BE590684-9836-437F-B2F3-AE785A4EA4BE";
paths = (
{
closed = 1;
nodes = (
"202 -86 LINE",
"398 306 OFFCURVE",
"398 727 QCURVE SMOOTH",
"398 1174 OFFCURVE",
"162 1552 QCURVE",
"-15 1402 LINE",
"21 1339 OFFCURVE",
"55 1274 OFFCURVE",
"138 1088 OFFCURVE",
"183 934 OFFCURVE",
"222 702 OFFCURVE",
"222 587 QCURVE SMOOTH",
"222 212 OFFCURVE",
"32 -168 QCURVE"
);
}
);
width = 506;
}
);
note = parenright;
unicode = 0029;
},
{
glyphname = asterisk;
lastChange = "2018-07-29 14:56:13 +0000";
layers = (
{
layerId = "BE590684-9836-437F-B2F3-AE785A4EA4BE";
paths = (
{
closed = 1;
nodes = (
"123 594 OFFCURVE",
"20 678 QCURVE",
"0 513 LINE",
"42 504 OFFCURVE",
"80 504 QCURVE SMOOTH",
"150 504 OFFCURVE",
"234 533 QCURVE",
"180 426 OFFCURVE",
"68 353 QCURVE",
"219 282 LINE",
"275 376 OFFCURVE",
"275 496 QCURVE SMOOTH",
"275 510 OFFCURVE",
"275 510 QCURVE",
"362 423 OFFCURVE",
"395 297 QCURVE",
"509 418 LINE",
"434 504 OFFCURVE",
"308 539 QCURVE",
"402 588 OFFCURVE",
"515 588 QCURVE SMOOTH",
"536 588 OFFCURVE",
"547 587 QCURVE",
"467 733 LINE",
"360 688 OFFCURVE",
"286 579 QCURVE",
"281 608 OFFCURVE",
"281 648 QCURVE SMOOTH",
"281 736 OFFCURVE",
"314 822 QCURVE",
"151 791 LINE",
"160 680 OFFCURVE",
"242 574 QCURVE"
);
}
);
width = 656;
}
);
note = asterisk;
unicode = 002A;
},
{
glyphname = plus;
lastChange = "2018-07-29 14:56:13 +0000";
layers = (
{
layerId = "BE590684-9836-437F-B2F3-AE785A4EA4BE";
paths = (
{
closed = 1;
nodes = (
"764 639 LINE",
"428 639 LINE",
"428 975 LINE",
"310 975 LINE",
"310 639 LINE",
"-26 639 LINE",
"-26 522 LINE",
"310 522 LINE",
"310 186 LINE",
"428 186 LINE",
"428 522 LINE",
"764 522 LINE"
);
}
);
width = 873;
}
);
note = plus;
unicode = 002B;
},
{
glyphname = comma;
lastChange = "2018-07-29 14:56:13 +0000";
layers = (
{
layerId = "BE590684-9836-437F-B2F3-AE785A4EA4BE";
paths = (
{
closed = 1;
nodes = (
"178 10 LINE SMOOTH",
"247 69 OFFCURVE",
"248 120 QCURVE SMOOTH",
"248 178 OFFCURVE",
"183 256 OFFCURVE",
"125 291 QCURVE",
"51 257 OFFCURVE",
"-26 188 QCURVE",
"80 101 OFFCURVE",
"80 26 QCURVE SMOOTH",
"80 -12 OFFCURVE",
"31 -69 OFFCURVE",
"0 -86 QCURVE",
"23 -118 LINE"
);
}
);
width = 374;
}
);
note = comma;
unicode = 002C;
},
{
glyphname = hyphen;
lastChange = "2018-07-29 14:56:13 +0000";
layers = (
{
layerId = "BE590684-9836-437F-B2F3-AE785A4EA4BE";
paths = (
{
closed = 1;
nodes = (
"847 522 LINE",
"847 639 LINE",
"57 639 LINE",
"57 522 LINE"
);
}
);
width = 904;
}
);
note = hyphen;
unicode = 002D;
},
{
glyphname = period;
lastChange = "2018-07-29 14:56:13 +0000";
layers = (
{
layerId = "BE590684-9836-437F-B2F3-AE785A4EA4BE";
paths = (
{
closed = 1;
nodes = (
"0 186 LINE",
"-41 151 OFFCURVE",
"-41 122 QCURVE SMOOTH",
"-41 99 OFFCURVE",
"-16 56 QCURVE SMOOTH",
"0 29 OFFCURVE",
"46 0 OFFCURVE",
"68 0 QCURVE SMOOTH",
"75 0 OFFCURVE",
"85 4 QCURVE",
"240 107 LINE",
"147 195 OFFCURVE",
"119 275 QCURVE"
);
}
);
width = 351;
}
);
note = period;
unicode = 002E;
},
{
glyphname = slash;
lastChange = "2018-07-29 14:56:13 +0000";
layers = (
{
layerId = "BE590684-9836-437F-B2F3-AE785A4EA4BE";
paths = (
{
closed = 1;
nodes = (
"-67 -24 LINE",
"98 -24 LINE",
"1142 1452 LINE",
"974 1452 LINE"
);
}
);
width = 1276;
}
);
note = slash;
unicode = 002F;
},
{
glyphname = zero;
lastChange = "2018-07-29 14:56:13 +0000";
layers = (
{
layerId = "BE590684-9836-437F-B2F3-AE785A4EA4BE";
paths = (
{
closed = 1;
nodes = (
"457 1181 OFFCURVE",
"522 1181 QCURVE SMOOTH",
"593 1181 OFFCURVE",
"735 1039 OFFCURVE",
"835 830 OFFCURVE",
"898 594 OFFCURVE",
"898 499 QCURVE SMOOTH",
"898 496 LINE",
"892 394 OFFCURVE",
"769 230 OFFCURVE",
"685 227 QCURVE",
"671 227 LINE SMOOTH",
"577 227 OFFCURVE",
"423 369 OFFCURVE",
"340 590 OFFCURVE",
"340 712 QCURVE SMOOTH",
"340 726 LINE SMOOTH",
"340 807 OFFCURVE",
"368 913 OFFCURVE",
"411 1005 QCURVE",
"365 972 OFFCURVE",
"304 925 OFFCURVE",
"203 824 OFFCURVE",
"142 727 OFFCURVE",
"94 586 OFFCURVE",
"94 510 QCURVE SMOOTH",
"94 487 LINE",
"114 366 OFFCURVE",
"229 143 OFFCURVE",
"397 0 OFFCURVE",
"482 0 QCURVE",
"551 4 OFFCURVE",
"729 124 OFFCURVE",
"895 307 OFFCURVE",
"1039 511 OFFCURVE",
"1127 706 OFFCURVE",
"1128 768 QCURVE",
"1122 904 OFFCURVE",
"1014 1168 OFFCURVE",
"823 1349 OFFCURVE",
"714 1354 QCURVE",
"608 1353 OFFCURVE",
"449 1250 OFFCURVE",
"370 1154 QCURVE",
"397 1120 LINE"
);
}
);
width = 1234;
}
);
note = zero;
unicode = 0030;
},
{
glyphname = one;
lastChange = "2018-07-29 14:56:13 +0000";
layers = (
{
layerId = "BE590684-9836-437F-B2F3-AE785A4EA4BE";
paths = (
{
closed = 1;
nodes = (
"403 1352 OFFCURVE",
"122 1152 OFFCURVE",
"70 1095 QCURVE",
"105 1074 LINE",
"135 1103 OFFCURVE",
"158 1103 QCURVE SMOOTH",
"196 1103 OFFCURVE",
"246 964 OFFCURVE",
"263 814 OFFCURVE",
"264 738 QCURVE SMOOTH",
"264 28 LINE",
"526 198 LINE",
"519 1194 LINE",
"519 1205 OFFCURVE",
"518 1246 OFFCURVE",
"517 1270 OFFCURVE",
"514 1304 OFFCURVE",
"506 1324 OFFCURVE",
"494 1344 OFFCURVE",
"473 1353 OFFCURVE",
"459 1353 QCURVE SMOOTH"
);
}
);
width = 677;
}
);
note = one;
unicode = 0031;
},
{
glyphname = two;
lastChange = "2018-07-29 14:56:13 +0000";
layers = (
{
layerId = "BE590684-9836-437F-B2F3-AE785A4EA4BE";
paths = (
{
closed = 1;
nodes = (
"132 1126 LINE",
"207 1178 OFFCURVE",
"298 1178 QCURVE SMOOTH",
"368 1178 OFFCURVE",
"419 1137 QCURVE",
"474 1108 OFFCURVE",
"542 923 OFFCURVE",
"542 825 QCURVE SMOOTH",
"542 799 LINE",
"536 721 OFFCURVE",
"472 567 OFFCURVE",
"384 448 OFFCURVE",
"268 325 OFFCURVE",
"165 234 OFFCURVE",
"59 132 OFFCURVE",
"31 96 QCURVE",
"86 40 LINE",
"194 61 OFFCURVE",
"312 61 QCURVE SMOOTH",
"460 61 OFFCURVE",
"661 24 QCURVE",
"863 282 LINE",
"344 273 LINE",
"387 338 LINE SMOOTH",
"430 404 OFFCURVE",
"565 603 OFFCURVE",
"613 671 QCURVE",
"688 750 OFFCURVE",
"768 899 OFFCURVE",
"769 1004 QCURVE SMOOTH",
"769 1011 LINE SMOOTH",
"769 1059 OFFCURVE",
"749 1154 OFFCURVE",
"702 1249 OFFCURVE",
"633 1321 OFFCURVE",
"526 1368 OFFCURVE",
"461 1370 QCURVE",
"364 1367 OFFCURVE",
"125 1216 OFFCURVE",
"88 1156 QCURVE"
);
}
);
width = 932;
}
);
note = two;
unicode = 0032;
},
{
glyphname = three;
lastChange = "2018-07-29 14:56:13 +0000";
layers = (
{
layerId = "BE590684-9836-437F-B2F3-AE785A4EA4BE";
paths = (
{
closed = 1;
nodes = (
"178 1183 OFFCURVE",
"244 1183 QCURVE SMOOTH",
"329 1183 OFFCURVE",
"452 1056 OFFCURVE",
"452 972 QCURVE SMOOTH",
"452 960 LINE",
"444 899 OFFCURVE",
"392 806 OFFCURVE",
"321 748 OFFCURVE",
"253 710 OFFCURVE",
"179 674 OFFCURVE",
"163 662 QCURVE",
"228 659 OFFCURVE",
"330 640 OFFCURVE",
"428 597 OFFCURVE",
"492 529 OFFCURVE",
"531 418 OFFCURVE",
"531 345 QCURVE SMOOTH",
"531 320 LINE SMOOTH",
"526 139 OFFCURVE",
"221 -54 QCURVE",
"230 -71 LINE",
"265 -48 OFFCURVE",
"402 28 OFFCURVE",
"510 88 OFFCURVE",
"640 184 OFFCURVE",
"727 279 OFFCURVE",
"787 413 OFFCURVE",
"787 487 QCURVE SMOOTH",
"787 620 OFFCURVE",
"617 794 OFFCURVE",
"466 834 QCURVE",
"490 857 OFFCURVE",
"569 918 OFFCURVE",
"623 963 OFFCURVE",
"678 1023 OFFCURVE",
"707 1095 OFFCURVE",
"707 1138 QCURVE SMOOTH",
"707 1233 OFFCURVE",
"554 1361 OFFCURVE",
"452 1361 QCURVE SMOOTH",
"404 1361 OFFCURVE",
"287 1306 OFFCURVE",
"202 1241 OFFCURVE",
"113 1168 OFFCURVE",
"100 1160 QCURVE",
"114 1138 LINE"
);
}
);
width = 887;
}
);
note = three;
unicode = 0033;
},
{
glyphname = four;
lastChange = "2018-07-29 14:56:13 +0000";
layers = (
{
layerId = "BE590684-9836-437F-B2F3-AE785A4EA4BE";
paths = (
{
closed = 1;
nodes = (
"608 1341 OFFCURVE",
"497 1216 OFFCURVE",
"314 990 OFFCURVE",
"174 789 OFFCURVE",
"69 574 OFFCURVE",
"69 506 QCURVE SMOOTH",
"69 473 OFFCURVE",
"100 430 OFFCURVE",
"159 409 OFFCURVE",
"222 402 OFFCURVE",
"265 402 QCURVE SMOOTH",
"607 402 LINE",
"607 10 LINE",
"826 164 LINE",
"826 422 LINE",
"947 442 LINE",
"1102 657 LINE",
"843 622 LINE",
"843 1099 LINE",
"625 945 LINE",
"625 610 LINE",
"572 610 OFFCURVE",
"520 611 OFFCURVE",
"437 618 OFFCURVE",
"395 634 OFFCURVE",
"350 662 OFFCURVE",
"331 707 OFFCURVE",
"331 738 QCURVE SMOOTH",
"331 792 OFFCURVE",
"374 920 OFFCURVE",
"458 1063 OFFCURVE",
"532 1173 OFFCURVE",
"647 1333 OFFCURVE",
"672 1370 QCURVE",
"654 1390 LINE"
);
}
);
width = 1146;
}
);
note = four;
unicode = 0034;
},
{
glyphname = five;
lastChange = "2018-07-29 14:56:13 +0000";
layers = (
{
layerId = "BE590684-9836-437F-B2F3-AE785A4EA4BE";
paths = (
{
closed = 1;
nodes = (
"61 790 LINE",
"85 777 OFFCURVE",
"176 729 OFFCURVE",
"226 702 OFFCURVE",
"304 652 OFFCURVE",
"348 610 OFFCURVE",
"402 544 OFFCURVE",
"430 474 OFFCURVE",
"450 378 OFFCURVE",
"450 323 QCURVE SMOOTH",
"450 282 OFFCURVE",
"404 192 OFFCURVE",
"317 102 OFFCURVE",
"251 43 OFFCURVE",
"148 -37 OFFCURVE",
"141 -43 QCURVE",
"167 -80 LINE",
"213 -53 OFFCURVE",
"271 -18 OFFCURVE",
"365 44 OFFCURVE",
"427 90 OFFCURVE",
"509 158 OFFCURVE",
"563 218 OFFCURVE",
"621 295 OFFCURVE",
"655 369 OFFCURVE",
"677 457 OFFCURVE",
"677 502 QCURVE SMOOTH",
"677 586 OFFCURVE",
"594 756 OFFCURVE",
"471 882 OFFCURVE",
"333 970 OFFCURVE",
"275 981 QCURVE",
"305 1123 LINE",
"448 1073 OFFCURVE",
"551 1073 QCURVE SMOOTH",
"627 1073 OFFCURVE",
"748 1134 OFFCURVE",
"826 1223 OFFCURVE",
"874 1300 QCURVE",
"874 1342 LINE",
"766 1322 OFFCURVE",
"664 1322 QCURVE SMOOTH",
"532 1322 OFFCURVE",
"399 1356 QCURVE"
);
}
);
width = 873;
}
);
note = five;
unicode = 0035;
},
{
glyphname = six;
lastChange = "2018-07-29 14:56:13 +0000";
layers = (
{
layerId = "BE590684-9836-437F-B2F3-AE785A4EA4BE";
paths = (
{
closed = 1;
nodes = (
"672 1357 OFFCURVE",
"601 1298 OFFCURVE",
"544 1246 OFFCURVE",
"444 1152 OFFCURVE",
"362 1059 OFFCURVE",
"264 940 OFFCURVE",
"190 815 OFFCURVE",
"125 680 OFFCURVE",
"91 533 OFFCURVE",
"91 462 QCURVE SMOOTH",
"91 340 OFFCURVE",
"205 126 OFFCURVE",
"375 7 OFFCURVE",
"462 7 QCURVE SMOOTH",
"503 7 OFFCURVE",
"633 67 OFFCURVE",
"773 175 OFFCURVE",
"896 305 OFFCURVE",
"976 465 OFFCURVE",
"976 538 QCURVE SMOOTH",
"976 571 OFFCURVE",
"942 677 OFFCURVE",
"885 784 OFFCURVE",
"794 861 OFFCURVE",
"746 861 QCURVE SMOOTH",
"676 861 OFFCURVE",
"613 818 QCURVE SMOOTH",
"578 794 OFFCURVE",
"506 721 QCURVE",
"600 692 OFFCURVE",
"762 439 OFFCURVE",
"762 301 QCURVE SMOOTH",
"762 246 OFFCURVE",
"692 169 OFFCURVE",
"640 169 QCURVE SMOOTH",
"572 169 OFFCURVE",
"447 277 OFFCURVE",
"366 436 OFFCURVE",
"319 607 OFFCURVE",
"319 675 QCURVE SMOOTH",
"319 754 OFFCURVE",
"357 904 OFFCURVE",
"407 1012 OFFCURVE",
"496 1136 OFFCURVE",
"559 1205 OFFCURVE",
"665 1317 OFFCURVE",
"686 1341 QCURVE",
"673 1358 LINE"
);
}
);
width = 1039;
}
);
note = six;
unicode = 0036;
},
{
glyphname = seven;
lastChange = "2018-07-29 14:56:13 +0000";
layers = (
{
layerId = "BE590684-9836-437F-B2F3-AE785A4EA4BE";
paths = (
{
closed = 1;
nodes = (
"54 1131 LINE",
"138 1032 OFFCURVE",
"489 1032 QCURVE SMOOTH",
"632 1032 LINE",
"200 32 LINE",
"450 178 LINE",
"450 474 OFFCURVE",
"664 899 QCURVE SMOOTH",
"723 1015 OFFCURVE",
"878 1281 QCURVE",
"849 1310 LINE",
"644 1284 OFFCURVE",
"570 1284 QCURVE SMOOTH",
"382 1284 OFFCURVE",
"299 1361 QCURVE"
);
}
);
width = 861;
}
);
note = seven;
unicode = 0037;
},
{
glyphname = eight;
lastChange = "2018-07-29 14:56:13 +0000";
layers = (
{
layerId = "BE590684-9836-437F-B2F3-AE785A4EA4BE";
paths = (
{
closed = 1;
nodes = (
"533 629 OFFCURVE",
"699 451 OFFCURVE",
"699 341 QCURVE SMOOTH",
"699 273 OFFCURVE",
"563 157 OFFCURVE",
"496 157 QCURVE SMOOTH",
"412 157 OFFCURVE",
"317 306 OFFCURVE",
"317 405 QCURVE SMOOTH",
"317 443 OFFCURVE",
"337 513 OFFCURVE",
"377 577 OFFCURVE",
"412 620 OFFCURVE",
"438 649 QCURVE"
);
},
{
closed = 1;
nodes = (
"519 1186 OFFCURVE",
"545 1186 QCURVE SMOOTH",
"598 1186 OFFCURVE",
"659 1091 OFFCURVE",
"659 1021 QCURVE SMOOTH",
"659 917 OFFCURVE",
"596 836 QCURVE",
"498 848 OFFCURVE",
"340 996 OFFCURVE",
"340 1087 QCURVE SMOOTH",
"340 1188 OFFCURVE",
"446 1269 QCURVE",
"437 1295 LINE",
"411 1285 OFFCURVE",
"310 1211 OFFCURVE",
"199 1111 OFFCURVE",
"117 987 OFFCURVE",
"117 938 QCURVE SMOOTH",
"117 909 OFFCURVE",
"136 856 OFFCURVE",
"165 814 OFFCURVE",
"211 773 OFFCURVE",
"252 745 OFFCURVE",
"309 715 OFFCURVE",
"346 698 OFFCURVE",
"397 675 OFFCURVE",
"406 671 QCURVE",
"378 636 OFFCURVE",
"281 551 OFFCURVE",
"200 481 OFFCURVE",
"121 394 OFFCURVE",
"76 281 OFFCURVE",
"76 214 QCURVE SMOOTH",
"76 122 OFFCURVE",
"224 4 OFFCURVE",
"331 4 QCURVE SMOOTH",
"380 4 OFFCURVE",
"583 122 OFFCURVE",
"784 284 OFFCURVE",
"936 473 OFFCURVE",
"936 535 QCURVE SMOOTH",
"936 566 OFFCURVE",
"917 622 OFFCURVE",
"889 665 OFFCURVE",
"841 706 OFFCURVE",
"799 733 OFFCURVE",
"736 764 OFFCURVE",
"694 781 OFFCURVE",
"630 808 OFFCURVE",
"615 814 QCURVE",
"644 839 LINE SMOOTH",
"673 864 OFFCURVE",
"756 950 OFFCURVE",
"839 1048 OFFCURVE",
"897 1160 OFFCURVE",
"897 1203 QCURVE SMOOTH",
"897 1267 OFFCURVE",
"828 1357 OFFCURVE",
"765 1357 QCURVE SMOOTH",
"697 1357 OFFCURVE",
"523 1248 OFFCURVE",
"488 1172 QCURVE"
);
}
);
width = 1047;
}
);
note = eight;
unicode = 0038;
},
{
glyphname = nine;
lastChange = "2018-07-29 14:56:13 +0000";
layers = (
{
layerId = "BE590684-9836-437F-B2F3-AE785A4EA4BE";
paths = (
{
closed = 1;
nodes = (
"560 662 OFFCURVE",
"524 662 QCURVE SMOOTH",
"461 662 OFFCURVE",
"355 799 OFFCURVE",
"303 967 OFFCURVE",
"303 1032 QCURVE SMOOTH",
"303 1103 OFFCURVE",
"367 1210 OFFCURVE",
"427 1210 QCURVE SMOOTH",
"519 1210 OFFCURVE",
"669 1033 OFFCURVE",
"746 779 OFFCURVE",
"746 650 QCURVE SMOOTH",
"746 582 OFFCURVE",
"691 432 OFFCURVE",
"615 313 OFFCURVE",
"501 179 OFFCURVE",
"422 100 OFFCURVE",
"371 53 QCURVE",
"394 12 LINE",
"433 37 OFFCURVE",
"556 140 OFFCURVE",
"730 321 OFFCURVE",
"874 517 OFFCURVE",
"977 766 OFFCURVE",
"977 881 QCURVE SMOOTH",
"977 994 OFFCURVE",
"877 1218 OFFCURVE",
"699 1368 OFFCURVE",
"600 1368 QCURVE SMOOTH",
"543 1368 OFFCURVE",
"369 1268 OFFCURVE",
"207 1120 OFFCURVE",
"91 931 OFFCURVE",
"91 851 QCURVE SMOOTH",
"91 782 OFFCURVE",
"142 633 OFFCURVE",
"253 518 OFFCURVE",
"324 518 QCURVE SMOOTH",
"347 518 OFFCURVE",
"394 530 OFFCURVE",
"432 545 OFFCURVE",
"476 574 OFFCURVE",
"504 594 OFFCURVE",
"544 632 OFFCURVE",
"560 648 OFFCURVE",
"596 686 OFFCURVE",
"598 688 QCURVE"
);
}
);
width = 1093;
}
);
note = nine;
unicode = 0039;
},
{
glyphname = colon;
lastChange = "2018-07-29 14:56:13 +0000";
layers = (
{
layerId = "BE590684-9836-437F-B2F3-AE785A4EA4BE";
paths = (
{
closed = 1;
nodes = (
"84 186 LINE",
"45 153 OFFCURVE",
"45 122 QCURVE SMOOTH",
"45 99 OFFCURVE",
"70 56 QCURVE SMOOTH",
"86 29 OFFCURVE",
"132 0 OFFCURVE",
"154 0 QCURVE SMOOTH",
"161 0 OFFCURVE",
"171 4 QCURVE",
"326 107 LINE",
"233 195 OFFCURVE",
"205 275 QCURVE"
);
},
{
closed = 1;
nodes = (
"84 859 LINE",
"45 826 OFFCURVE",
"45 795 QCURVE SMOOTH",
"45 772 OFFCURVE",
"70 729 QCURVE SMOOTH",
"86 702 OFFCURVE",
"132 673 OFFCURVE",
"154 673 QCURVE SMOOTH",
"161 673 OFFCURVE",
"171 677 QCURVE",
"326 780 LINE",
"233 868 OFFCURVE",
"205 948 QCURVE"
);
}
);
width = 437;
}
);
note = colon;
unicode = 003A;
},
{
glyphname = semicolon;
lastChange = "2018-07-29 14:56:13 +0000";
layers = (
{
layerId = "BE590684-9836-437F-B2F3-AE785A4EA4BE";
paths = (
{
closed = 1;
nodes = (
"78 860 LINE",
"39 827 OFFCURVE",
"39 796 QCURVE SMOOTH",
"39 773 OFFCURVE",
"64 730 QCURVE SMOOTH",
"80 703 OFFCURVE",
"126 674 OFFCURVE",
"148 674 QCURVE SMOOTH",
"155 674 OFFCURVE",
"165 678 QCURVE",
"320 781 LINE",
"227 869 OFFCURVE",
"199 949 QCURVE"
);
},
{
closed = 1;
nodes = (
"279 4 LINE SMOOTH",
"349 60 OFFCURVE",
"349 114 QCURVE SMOOTH",
"349 172 OFFCURVE",
"284 249 OFFCURVE",
"227 284 QCURVE",
"153 249 OFFCURVE",
"75 182 QCURVE",
"181 95 OFFCURVE",
"181 20 QCURVE SMOOTH",
"181 -19 OFFCURVE",
"132 -77 OFFCURVE",
"101 -92 QCURVE",
"125 -124 LINE"
);
}
);
width = 475;
}
);
note = semicolon;
unicode = 003B;
},
{
glyphname = less;
lastChange = "2018-07-29 14:56:13 +0000";
layers = (
{
layerId = "BE590684-9836-437F-B2F3-AE785A4EA4BE";
paths = (
{
closed = 1;
nodes = (
"945 162 LINE",
"124 518 LINE",
"945 874 LINE",
"945 1015 LINE",
"-42 584 LINE",
"-42 452 LINE",
"945 22 LINE"
);
}
);
width = 1079;
}
);
note = less;
unicode = 003C;
},
{
glyphname = equal;
lastChange = "2018-07-29 14:56:13 +0000";
layers = (
{
layerId = "BE590684-9836-437F-B2F3-AE785A4EA4BE";
paths = (
{
closed = 1;
nodes = (
"1040 811 LINE",
"53 811 LINE",
"53 664 LINE",
"1040 664 LINE"
);
},
{
closed = 1;
nodes = (
"1040 372 LINE",
"53 372 LINE",
"53 226 LINE",
"1040 226 LINE"
);
}
);
width = 1149;
}
);
note = equal;
unicode = 003D;
},
{
glyphname = greater;
lastChange = "2018-07-29 14:56:13 +0000";
layers = (
{
layerId = "BE590684-9836-437F-B2F3-AE785A4EA4BE";
paths = (
{
closed = 1;
nodes = (
"1025 584 LINE",
"38 1015 LINE",
"38 874 LINE",
"859 518 LINE",
"38 162 LINE",
"38 22 LINE",
"1025 452 LINE"
);
}
);
width = 1134;
}
);
note = greater;
unicode = 003E;
},
{
glyphname = question;
lastChange = "2018-07-29 14:56:13 +0000";
layers = (
{
layerId = "BE590684-9836-437F-B2F3-AE785A4EA4BE";
paths = (
{
closed = 1;
nodes = (
"-25 1192 LINE",
"90 1294 OFFCURVE",
"215 1294 QCURVE SMOOTH",
"355 1294 OFFCURVE",
"549 1045 OFFCURVE",
"549 854 QCURVE SMOOTH",
"549 803 OFFCURVE",
"510 720 OFFCURVE",
"445 656 OFFCURVE",
"376 597 OFFCURVE",
"299 515 OFFCURVE",
"275 470 QCURVE",
"313 434 LINE",
"350 498 OFFCURVE",
"459 611 OFFCURVE",
"561 685 OFFCURVE",
"668 771 OFFCURVE",
"747 851 OFFCURVE",
"797 969 OFFCURVE",
"797 1040 QCURVE SMOOTH",
"797 1162 OFFCURVE",
"666 1349 OFFCURVE",
"458 1444 OFFCURVE",
"337 1444 QCURVE SMOOTH",
"273 1444 OFFCURVE",
"159 1408 OFFCURVE",
"60 1338 OFFCURVE",
"-13 1268 OFFCURVE",
"-58 1216 QCURVE"
);
},
{
closed = 1;
nodes = (
"171 186 LINE",
"132 153 OFFCURVE",
"132 122 QCURVE SMOOTH",
"132 99 OFFCURVE",
"157 56 QCURVE SMOOTH",
"173 29 OFFCURVE",
"219 0 OFFCURVE",
"241 0 QCURVE SMOOTH",
"248 0 OFFCURVE",
"258 4 QCURVE",
"413 107 LINE",
"320 195 OFFCURVE",
"292 275 QCURVE"
);
}
);
width = 912;
}
);
note = question;
unicode = 003F;
},
{
glyphname = at;
lastChange = "2018-07-29 14:56:13 +0000";
layers = (
{
layerId = "BE590684-9836-437F-B2F3-AE785A4EA4BE";
paths = (
{
closed = 1;
nodes = (
"32 419 OFFCURVE",
"253 210 QCURVE SMOOTH",
"474 0 OFFCURVE",
"808 0 QCURVE SMOOTH",
"1007 0 OFFCURVE",
"1305 148 OFFCURVE",
"1402 280 QCURVE",
"1293 280 LINE",
"1123 110 OFFCURVE",
"820 110 QCURVE SMOOTH",
"520 110 OFFCURVE",
"167 451 OFFCURVE",
"167 731 QCURVE SMOOTH",
"167 862 OFFCURVE",
"251 1090 OFFCURVE",
"407 1261 OFFCURVE",
"648 1360 OFFCURVE",
"796 1360 QCURVE SMOOTH",
"1066 1360 OFFCURVE",
"1392 1080 OFFCURVE",
"1392 831 QCURVE SMOOTH",
"1392 654 OFFCURVE",
"1222 434 OFFCURVE",
"1119 434 QCURVE SMOOTH",
"1086 434 OFFCURVE",
"1037 470 OFFCURVE",
"1037 515 QCURVE",
"1173 1093 LINE",
"1063 1093 LINE",
"1021 943 LINE",
"991 996 LINE SMOOTH",
"922 1120 OFFCURVE",
"779 1120 QCURVE SMOOTH",
"612 1120 OFFCURVE",
"374 834 OFFCURVE",
"374 631 QCURVE SMOOTH",
"374 497 OFFCURVE",
"542 312 OFFCURVE",
"659 312 QCURVE SMOOTH",
"713 312 OFFCURVE",
"820 375 OFFCURVE",
"860 418 QCURVE SMOOTH",
"903 465 LINE",
"903 401 LINE SMOOTH",
"903 366 OFFCURVE",
"935 323 OFFCURVE",
"971 312 OFFCURVE",
"992 312 QCURVE SMOOTH",
"1163 312 OFFCURVE",
"1333 461 QCURVE SMOOTH",
"1502 609 OFFCURVE",
"1502 895 QCURVE SMOOTH",
"1502 1034 OFFCURVE",
"1389 1257 OFFCURVE",
"1194 1396 OFFCURVE",
"942 1470 OFFCURVE",
"798 1470 QCURVE SMOOTH",
"591 1470 OFFCURVE",
"239 1277 OFFCURVE",
"32 938 OFFCURVE",
"32 735 QCURVE SMOOTH"
);
},
{
closed = 1;
nodes = (
"521 789 OFFCURVE",
"679 986 OFFCURVE",
"796 986 QCURVE SMOOTH",
"873 986 OFFCURVE",
"970 872 OFFCURVE",
"970 784 QCURVE SMOOTH",
"970 739 OFFCURVE",
"948 646 OFFCURVE",
"902 557 OFFCURVE",
"840 488 OFFCURVE",
"754 446 OFFCURVE",
"706 446 QCURVE SMOOTH",
"620 446 OFFCURVE",
"521 568 OFFCURVE",
"521 657 QCURVE SMOOTH"
);
}
);
width = 1595;
}
);
note = at;
unicode = 0040;
},
{
glyphname = A;
lastChange = "2018-07-29 14:56:13 +0000";
layers = (
{
layerId = "BE590684-9836-437F-B2F3-AE785A4EA4BE";
paths = (
{
closed = 1;
nodes = (
"499 484 OFFCURVE",
"499 484 QCURVE SMOOTH",
"376 484 OFFCURVE",
"285 496 QCURVE",
"529 1140 LINE",
"783 500 LINE",
"693 484 OFFCURVE",
"554 484 QCURVE SMOOTH"
);
},
{
closed = 1;
nodes = (
"461 1300 LINE",
"223 562 OFFCURVE",
"-61 12 QCURVE",
"191 132 LINE",
"191 202 OFFCURVE",
"243 370 QCURVE",
"835 370 LINE",
"837 366 OFFCURVE",
"877 291 OFFCURVE",
"906 239 OFFCURVE",
"955 153 OFFCURVE",
"995 93 OFFCURVE",
"1040 32 OFFCURVE",
"1077 0 OFFCURVE",
"1091 0 QCURVE SMOOTH",
"1196 0 OFFCURVE",
"1335 150 QCURVE",
"1322 180 LINE",
"1310 157 OFFCURVE",
"1292 157 QCURVE SMOOTH",
"1230 157 OFFCURVE",
"983 610 OFFCURVE",
"758 1197 OFFCURVE",
"715 1396 QCURVE",
"677 1420 LINE"
);
}
);
width = 1443;
}
);
note = A;
unicode = 0041;
},
{
glyphname = B;
lastChange = "2018-07-29 14:56:13 +0000";
layers = (
{
layerId = "BE590684-9836-437F-B2F3-AE785A4EA4BE";
paths = (
{
closed = 1;
nodes = (
"462 1254 OFFCURVE",
"612 1221 OFFCURVE",
"708 1169 OFFCURVE",
"775 1103 OFFCURVE",
"803 1041 OFFCURVE",
"803 1013 QCURVE SMOOTH",
"803 994 OFFCURVE",
"797 981 QCURVE",
"797 939 OFFCURVE",
"746 860 OFFCURVE",
"670 804 OFFCURVE",
"583 760 OFFCURVE",
"512 737 OFFCURVE",
"491 735 QCURVE",
"905 637 OFFCURVE",
"905 351 QCURVE SMOOTH",
"905 287 OFFCURVE",
"765 168 OFFCURVE",
"710 168 QCURVE SMOOTH",
"611 168 OFFCURVE",
"465 202 OFFCURVE",
"371 246 QCURVE",
"371 1254 LINE"
);
},
{
closed = 1;
nodes = (
"805 816 OFFCURVE",
"880 875 OFFCURVE",
"926 918 OFFCURVE",
"982 982 OFFCURVE",
"1010 1055 OFFCURVE",
"1010 1095 QCURVE SMOOTH",
"1010 1420 OFFCURVE",
"362 1420 QCURVE SMOOTH",
"321 1420 OFFCURVE",
"209 1404 OFFCURVE",
"139 1389 OFFCURVE",
"131 1386 QCURVE",
"-28 1203 LINE",
"-16 1205 OFFCURVE",
"51 1219 OFFCURVE",
"83 1224 OFFCURVE",
"135 1230 OFFCURVE",
"158 1230 QCURVE",
"188 989 OFFCURVE",
"188 728 QCURVE SMOOTH",
"188 409 OFFCURVE",
"143 72 QCURVE",
"340 0 OFFCURVE",
"521 0 QCURVE SMOOTH",
"571 0 OFFCURVE",
"724 63 OFFCURVE",
"886 171 OFFCURVE",
"1029 299 OFFCURVE",
"1120 445 OFFCURVE",
"1120 569 OFFCURVE",
"1088 661 OFFCURVE",
"1037 722 OFFCURVE",
"948 766 OFFCURVE",
"858 792 OFFCURVE",
"791 804 QCURVE"
);
}
);
width = 1229;
}
);
note = B;
unicode = 0042;
},
{
glyphname = C;
lastChange = "2018-07-29 14:56:13 +0000";
layers = (
{
layerId = "BE590684-9836-437F-B2F3-AE785A4EA4BE";
paths = (
{
closed = 1;
nodes = (
"858 198 OFFCURVE",
"574 198 OFFCURVE",
"362 396 OFFCURVE",
"252 737 OFFCURVE",
"252 954 QCURVE SMOOTH",
"252 1023 OFFCURVE",
"313 1170 OFFCURVE",
"436 1280 OFFCURVE",
"512 1280 QCURVE SMOOTH",
"578 1280 OFFCURVE",
"687 1246 OFFCURVE",
"742 1210 OFFCURVE",
"788 1174 QCURVE",
"801 1183 OFFCURVE",
"928 1266 OFFCURVE",
"994 1321 OFFCURVE",
"994 1338 QCURVE SMOOTH",
"994 1344 OFFCURVE",
"992 1346 QCURVE",
"944 1420 OFFCURVE",
"814 1420 QCURVE SMOOTH",
"767 1420 LINE SMOOTH",
"631 1420 OFFCURVE",
"361 1294 OFFCURVE",
"158 1089 OFFCURVE",
"32 815 OFFCURVE",
"32 676 QCURVE SMOOTH",
"32 547 OFFCURVE",
"118 303 OFFCURVE",
"268 115 OFFCURVE",
"489 0 OFFCURVE",
"616 0 QCURVE SMOOTH",
"684 0 OFFCURVE",
"817 49 OFFCURVE",
"922 129 OFFCURVE",
"1002 214 OFFCURVE",
"1031 258 QCURVE",
"1021 300 LINE"
);
}
);
width = 1128;
}
);
note = C;
unicode = 0043;
},
{
glyphname = D;
lastChange = "2018-07-29 14:56:13 +0000";
layers = (
{
layerId = "BE590684-9836-437F-B2F3-AE785A4EA4BE";
paths = (
{
closed = 1;
nodes = (
"1055 1240 OFFCURVE",
"1055 552 QCURVE SMOOTH",
"1055 405 OFFCURVE",
"883 188 OFFCURVE",
"745 188 QCURVE SMOOTH",
"627 188 OFFCURVE",
"461 226 OFFCURVE",
"385 280 QCURVE",
"385 1240 LINE"
);
},
{
closed = 1;
nodes = (
"175 1248 LINE",
"175 72 LINE",
"227 62 OFFCURVE",
"359 22 OFFCURVE",
"467 0 OFFCURVE",
"533 0 QCURVE SMOOTH",
"600 0 OFFCURVE",
"789 89 OFFCURVE",
"982 244 OFFCURVE",
"1149 430 OFFCURVE",
"1255 647 OFFCURVE",
"1255 742 QCURVE SMOOTH",
"1255 880 OFFCURVE",
"1163 1109 OFFCURVE",
"1007 1264 OFFCURVE",
"794 1371 OFFCURVE",
"559 1420 OFFCURVE",
"431 1420 QCURVE SMOOTH",
"376 1420 OFFCURVE",
"202 1412 OFFCURVE",
"147 1412 QCURVE",
"-47 1248 LINE"
);
}
);
width = 1354;
}
);
note = D;
unicode = 0044;
},
{
glyphname = E;
lastChange = "2018-07-29 14:56:13 +0000";
layers = (
{
layerId = "BE590684-9836-437F-B2F3-AE785A4EA4BE";
paths = (
{
closed = 1;
nodes = (
"36 1260 LINE",
"234 1260 LINE",
"234 838 LINE",
"177 756 OFFCURVE",
"34 650 QCURVE",
"226 650 LINE",
"226 0 LINE",
"330 12 OFFCURVE",
"468 12 QCURVE SMOOTH",
"544 12 OFFCURVE",
"848 0 OFFCURVE",
"926 0 QCURVE",
"1102 182 LINE",
"785 182 LINE SMOOTH",
"564 182 OFFCURVE",
"416 166 QCURVE",
"416 644 LINE",
"484 644 OFFCURVE",
"587 647 OFFCURVE",
"671 657 OFFCURVE",
"726 666 OFFCURVE",
"775 689 OFFCURVE",
"802 704 OFFCURVE",
"834 742 OFFCURVE",
"851 766 OFFCURVE",
"886 820 OFFCURVE",
"898 838 QCURVE",
"424 838 LINE",
"424 1242 LINE",
"576 1226 OFFCURVE",
"654 1226 QCURVE SMOOTH",
"725 1226 OFFCURVE",
"782 1234 QCURVE",
"804 1234 OFFCURVE",
"845 1245 OFFCURVE",
"887 1274 OFFCURVE",
"915 1293 OFFCURVE",
"958 1342 OFFCURVE",
"974 1359 OFFCURVE",
"1019 1417 OFFCURVE",
"1022 1420 QCURVE",
"939 1420 OFFCURVE",
"608 1404 OFFCURVE",
"517 1404 QCURVE SMOOTH",
"367 1404 OFFCURVE",
"226 1420 QCURVE"
);
}
);
width = 1210;
}
);
note = E;
unicode = 0045;
},
{
glyphname = F;
lastChange = "2018-07-29 14:56:13 +0000";
layers = (
{
layerId = "BE590684-9836-437F-B2F3-AE785A4EA4BE";
paths = (
{
closed = 1;
nodes = (
"22 1242 LINE",
"230 1242 LINE",
"230 822 LINE",
"42 658 LINE",
"234 656 LINE",
"230 -16 LINE",
"440 134 LINE",
"428 634 LINE",
"630 634 LINE",
"634 634 LINE SMOOTH",
"706 634 OFFCURVE",
"865 781 OFFCURVE",
"906 848 QCURVE",
"595 824 LINE",
"540 824 OFFCURVE",
"432 826 QCURVE",
"432 862 OFFCURVE",
"427 996 OFFCURVE",
"427 1033 QCURVE SMOOTH",
"427 1117 OFFCURVE",
"438 1216 QCURVE",
"728 1226 LINE SMOOTH",
"821 1229 OFFCURVE",
"1008 1379 OFFCURVE",
"1040 1432 QCURVE",
"960 1430 OFFCURVE",
"555 1412 OFFCURVE",
"444 1412 QCURVE SMOOTH",
"321 1412 OFFCURVE",
"222 1420 QCURVE"
);
}
);
width = 1174;
}
);
note = F;
unicode = 0046;
},
{
glyphname = G;
lastChange = "2018-07-29 14:56:13 +0000";
layers = (
{
layerId = "BE590684-9836-437F-B2F3-AE785A4EA4BE";
paths = (
{
closed = 1;
nodes = (
"277 1106 OFFCURVE",
"418 1298 OFFCURVE",
"563 1318 QCURVE SMOOTH",
"588 1322 OFFCURVE",
"616 1322 QCURVE SMOOTH",
"692 1322 OFFCURVE",
"793 1254 OFFCURVE",
"842 1186 QCURVE",
"874 1186 OFFCURVE",
"1049 1312 OFFCURVE",
"1049 1342 QCURVE SMOOTH",
"1049 1381 OFFCURVE",
"909 1420 OFFCURVE",
"824 1420 QCURVE SMOOTH",
"667 1420 OFFCURVE",
"399 1319 OFFCURVE",
"219 1158 OFFCURVE",
"91 953 OFFCURVE",
"31 749 OFFCURVE",
"29 654 QCURVE SMOOTH",
"29 534 OFFCURVE",
"132 290 OFFCURVE",
"288 112 OFFCURVE",
"476 0 OFFCURVE",
"559 0 QCURVE SMOOTH",
"563 0 LINE SMOOTH",
"696 0 OFFCURVE",
"921 78 OFFCURVE",
"1070 202 OFFCURVE",
"1175 357 OFFCURVE",
"1222 510 OFFCURVE",
"1222 579 QCURVE SMOOTH",
"1222 593 LINE SMOOTH",
"1222 686 OFFCURVE",
"1131 816 OFFCURVE",
"1049 816 QCURVE SMOOTH",
"1044 816 LINE SMOOTH",
"957 816 OFFCURVE",
"923 777 QCURVE",
"831 705 OFFCURVE",
"728 606 QCURVE",
"761 582 LINE",
"826 662 OFFCURVE",
"896 663 QCURVE SMOOTH",
"943 663 OFFCURVE",
"1028 484 OFFCURVE",
"1028 367 QCURVE SMOOTH",
"1028 357 LINE",
"1022 274 OFFCURVE",
"957 170 OFFCURVE",
"871 133 OFFCURVE",
"815 132 QCURVE SMOOTH",
"812 132 LINE",
"794 132 LINE SMOOTH",
"687 132 OFFCURVE",
"492 261 OFFCURVE",
"351 475 OFFCURVE",
"267 762 OFFCURVE",
"266 915 QCURVE"
);
}
);
width = 1331;
}
);
note = G;
unicode = 0047;
},
{
glyphname = H;
lastChange = "2018-07-29 14:56:13 +0000";
layers = (
{
layerId = "BE590684-9836-437F-B2F3-AE785A4EA4BE";
paths = (
{
closed = 1;
nodes = (
"470 620 OFFCURVE",
"631 620 QCURVE SMOOTH",
"798 620 OFFCURVE",
"966 608 QCURVE",
"985 41 LINE SMOOTH",
"985 25 OFFCURVE",
"999 0 OFFCURVE",
"1008 0 QCURVE SMOOTH",
"1010 0 LINE",
"1034 4 OFFCURVE",
"1254 157 OFFCURVE",
"1310 204 QCURVE",
"1290 236 LINE",
"1242 194 OFFCURVE",
"1226 194 QCURVE SMOOTH",
"1180 194 OFFCURVE",
"1180 454 QCURVE SMOOTH",
"1180 472 OFFCURVE",
"1181 544 OFFCURVE",
"1181 561 QCURVE SMOOTH",
"1181 573 OFFCURVE",
"1180 618 OFFCURVE",
"1180 628 QCURVE",
"1350 786 LINE",
"1180 784 LINE",
"1170 1448 LINE",
"966 1290 LINE",
"956 784 LINE",
"784 768 OFFCURVE",
"576 768 QCURVE SMOOTH",
"442 768 OFFCURVE",
"310 774 QCURVE",
"306 1430 LINE",
"90 1290 LINE",
"87 816 OFFCURVE",
"87 815 QCURVE SMOOTH",
"104 155 LINE",
"105 145 OFFCURVE",
"107 86 OFFCURVE",
"110 57 OFFCURVE",
"115 18 OFFCURVE",
"125 0 OFFCURVE",
"132 0 QCURVE SMOOTH",
"138 0 OFFCURVE",
"149 2 OFFCURVE",
"159 7 OFFCURVE",
"164 10 OFFCURVE",
"175 18 OFFCURVE",
"178 20 QCURVE",
"313 126 OFFCURVE",
"396 166 QCURVE",
"382 198 LINE",
"370 179 OFFCURVE",
"358 179 QCURVE SMOOTH",
"344 179 OFFCURVE",
"330 204 QCURVE",
"306 256 OFFCURVE",
"306 417 QCURVE SMOOTH",
"306 548 OFFCURVE",
"308 608 QCURVE"
);
}
);
width = 1444;
}
);
note = H;
unicode = 0048;
},
{
glyphname = I;
lastChange = "2018-07-29 14:56:13 +0000";
layers = (
{
layerId = "BE590684-9836-437F-B2F3-AE785A4EA4BE";
paths = (
{
closed = 1;
nodes = (
"173 777 OFFCURVE",
"173 482 QCURVE SMOOTH",
"173 387 OFFCURVE",
"164 82 OFFCURVE",
"164 0 QCURVE",
"389 150 LINE",
"377 1344 LINE",
"377 1380 OFFCURVE",
"348 1423 OFFCURVE",
"330 1423 QCURVE SMOOTH",
"311 1423 OFFCURVE",
"281 1398 QCURVE",
"-30 1211 LINE",
"-6 1183 LINE",
"41 1211 OFFCURVE",
"79 1211 QCURVE SMOOTH",
"111 1211 OFFCURVE",
"141 1165 OFFCURVE",
"153 1090 QCURVE"
);
}
);
width = 512;
}
);
note = I;
unicode = 0049;
},
{
glyphname = J;
lastChange = "2018-07-29 14:56:13 +0000";
layers = (
{
layerId = "BE590684-9836-437F-B2F3-AE785A4EA4BE";
paths = (
{
closed = 1;
nodes = (
"377 1378 OFFCURVE",
"354 1423 OFFCURVE",
"339 1423 QCURVE SMOOTH",
"338 1423 OFFCURVE",
"332 1420 QCURVE",
"296 1406 OFFCURVE",
"283 1395 QCURVE",
"-28 1208 LINE",
"-4 1180 LINE",
"43 1208 OFFCURVE",
"81 1208 QCURVE SMOOTH",
"112 1208 OFFCURVE",
"148 1152 OFFCURVE",
"155 1087 QCURVE",
"181 680 OFFCURVE",
"181 482 QCURVE SMOOTH",
"180 442 OFFCURVE",
"180 258 OFFCURVE",
"177 159 OFFCURVE",
"170 -4 OFFCURVE",
"152 -110 OFFCURVE",
"124 -234 OFFCURVE",
"78 -329 OFFCURVE",
"47 -366 QCURVE",
"46 -393 OFFCURVE",
"46 -438 QCURVE",
"391 -138 LINE",
"373 131 OFFCURVE",
"373 435 QCURVE SMOOTH",
"373 553 OFFCURVE",
"377 1228 OFFCURVE",
"377 1344 QCURVE SMOOTH"
);
}
);
width = 522;
}
);
note = J;
unicode = 004A;
},
{
glyphname = K;
lastChange = "2018-07-29 14:56:13 +0000";
layers = (
{
layerId = "BE590684-9836-437F-B2F3-AE785A4EA4BE";
paths = (
{
closed = 1;
nodes = (
"631 1274 OFFCURVE",
"654 1255 OFFCURVE",
"706 1204 OFFCURVE",
"729 1155 OFFCURVE",
"729 1129 QCURVE SMOOTH",
"729 1084 OFFCURVE",
"685 1040 QCURVE SMOOTH",
"389 744 LINE",
"817 42 LINE SMOOTH",
"858 -23 OFFCURVE",
"892 -23 QCURVE SMOOTH",
"907 -23 OFFCURVE",
"921 -12 QCURVE SMOOTH",
"945 7 OFFCURVE",
"1030 62 OFFCURVE",
"1100 115 OFFCURVE",
"1131 148 QCURVE",
"1113 141 OFFCURVE",
"1097 141 QCURVE SMOOTH",
"1066 141 OFFCURVE",
"1031 174 QCURVE",
"945 271 OFFCURVE",
"798 477 OFFCURVE",
"589 809 OFFCURVE",
"561 852 QCURVE",
"612 920 OFFCURVE",
"763 1072 OFFCURVE",
"881 1172 OFFCURVE",
"968 1257 OFFCURVE",
"969 1274 QCURVE",
"969 1374 OFFCURVE",
"783 1416 QCURVE",
"601 1298 LINE"
);
},
{
closed = 1;
nodes = (
"0 1186 LINE",
"27 1206 OFFCURVE",
"53 1206 QCURVE SMOOTH",
"91 1206 OFFCURVE",
"141 1119 OFFCURVE",
"146 1068 QCURVE SMOOTH",
"168 776 OFFCURVE",
"168 485 QCURVE SMOOTH",
"168 245 OFFCURVE",
"154 10 QCURVE",
"366 142 LINE",
"356 1298 LINE",
"353 1331 OFFCURVE",
"328 1413 OFFCURVE",
"307 1413 QCURVE SMOOTH",
"300 1413 OFFCURVE",
"296 1411 QCURVE",
"138 1343 OFFCURVE",
"-24 1210 QCURVE"
);
}
);
width = 1239;
}
);
note = K;
unicode = 004B;
},
{
glyphname = L;
lastChange = "2018-07-29 14:56:13 +0000";
layers = (
{
layerId = "BE590684-9836-437F-B2F3-AE785A4EA4BE";
paths = (
{
closed = 1;
nodes = (
"210 5 LINE",
"843 0 LINE",
"1001 177 LINE",
"964 180 OFFCURVE",
"925 180 QCURVE SMOOTH",
"858 180 OFFCURVE",
"510 167 OFFCURVE",
"442 167 QCURVE SMOOTH",
"423 167 OFFCURVE",
"400 178 OFFCURVE",
"384 180 QCURVE",
"378 1336 LINE",
"378 1371 OFFCURVE",
"331 1420 OFFCURVE",
"311 1420 QCURVE SMOOTH",
"292 1420 OFFCURVE",
"262 1395 QCURVE",
"-49 1208 LINE",
"-25 1180 LINE",
"22 1208 OFFCURVE",
"60 1208 QCURVE SMOOTH",
"96 1208 OFFCURVE",
"166 1149 OFFCURVE",
"176 1092 QCURVE"
);
}
);
width = 1109;
}
);
note = L;
unicode = 004C;
},
{
glyphname = M;
lastChange = "2018-07-29 14:56:13 +0000";
layers = (
{
layerId = "BE590684-9836-437F-B2F3-AE785A4EA4BE";
paths = (
{
closed = 1;
nodes = (
"1459 1245 OFFCURVE",
"1460 1229 OFFCURVE",
"1460 1225 QCURVE SMOOTH",
"1460 1156 OFFCURVE",
"1433 969 OFFCURVE",
"1369 752 OFFCURVE",
"1280 570 OFFCURVE",
"1141 447 OFFCURVE",
"1060 444 QCURVE",
"974 445 OFFCURVE",
"777 585 OFFCURVE",
"603 801 OFFCURVE",
"442 1062 OFFCURVE",
"327 1308 OFFCURVE",
"295 1407 QCURVE",
"124 1317 LINE",
"79 1289 OFFCURVE",
"79 1253 QCURVE SMOOTH",
"79 1233 OFFCURVE",
"94 1212 QCURVE",
"235 934 LINE",
"93 328 OFFCURVE",
"52 0 QCURVE",
"310 168 LINE",
"311 346 OFFCURVE",
"379 714 QCURVE",
"389 701 OFFCURVE",
"409 675 QCURVE SMOOTH",
"454 616 OFFCURVE",
"527 523 OFFCURVE",
"616 414 OFFCURVE",
"690 332 OFFCURVE",
"772 251 OFFCURVE",
"841 200 OFFCURVE",
"911 168 OFFCURVE",
"940 168 QCURVE SMOOTH",
"979 168 OFFCURVE",
"1059 206 OFFCURVE",
"1130 265 OFFCURVE",
"1208 359 OFFCURVE",
"1269 447 OFFCURVE",
"1342 568 OFFCURVE",
"1392 657 OFFCURVE",
"1459 778 OFFCURVE",
"1477 810 QCURVE",
"1491 746 OFFCURVE",
"1545 467 OFFCURVE",
"1581 299 OFFCURVE",
"1648 79 OFFCURVE",
"1687 0 QCURVE",
"1894 141 LINE",
"1912 168 LINE",
"1807 397 OFFCURVE",
"1674 873 OFFCURVE",
"1660 1146 QCURVE",
"1771 1434 LINE",
"1459 1248 LINE"
);
}
);
width = 2020;
}
);
note = M;
unicode = 004D;
},
{
glyphname = N;
lastChange = "2018-07-29 14:56:13 +0000";
layers = (
{
layerId = "BE590684-9836-437F-B2F3-AE785A4EA4BE";
paths = (
{
closed = 1;
nodes = (
"-39 1238 LINE",
"-5 1264 OFFCURVE",
"41 1264 QCURVE SMOOTH",
"58 1264 OFFCURVE",
"140 1198 OFFCURVE",
"230 1115 OFFCURVE",
"243 1106 QCURVE",
"199 0 LINE",
"319 110 OFFCURVE",
"423 156 QCURVE",
"405 322 OFFCURVE",
"405 502 QCURVE SMOOTH",
"405 711 OFFCURVE",
"429 914 QCURVE",
"652 707 OFFCURVE",
"1010 268 OFFCURVE",
"1153 0 QCURVE",
"1337 134 LINE",
"1371 1423 LINE",
"1123 1252 LINE",
"1168 1076 OFFCURVE",
"1168 803 QCURVE SMOOTH",
"1168 744 OFFCURVE",
"1163 526 OFFCURVE",
"1163 484 QCURVE",
"1025 652 OFFCURVE",
"749 965 OFFCURVE",
"477 1249 OFFCURVE",
"265 1420 OFFCURVE",
"217 1420 QCURVE SMOOTH",
"181 1420 OFFCURVE",
"-13 1297 OFFCURVE",
"-61 1258 QCURVE"
);
}
);
width = 1505;
}
);
note = N;
unicode = 004E;
},
{
glyphname = O;
lastChange = "2018-07-29 14:56:13 +0000";
layers = (
{
layerId = "BE590684-9836-437F-B2F3-AE785A4EA4BE";
paths = (
{
closed = 1;
nodes = (
"371 1204 OFFCURVE",
"496 1266 OFFCURVE",
"529 1266 QCURVE",
"545 1270 OFFCURVE",
"566 1270 QCURVE SMOOTH",
"666 1270 OFFCURVE",
"868 1071 OFFCURVE",
"991 787 OFFCURVE",
"991 663 QCURVE SMOOTH",
"991 548 OFFCURVE",
"958 432 QCURVE",
"919 328 OFFCURVE",
"765 195 OFFCURVE",
"675 195 QCURVE SMOOTH",
"661 195 LINE SMOOTH",
"562 195 OFFCURVE",
"367 357 OFFCURVE",
"245 608 OFFCURVE",
"245 732 QCURVE SMOOTH",
"245 748 LINE",
"250 794 LINE SMOOTH",
"256 839 OFFCURVE",
"293 984 OFFCURVE",
"319 1038 QCURVE",
"275 1007 OFFCURVE",
"211 954 OFFCURVE",
"121 857 OFFCURVE",
"64 758 OFFCURVE",
"22 614 OFFCURVE",
"22 535 QCURVE SMOOTH",
"22 511 LINE",
"35 430 OFFCURVE",
"81 289 OFFCURVE",
"161 152 OFFCURVE",
"268 55 OFFCURVE",
"424 -4 OFFCURVE",
"518 -4 QCURVE SMOOTH",
"591 -4 OFFCURVE",
"785 85 OFFCURVE",
"977 241 OFFCURVE",
"1141 432 OFFCURVE",
"1243 659 OFFCURVE",
"1243 762 QCURVE SMOOTH",
"1243 917 OFFCURVE",
"1168 1156 OFFCURVE",
"1053 1296 OFFCURVE",
"895 1385 OFFCURVE",
"749 1416 OFFCURVE",
"670 1416 QCURVE SMOOTH",
"559 1416 OFFCURVE",
"393 1309 OFFCURVE",
"310 1207 QCURVE",
"339 1171 LINE"
);
}
);
width = 1340;
}
);
note = O;
unicode = 004F;
},
{
glyphname = P;
lastChange = "2018-07-29 14:56:13 +0000";
layers = (
{
layerId = "BE590684-9836-437F-B2F3-AE785A4EA4BE";
paths = (
{
closed = 1;
nodes = (
"-27 1214 LINE",
"53 1238 OFFCURVE",
"162 1238 QCURVE",
"187 1014 OFFCURVE",
"187 746 QCURVE SMOOTH",
"187 355 OFFCURVE",
"140 0 QCURVE",
"367 156 LINE",
"367 1230 LINE",
"384 1230 OFFCURVE",
"440 1238 OFFCURVE",
"457 1238 QCURVE SMOOTH",
"587 1238 OFFCURVE",
"763 1042 OFFCURVE",
"763 908 QCURVE SMOOTH",
"763 850 OFFCURVE",
"694 742 OFFCURVE",
"595 671 OFFCURVE",
"490 628 OFFCURVE",
"451 628 QCURVE",
"454 628 OFFCURVE",
"461 598 OFFCURVE",
"465 598 QCURVE SMOOTH",
"522 598 OFFCURVE",
"704 673 OFFCURVE",
"882 792 OFFCURVE",
"1009 961 OFFCURVE",
"1009 1042 QCURVE SMOOTH",
"1009 1136 OFFCURVE",
"916 1283 OFFCURVE",
"757 1373 OFFCURVE",
"557 1420 OFFCURVE",
"445 1420 QCURVE SMOOTH",
"374 1420 OFFCURVE",
"297 1418 OFFCURVE",
"180 1403 OFFCURVE",
"131 1388 QCURVE"
);
}
);
width = 1122;
}
);
note = P;
unicode = 0050;
},
{
glyphname = Q;
lastChange = "2018-07-29 14:56:13 +0000";
layers = (
{
layerId = "BE590684-9836-437F-B2F3-AE785A4EA4BE";
paths = (
{
closed = 1;
nodes = (
"650 195 LINE SMOOTH",
"551 195 OFFCURVE",
"356 357 OFFCURVE",
"234 608 OFFCURVE",
"234 732 QCURVE SMOOTH",
"234 748 LINE",
"240 794 LINE SMOOTH",
"245 839 OFFCURVE",
"282 984 OFFCURVE",
"308 1038 QCURVE",
"264 1007 OFFCURVE",
"200 954 OFFCURVE",
"110 857 OFFCURVE",
"53 758 OFFCURVE",
"11 614 OFFCURVE",
"11 535 QCURVE SMOOTH",
"11 511 LINE",
"24 430 OFFCURVE",
"70 289 OFFCURVE",
"150 152 OFFCURVE",
"257 55 OFFCURVE",
"413 -4 OFFCURVE",
"507 -4 QCURVE SMOOTH",
"607 -4 OFFCURVE",
"739 70 QCURVE",
"873 -107 OFFCURVE",
"1129 -244 QCURVE",
"1209 -282 OFFCURVE",
"1264 -282 QCURVE SMOOTH",
"1306 -282 OFFCURVE",
"1365 -243 OFFCURVE",
"1396 -172 OFFCURVE",
"1412 -106 OFFCURVE",
"1416 -61 QCURVE",
"1401 -45 LINE",
"1400 -46 OFFCURVE",
"1387 -73 OFFCURVE",
"1381 -81 OFFCURVE",
"1366 -99 OFFCURVE",
"1347 -105 OFFCURVE",
"1335 -105 QCURVE SMOOTH",
"1310 -105 OFFCURVE",
"1273 -88 QCURVE SMOOTH",
"1090 -6 OFFCURVE",
"909 202 QCURVE",
"1049 326 OFFCURVE",
"1232 623 OFFCURVE",
"1232 762 QCURVE SMOOTH",
"1232 917 OFFCURVE",
"1157 1156 OFFCURVE",
"1042 1296 OFFCURVE",
"884 1385 OFFCURVE",
"738 1416 OFFCURVE",
"659 1416 QCURVE SMOOTH",
"548 1416 OFFCURVE",
"382 1309 OFFCURVE",
"299 1207 QCURVE",
"328 1171 LINE",
"360 1204 OFFCURVE",
"485 1266 OFFCURVE",
"518 1266 QCURVE",
"534 1270 OFFCURVE",
"555 1270 QCURVE SMOOTH",
"655 1270 OFFCURVE",
"857 1071 OFFCURVE",
"980 787 OFFCURVE",
"980 663 QCURVE SMOOTH",
"980 548 OFFCURVE",
"947 432 QCURVE",
"913 340 OFFCURVE",
"854 276 QCURVE",
"782 386 OFFCURVE",
"736 509 QCURVE SMOOTH",
"705 592 OFFCURVE",
"653 592 QCURVE SMOOTH",
"614 592 OFFCURVE",
"581 556 QCURVE",
"445 362 LINE",
"471 354 LINE",
"477 358 OFFCURVE",
"512 385 OFFCURVE",
"542 402 OFFCURVE",
"554 402 QCURVE SMOOTH",
"575 402 OFFCURVE",
"585 373 QCURVE SMOOTH",
"612 299 OFFCURVE",
"664 195 QCURVE"
);
}
);
width = 1550;
}
);
note = Q;
unicode = 0051;
},
{
glyphname = R;
lastChange = "2018-07-29 14:56:13 +0000";
layers = (
{
layerId = "BE590684-9836-437F-B2F3-AE785A4EA4BE";
paths = (
{
closed = 1;
nodes = (
"-42 1228 LINE",
"-1 1236 OFFCURVE",
"62 1236 QCURVE SMOOTH",
"80 1236 OFFCURVE",
"155 1234 OFFCURVE",
"174 1234 QCURVE",
"183 1122 LINE",
"183 1022 OFFCURVE",
"190 763 OFFCURVE",
"190 696 QCURVE SMOOTH",
"190 565 OFFCURVE",
"170 117 OFFCURVE",
"170 0 QCURVE",
"392 158 LINE",
"392 255 OFFCURVE",
"378 646 OFFCURVE",
"378 746 QCURVE SMOOTH",
"378 828 OFFCURVE",
"388 1172 OFFCURVE",
"388 1262 QCURVE",
"623 1262 OFFCURVE",
"826 1121 OFFCURVE",
"826 964 QCURVE SMOOTH",
"826 950 OFFCURVE",
"816 920 OFFCURVE",
"794 886 OFFCURVE",
"773 857 OFFCURVE",
"736 817 OFFCURVE",
"711 792 OFFCURVE",
"666 747 OFFCURVE",
"656 736 QCURVE",
"486 650 LINE",
"515 568 OFFCURVE",
"588 410 OFFCURVE",
"699 224 OFFCURVE",
"760 129 OFFCURVE",
"832 20 QCURVE SMOOTH",
"862 -28 OFFCURVE",
"902 -28 QCURVE SMOOTH",
"927 -28 OFFCURVE",
"950 -8 QCURVE",
"1166 130 LINE",
"1160 146 LINE",
"1140 132 OFFCURVE",
"1122 132 QCURVE SMOOTH",
"1095 132 OFFCURVE",
"1060 172 QCURVE SMOOTH",
"964 284 OFFCURVE",
"795 546 OFFCURVE",
"692 726 QCURVE",
"710 738 OFFCURVE",
"799 793 OFFCURVE",
"863 834 OFFCURVE",
"948 903 OFFCURVE",
"1002 969 OFFCURVE",
"1040 1060 OFFCURVE",
"1040 1108 QCURVE",
"1034 1216 OFFCURVE",
"887 1357 OFFCURVE",
"645 1420 OFFCURVE",
"476 1420 QCURVE SMOOTH",
"362 1420 OFFCURVE",
"362 1420 QCURVE SMOOTH",
"228 1420 OFFCURVE",
"128 1392 QCURVE"
);
}
);
width = 1277;
}
);
note = R;
unicode = 0052;
},
{
glyphname = S;
lastChange = "2018-07-29 14:56:13 +0000";
layers = (
{
layerId = "BE590684-9836-437F-B2F3-AE785A4EA4BE";
paths = (
{
closed = 1;
nodes = (
"926 1286 LINE",
"946 1295 OFFCURVE",
"946 1305 QCURVE SMOOTH",
"946 1316 OFFCURVE",
"918 1344 QCURVE",
"833 1420 OFFCURVE",
"702 1420 QCURVE SMOOTH",
"614 1420 OFFCURVE",
"391 1338 OFFCURVE",
"192 1207 OFFCURVE",
"56 1022 OFFCURVE",
"56 930 QCURVE SMOOTH",
"56 885 OFFCURVE",
"102 809 OFFCURVE",
"158 766 OFFCURVE",
"231 732 OFFCURVE",
"259 724 OFFCURVE",
"268 722 QCURVE",
"606 614 LINE",
"626 606 LINE SMOOTH",
"647 597 OFFCURVE",
"706 555 OFFCURVE",
"765 496 OFFCURVE",
"806 397 OFFCURVE",
"806 340 QCURVE SMOOTH",
"806 256 OFFCURVE",
"654 134 OFFCURVE",
"576 130 QCURVE",
"569 130 LINE SMOOTH",
"466 130 OFFCURVE",
"323 243 OFFCURVE",
"268 344 QCURVE",
"263 341 OFFCURVE",
"218 315 OFFCURVE",
"205 307 OFFCURVE",
"166 283 OFFCURVE",
"149 271 OFFCURVE",
"115 248 OFFCURVE",
"94 231 OFFCURVE",
"68 209 OFFCURVE",
"56 198 QCURVE SMOOTH",
"34 179 OFFCURVE",
"34 161 QCURVE SMOOTH",
"34 158 LINE SMOOTH",
"34 152 OFFCURVE",
"39 141 OFFCURVE",
"49 127 OFFCURVE",
"51 124 QCURVE",
"88 73 OFFCURVE",
"246 0 OFFCURVE",
"354 0 QCURVE SMOOTH",
"452 0 OFFCURVE",
"659 80 OFFCURVE",
"827 206 OFFCURVE",
"963 353 OFFCURVE",
"1038 497 OFFCURVE",
"1038 550 QCURVE SMOOTH",
"1038 585 OFFCURVE",
"1011 648 OFFCURVE",
"971 692 OFFCURVE",
"917 730 OFFCURVE",
"872 752 OFFCURVE",
"822 770 OFFCURVE",
"805 775 OFFCURVE",
"800 776 QCURVE",
"500 870 LINE",
"478 879 LINE SMOOTH",
"456 888 OFFCURVE",
"393 927 OFFCURVE",
"330 978 OFFCURVE",
"286 1058 OFFCURVE",
"286 1102 QCURVE SMOOTH",
"286 1105 OFFCURVE",
"285 1116 OFFCURVE",
"285 1118 QCURVE SMOOTH",
"285 1213 OFFCURVE",
"411 1319 OFFCURVE",
"500 1326 QCURVE",
"636 1326 OFFCURVE",
"740 1178 QCURVE"
);
}
);
width = 1147;
}
);
note = S;
unicode = 0053;
},
{
glyphname = T;
lastChange = "2018-07-29 14:56:13 +0000";
layers = (
{
layerId = "BE590684-9836-437F-B2F3-AE785A4EA4BE";
paths = (
{
closed = 1;
nodes = (
"-67 1254 LINE",
"403 1226 LINE",
"395 0 LINE",
"647 180 LINE",
"627 499 OFFCURVE",
"622 704 QCURVE SMOOTH",
"620 806 OFFCURVE",
"620 858 QCURVE SMOOTH",
"620 1047 OFFCURVE",
"631 1216 QCURVE",
"661 1217 OFFCURVE",
"761 1218 OFFCURVE",
"812 1220 OFFCURVE",
"894 1227 OFFCURVE",
"944 1242 OFFCURVE",
"1014 1271 OFFCURVE",
"1069 1313 OFFCURVE",
"1135 1378 OFFCURVE",
"1167 1420 QCURVE",
"1048 1420 OFFCURVE",
"1048 1420 QCURVE SMOOTH",
"653 1420 OFFCURVE",
"653 1420 QCURVE SMOOTH",
"543 1420 OFFCURVE",
"543 1420 QCURVE SMOOTH",
"489 1420 OFFCURVE",
"489 1420 QCURVE SMOOTH",
"294 1422 OFFCURVE",
"155 1432 QCURVE"
);
}
);
width = 1301;
}
);
note = T;
unicode = 0054;
},
{
glyphname = U;
lastChange = "2018-07-29 14:56:13 +0000";
layers = (
{
layerId = "BE590684-9836-437F-B2F3-AE785A4EA4BE";
paths = (
{
closed = 1;
nodes = (
"130 1317 LINE SMOOTH",
"120 1310 OFFCURVE",
"82 1284 OFFCURVE",
"71 1275 OFFCURVE",
"51 1254 OFFCURVE",
"45 1236 OFFCURVE",
"40 1208 OFFCURVE",
"40 1188 QCURVE SMOOTH",
"40 1132 OFFCURVE",
"52 1065 QCURVE",
"57 1017 OFFCURVE",
"73 844 OFFCURVE",
"84 727 OFFCURVE",
"107 558 OFFCURVE",
"132 440 OFFCURVE",
"175 294 OFFCURVE",
"226 195 OFFCURVE",
"303 93 OFFCURVE",
"395 32 OFFCURVE",
"518 -6 OFFCURVE",
"591 -6 QCURVE SMOOTH",
"690 -6 OFFCURVE",
"852 35 OFFCURVE",
"972 107 OFFCURVE",
"1071 221 OFFCURVE",
"1138 348 OFFCURVE",
"1196 518 OFFCURVE",
"1235 684 OFFCURVE",
"1277 895 OFFCURVE",
"1311 1085 OFFCURVE",
"1362 1321 OFFCURVE",
"1389 1420 QCURVE",
"1135 1218 LINE",
"1135 846 LINE",
"1130 801 OFFCURVE",
"1127 773 QCURVE SMOOTH",
"1096 508 OFFCURVE",
"1040 384 QCURVE SMOOTH",
"947 177 OFFCURVE",
"733 177 QCURVE SMOOTH",
"651 177 OFFCURVE",
"586 217 QCURVE SMOOTH",
"424 315 OFFCURVE",
"347 678 QCURVE SMOOTH",
"309 853 OFFCURVE",
"269 1247 QCURVE SMOOTH",
"258 1350 OFFCURVE",
"253 1400 QCURVE"
);
}
);
width = 1523;
}
);
note = U;
unicode = 0055;
},
{
glyphname = V;
lastChange = "2018-07-29 14:56:13 +0000";
layers = (
{
layerId = "BE590684-9836-437F-B2F3-AE785A4EA4BE";
paths = (
{
closed = 1;
nodes = (
"-59 1256 LINE",
"-23 1274 OFFCURVE",
"3 1274 QCURVE SMOOTH",
"35 1274 OFFCURVE",
"55 1248 QCURVE SMOOTH",
"136 1140 OFFCURVE",
"290 839 OFFCURVE",
"391 586 OFFCURVE",
"533 227 OFFCURVE",
"583 116 QCURVE SMOOTH",
"612 53 OFFCURVE",
"612 -8 QCURVE SMOOTH",
"612 -22 OFFCURVE",
"611 -28 QCURVE",
"845 108 LINE",
"834 146 OFFCURVE",
"834 170 QCURVE SMOOTH",
"834 215 OFFCURVE",
"865 300 QCURVE",
"914 458 OFFCURVE",
"1076 812 OFFCURVE",
"1360 1353 OFFCURVE",
"1403 1440 QCURVE",
"1055 1262 LINE",
"1045 1139 OFFCURVE",
"966 824 OFFCURVE",
"866 549 OFFCURVE",
"793 369 OFFCURVE",
"771 322 QCURVE",
"291 1370 LINE",
"269 1408 OFFCURVE",
"235 1448 OFFCURVE",
"216 1448 QCURVE SMOOTH",
"211 1448 OFFCURVE",
"201 1444 QCURVE",
"-67 1268 LINE"
);
}
);
width = 1537;
}
);
note = V;
unicode = 0056;
},
{
glyphname = W;
lastChange = "2018-07-29 14:56:13 +0000";
layers = (
{
layerId = "BE590684-9836-437F-B2F3-AE785A4EA4BE";
paths = (
{
closed = 1;
nodes = (
"-61 1227 LINE",
"-42 1236 OFFCURVE",
"-26 1236 QCURVE SMOOTH",
"-7 1236 OFFCURVE",
"14 1224 QCURVE",
"87 1127 OFFCURVE",
"231 872 OFFCURVE",
"338 641 OFFCURVE",
"459 335 OFFCURVE",
"531 132 OFFCURVE",
"581 -15 QCURVE",
"776 102 LINE",
"776 112 LINE SMOOTH",
"776 208 OFFCURVE",
"818 312 QCURVE",
"1160 1023 LINE",
"1247 855 OFFCURVE",
"1329 693 OFFCURVE",
"1468 400 OFFCURVE",
"1566 138 OFFCURVE",
"1607 0 QCURVE",
"1817 132 LINE",
"1811 154 OFFCURVE",
"1811 177 QCURVE SMOOTH",
"1811 225 OFFCURVE",
"1838 273 QCURVE",
"1885 410 OFFCURVE",
"2028 729 OFFCURVE",
"2139 944 OFFCURVE",
"2337 1315 OFFCURVE",
"2381 1400 QCURVE",
"2071 1252 LINE",
"1907 663 OFFCURVE",
"1747 366 QCURVE",
"1277 1407 LINE",
"1031 1257 LINE",
"1033 1227 OFFCURVE",
"1033 1210 QCURVE SMOOTH",
"1033 1114 OFFCURVE",
"966 870 OFFCURVE",
"886 683 OFFCURVE",
"760 400 OFFCURVE",
"731 327 QCURVE",
"710 376 OFFCURVE",
"560 722 OFFCURVE",
"492 870 OFFCURVE",
"367 1134 OFFCURVE",
"254 1331 OFFCURVE",
"194 1420 QCURVE",
"-67 1245 LINE"
);
}
);
width = 2515;
}
);
note = W;
unicode = 0057;
},
{
glyphname = X;
lastChange = "2018-07-29 14:56:13 +0000";
layers = (
{
layerId = "BE590684-9836-437F-B2F3-AE785A4EA4BE";
paths = (
{
closed = 1;
nodes = (
"47 1184 LINE",
"74 1206 OFFCURVE",
"99 1206 QCURVE SMOOTH",
"122 1206 OFFCURVE",
"147 1184 QCURVE",
"214 1114 OFFCURVE",
"331 946 OFFCURVE",
"458 736 OFFCURVE",
"497 680 QCURVE",
"441 581 OFFCURVE",
"285 358 OFFCURVE",
"201 250 OFFCURVE",
"-35 -35 OFFCURVE",
"-53 -58 QCURVE",
"353 120 LINE",
"352 130 OFFCURVE",
"352 150 QCURVE SMOOTH",
"352 230 OFFCURVE",
"405 392 OFFCURVE",
"460 482 OFFCURVE",
"543 597 OFFCURVE",
"549 606 QCURVE",
"579 528 OFFCURVE",
"655 384 OFFCURVE",
"752 240 OFFCURVE",
"823 145 OFFCURVE",
"883 68 QCURVE",
"895 17 OFFCURVE",
"938 17 QCURVE SMOOTH",
"951 17 LINE",
"1036 61 OFFCURVE",
"1228 188 OFFCURVE",
"1231 190 QCURVE",
"1211 226 LINE",
"1156 202 OFFCURVE",
"1135 202 QCURVE SMOOTH",
"1105 202 OFFCURVE",
"1075 228 QCURVE",
"1017 291 OFFCURVE",
"900 450 OFFCURVE",
"837 551 OFFCURVE",
"710 762 OFFCURVE",
"689 796 QCURVE",
"1151 1420 LINE",
"773 1246 LINE",
"772 1235 OFFCURVE",
"769 1178 OFFCURVE",
"767 1161 OFFCURVE",
"760 1113 OFFCURVE",
"748 1086 OFFCURVE",
"727 1032 OFFCURVE",
"696 980 OFFCURVE",
"651 907 OFFCURVE",
"621 862 QCURVE",
"335 1362 LINE",
"333 1365 OFFCURVE",
"321 1385 OFFCURVE",
"310 1396 OFFCURVE",
"302 1396 QCURVE SMOOTH",
"296 1396 OFFCURVE",
"285 1390 QCURVE",
"167 1332 OFFCURVE",
"29 1194 QCURVE"
);
}
);
width = 1339;
}
);
note = X;
unicode = 0058;
},
{
glyphname = Y;
lastChange = "2018-07-29 14:56:13 +0000";
layers = (
{
layerId = "BE590684-9836-437F-B2F3-AE785A4EA4BE";
paths = (
{
closed = 1;
nodes = (
"-45 1242 LINE",
"-37 1242 OFFCURVE",
"-10 1252 OFFCURVE",
"-3 1252 QCURVE SMOOTH",
"17 1252 OFFCURVE",
"47 1226 QCURVE",
"128 1139 OFFCURVE",
"193 1067 OFFCURVE",
"321 914 OFFCURVE",
"410 775 OFFCURVE",
"447 698 QCURVE",
"522 559 OFFCURVE",
"572 244 OFFCURVE",
"572 55 QCURVE SMOOTH",
"572 -96 LINE",
"797 72 LINE",
"796 102 OFFCURVE",
"788 272 OFFCURVE",
"788 317 QCURVE SMOOTH",
"788 522 OFFCURVE",
"865 630 QCURVE",
"1371 1442 LINE",
"1013 1248 LINE",
"1019 1212 OFFCURVE",
"1019 1177 QCURVE SMOOTH",
"1019 1101 OFFCURVE",
"962 939 OFFCURVE",
"897 832 OFFCURVE",
"781 657 OFFCURVE",
"755 614 QCURVE",
"578 996 OFFCURVE",
"251 1384 QCURVE",
"249 1386 OFFCURVE",
"226 1416 OFFCURVE",
"208 1429 OFFCURVE",
"184 1429 OFFCURVE",
"169 1420 QCURVE",
"-67 1262 LINE"
);
}
);
width = 1505;
}
);
note = Y;
unicode = 0059;
},
{
glyphname = Z;
lastChange = "2018-07-29 14:56:13 +0000";
layers = (
{
layerId = "BE590684-9836-437F-B2F3-AE785A4EA4BE";
paths = (
{
closed = 1;
nodes = (
"88 1286 LINE",
"50 1239 OFFCURVE",
"50 1209 QCURVE SMOOTH",
"50 1151 OFFCURVE",
"204 1144 QCURVE",
"744 1160 LINE",
"160 394 LINE",
"148 377 OFFCURVE",
"98 311 OFFCURVE",
"84 289 OFFCURVE",
"55 239 OFFCURVE",
"48 200 OFFCURVE",
"40 139 OFFCURVE",
"40 100 QCURVE SMOOTH",
"40 62 OFFCURVE",
"222 0 OFFCURVE",
"266 0 QCURVE",
"392 -13 OFFCURVE",
"527 -13 QCURVE SMOOTH",
"655 -13 OFFCURVE",
"804 0 QCURVE",
"1014 264 LINE",
"988 261 OFFCURVE",
"860 247 OFFCURVE",
"791 240 OFFCURVE",
"688 233 OFFCURVE",
"646 233 QCURVE SMOOTH",
"565 233 OFFCURVE",
"500 244 QCURVE",
"467 253 OFFCURVE",
"427 269 OFFCURVE",
"382 298 OFFCURVE",
"360 343 OFFCURVE",
"360 374 QCURVE SMOOTH",
"360 454 OFFCURVE",
"438 596 QCURVE",
"1040 1434 LINE",
"1003 1432 OFFCURVE",
"639 1400 OFFCURVE",
"546 1400 QCURVE SMOOTH",
"284 1400 OFFCURVE",
"284 1506 QCURVE"
);
}
);
width = 1174;
}
);
note = Z;
unicode = 005A;
},
{
glyphname = bracketleft;
lastChange = "2018-07-29 14:56:13 +0000";
layers = (
{
layerId = "BE590684-9836-437F-B2F3-AE785A4EA4BE";
paths = (
{
closed = 1;
nodes = (
"96 -211 LINE",
"494 -211 LINE",
"494 -139 LINE",
"282 -139 LINE",
"282 1373 LINE",
"494 1373 LINE",
"494 1445 LINE",
"96 1445 LINE"
);
}
);
width = 628;
}
);
note = bracketleft;
unicode = 005B;
},
{
glyphname = backslash;
lastChange = "2018-07-29 14:56:13 +0000";
layers = (
{
layerId = "BE590684-9836-437F-B2F3-AE785A4EA4BE";
paths = (
{
closed = 1;
nodes = (
"-67 1452 LINE",
"977 -24 LINE",
"1142 -24 LINE",
"101 1452 LINE"
);
}
);
width = 1276;
}
);
note = backslash;
unicode = 005C;
},
{
glyphname = bracketright;
lastChange = "2018-07-29 14:56:13 +0000";
layers = (
{
layerId = "BE590684-9836-437F-B2F3-AE785A4EA4BE";
paths = (
{
closed = 1;
nodes = (
"-31 1445 LINE",
"-31 1373 LINE",
"182 1373 LINE",
"182 -139 LINE",
"-31 -139 LINE",
"-31 -211 LINE",
"368 -211 LINE",
"368 1445 LINE"
);
}
);
width = 502;
}
);
note = bracketright;
unicode = 005D;
},
{
glyphname = asciicircum;
lastChange = "2018-07-29 14:56:13 +0000";
layers = (
{
layerId = "BE590684-9836-437F-B2F3-AE785A4EA4BE";
paths = (
{
closed = 1;
nodes = (
"417 1420 LINE",
"267 1420 LINE",
"-12 852 LINE",
"129 852 LINE",
"342 1306 LINE",
"552 855 LINE",
"693 855 LINE"
);
}
);
width = 787;
}
);
note = asciicircum;
unicode = 005E;
},
{
glyphname = underscore;
lastChange = "2018-07-29 14:56:13 +0000";
layers = (
{
layerId = "BE590684-9836-437F-B2F3-AE785A4EA4BE";
paths = (
{
closed = 1;
nodes = (
"1235 -334 LINE",
"86 -334 LINE",
"86 -406 LINE",
"1235 -406 LINE"
);
}
);
width = 1303;
}
);
note = underscore;
unicode = 005F;
},
{
glyphname = grave;
lastChange = "2018-07-29 14:56:13 +0000";
layers = (
{
layerId = "BE590684-9836-437F-B2F3-AE785A4EA4BE";
paths = (
{
closed = 1;
nodes = (
"101 1387 LINE",
"-21 1308 LINE",
"270 1136 LINE",
"327 1163 LINE"
);
}
);
width = 458;
}
);
note = grave;
unicode = 0060;
},
{
glyphname = a;
lastChange = "2018-07-29 14:56:13 +0000";
layers = (
{
layerId = "BE590684-9836-437F-B2F3-AE785A4EA4BE";
paths = (
{
closed = 1;
nodes = (
"220 744 LINE",
"275 776 OFFCURVE",
"310 776 QCURVE SMOOTH",
"335 776 OFFCURVE",
"356 762 QCURVE",
"423 704 OFFCURVE",
"491 623 OFFCURVE",
"508 574 QCURVE",
"463 574 OFFCURVE",
"335 541 OFFCURVE",
"192 472 OFFCURVE",
"69 381 OFFCURVE",
"-12 249 OFFCURVE",
"-12 176 QCURVE SMOOTH",
"-12 131 OFFCURVE",
"37 61 OFFCURVE",
"117 20 OFFCURVE",
"210 0 OFFCURVE",
"260 0 QCURVE SMOOTH",
"318 0 OFFCURVE",
"438 52 OFFCURVE",
"530 130 OFFCURVE",
"596 202 OFFCURVE",
"614 232 QCURVE",
"533 188 OFFCURVE",
"399 188 QCURVE SMOOTH",
"331 188 OFFCURVE",
"222 218 OFFCURVE",
"146 293 OFFCURVE",
"146 350 QCURVE SMOOTH",
"146 397 OFFCURVE",
"240 468 OFFCURVE",
"282 468 QCURVE SMOOTH",
"345 468 OFFCURVE",
"451 447 OFFCURVE",
"534 412 OFFCURVE",
"609 349 OFFCURVE",
"665 283 OFFCURVE",
"725 181 OFFCURVE",
"770 88 OFFCURVE",
"800 20 QCURVE",
"983 152 LINE",
"866 387 OFFCURVE",
"675 718 OFFCURVE",
"560 874 QCURVE SMOOTH",
"508 943 OFFCURVE",
"455 943 QCURVE SMOOTH",
"433 943 OFFCURVE",
"410 928 QCURVE",
"202 758 LINE"
);
}
);
width = 1091;
}
);
note = a;
unicode = 0061;
},
{
glyphname = b;
lastChange = "2018-07-29 14:56:13 +0000";
layers = (
{
layerId = "BE590684-9836-437F-B2F3-AE785A4EA4BE";
paths = (
{
closed = 1;
nodes = (
"-7 1181 LINE",
"40 1209 OFFCURVE",
"78 1209 QCURVE SMOOTH",
"152 1209 OFFCURVE",
"152 1088 QCURVE SMOOTH",
"152 474 LINE SMOOTH",
"152 410 OFFCURVE",
"170 284 OFFCURVE",
"213 157 OFFCURVE",
"276 60 OFFCURVE",
"376 0 OFFCURVE",
"437 0 QCURVE SMOOTH",
"512 0 OFFCURVE",
"705 105 OFFCURVE",
"875 267 OFFCURVE",
"992 489 OFFCURVE",
"992 594 QCURVE SMOOTH",
"992 682 OFFCURVE",
"930 839 OFFCURVE",
"804 942 OFFCURVE",
"722 942 QCURVE SMOOTH",
"636 942 OFFCURVE",
"500 853 OFFCURVE",
"437 780 QCURVE",
"490 802 OFFCURVE",
"539 802 QCURVE SMOOTH",
"624 802 OFFCURVE",
"753 675 OFFCURVE",
"815 493 OFFCURVE",
"815 396 QCURVE SMOOTH",
"815 310 OFFCURVE",
"694 150 OFFCURVE",
"623 150 QCURVE SMOOTH",
"538 150 OFFCURVE",
"426 201 OFFCURVE",
"365 313 OFFCURVE",
"341 458 OFFCURVE",
"341 567 QCURVE SMOOTH",
"341 1346 LINE SMOOTH",
"341 1420 OFFCURVE",
"306 1420 QCURVE SMOOTH",
"288 1420 OFFCURVE",
"257 1394 QCURVE",
"-31 1209 LINE"
);
}
);
width = 1101;
}
);
note = b;
unicode = 0062;
},
{
glyphname = c;
lastChange = "2018-07-29 14:56:13 +0000";
layers = (
{
layerId = "BE590684-9836-437F-B2F3-AE785A4EA4BE";
paths = (
{
closed = 1;
nodes = (
"652 179 OFFCURVE",
"599 156 OFFCURVE",
"557 148 OFFCURVE",
"522 148 QCURVE SMOOTH",
"470 148 OFFCURVE",
"344 235 OFFCURVE",
"237 369 OFFCURVE",
"164 546 OFFCURVE",
"164 628 QCURVE SMOOTH",
"164 702 OFFCURVE",
"271 830 OFFCURVE",
"326 830 QCURVE SMOOTH",
"345 830 OFFCURVE",
"379 819 OFFCURVE",
"405 808 OFFCURVE",
"434 778 OFFCURVE",
"450 762 OFFCURVE",
"476 719 OFFCURVE",
"485 703 OFFCURVE",
"511 653 OFFCURVE",
"514 648 QCURVE",
"538 659 OFFCURVE",
"614 706 OFFCURVE",
"692 782 OFFCURVE",
"692 812 QCURVE SMOOTH",
"692 856 OFFCURVE",
"553 938 OFFCURVE",
"480 938 QCURVE SMOOTH",
"410 937 OFFCURVE",
"243 839 OFFCURVE",
"104 692 OFFCURVE",
"10 503 OFFCURVE",
"10 420 QCURVE SMOOTH",
"11 337 OFFCURVE",
"109 139 OFFCURVE",
"261 0 OFFCURVE",
"332 0 QCURVE SMOOTH",
"398 0 OFFCURVE",
"537 65 OFFCURVE",
"626 140 OFFCURVE",
"666 184 QCURVE"
);
}
);
width = 786;
}
);
note = c;
unicode = 0063;
},
{
glyphname = d;
lastChange = "2018-07-29 14:56:13 +0000";
layers = (
{
layerId = "BE590684-9836-437F-B2F3-AE785A4EA4BE";
paths = (
{
closed = 1;
nodes = (
"652 508 LINE SMOOTH",
"652 450 OFFCURVE",
"578 277 OFFCURVE",
"474 148 OFFCURVE",
"436 148 QCURVE SMOOTH",
"368 148 OFFCURVE",
"240 288 OFFCURVE",
"163 506 OFFCURVE",
"163 618 QCURVE SMOOTH",
"163 664 OFFCURVE",
"168 726 OFFCURVE",
"182 795 OFFCURVE",
"215 830 OFFCURVE",
"240 830 QCURVE SMOOTH",
"280 830 OFFCURVE",
"314 824 QCURVE SMOOTH",
"470 798 OFFCURVE",
"510 643 QCURVE SMOOTH",
"518 611 OFFCURVE",
"529 507 QCURVE",
"555 518 OFFCURVE",
"628 677 OFFCURVE",
"628 726 QCURVE SMOOTH",
"628 749 OFFCURVE",
"594 819 OFFCURVE",
"537 889 OFFCURVE",
"445 938 OFFCURVE",
"394 938 QCURVE SMOOTH",
"300 938 OFFCURVE",
"126 816 OFFCURVE",
"19 611 OFFCURVE",
"19 498 QCURVE SMOOTH",
"19 431 OFFCURVE",
"49 265 OFFCURVE",
"104 107 OFFCURVE",
"194 0 OFFCURVE",
"246 0 QCURVE SMOOTH",
"344 0 OFFCURVE",
"528 120 OFFCURVE",
"648 240 QCURVE",
"648 45 LINE SMOOTH",
"648 0 OFFCURVE",
"694 0 QCURVE SMOOTH",
"708 0 LINE SMOOTH",
"728 0 OFFCURVE",
"757 24 QCURVE",
"1045 209 LINE",
"1021 237 LINE",
"974 209 OFFCURVE",
"936 209 QCURVE SMOOTH",
"900 209 OFFCURVE",
"847 266 OFFCURVE",
"847 330 QCURVE SMOOTH",
"847 1449 LINE",
"652 1371 LINE",
"652 522 LINE"
);
}
);
width = 1152;
}
);
note = d;
unicode = 0064;
},
{
glyphname = e;
lastChange = "2018-07-29 14:56:13 +0000";
layers = (
{
layerId = "BE590684-9836-437F-B2F3-AE785A4EA4BE";
paths = (
{
closed = 1;
nodes = (
"168 685 OFFCURVE",
"254 810 OFFCURVE",
"307 810 QCURVE SMOOTH",
"368 810 OFFCURVE",
"432 732 OFFCURVE",
"432 671 QCURVE SMOOTH",
"432 598 OFFCURVE",
"355 441 OFFCURVE",
"291 392 QCURVE",
"326 409 OFFCURVE",
"411 460 OFFCURVE",
"529 546 OFFCURVE",
"623 635 OFFCURVE",
"689 747 OFFCURVE",
"689 798 QCURVE SMOOTH",
"689 865 OFFCURVE",
"569 938 OFFCURVE",
"489 938 QCURVE SMOOTH",
"390 938 OFFCURVE",
"205 815 OFFCURVE",
"84 636 OFFCURVE",
"11 444 OFFCURVE",
"11 370 QCURVE SMOOTH",
"11 276 OFFCURVE",
"127 100 OFFCURVE",
"287 0 OFFCURVE",
"357 0 QCURVE SMOOTH",
"397 0 OFFCURVE",
"481 31 OFFCURVE",
"542 69 OFFCURVE",
"615 137 OFFCURVE",
"649 175 OFFCURVE",
"705 244 OFFCURVE",
"707 246 QCURVE",
"639 200 OFFCURVE",
"515 178 QCURVE",
"419 178 OFFCURVE",
"253 323 OFFCURVE",
"167 514 OFFCURVE",
"167 598 QCURVE SMOOTH",
"167 603 OFFCURVE",
"167 603 QCURVE"
);
}
);
width = 804;
}
);
note = e;
unicode = 0065;
},
{
glyphname = f;
lastChange = "2018-07-29 14:56:13 +0000";
layers = (
{
layerId = "BE590684-9836-437F-B2F3-AE785A4EA4BE";
paths = (
{
closed = 1;
nodes = (
"17 682 LINE",
"-23 536 LINE",
"237 542 LINE",
"237 -414 LINE",
"429 -262 LINE",
"417 528 LINE",
"462 533 OFFCURVE",
"520 533 OFFCURVE",
"573 527 OFFCURVE",
"641 516 OFFCURVE",
"655 514 QCURVE",
"683 607 OFFCURVE",
"749 672 QCURVE",
"710 672 OFFCURVE",
"556 665 OFFCURVE",
"518 665 QCURVE SMOOTH",
"456 665 OFFCURVE",
"403 672 QCURVE",
"395 856 OFFCURVE",
"395 992 QCURVE SMOOTH",
"395 1143 OFFCURVE",
"457 1311 OFFCURVE",
"516 1312 QCURVE SMOOTH",
"540 1312 OFFCURVE",
"591 1290 OFFCURVE",
"628 1264 OFFCURVE",
"665 1230 OFFCURVE",
"677 1216 OFFCURVE",
"680 1212 QCURVE",
"844 1354 LINE",
"816 1370 LINE SMOOTH",
"787 1387 OFFCURVE",
"694 1420 OFFCURVE",
"658 1420 QCURVE SMOOTH",
"599 1420 OFFCURVE",
"480 1369 OFFCURVE",
"367 1259 OFFCURVE",
"280 1105 OFFCURVE",
"226 882 OFFCURVE",
"225 751 QCURVE SMOOTH",
"225 695 OFFCURVE",
"225 695 QCURVE",
"225 666 OFFCURVE",
"225 666 QCURVE"
);
}
);
width = 978;
}
);
note = f;
unicode = 0066;
},
{
glyphname = g;
lastChange = "2018-07-29 14:56:13 +0000";
layers = (
{
layerId = "BE590684-9836-437F-B2F3-AE785A4EA4BE";
paths = (
{
closed = 1;
nodes = (
"427 950 OFFCURVE",
"260 908 OFFCURVE",
"214 879 QCURVE",
"213 878 OFFCURVE",
"178 852 OFFCURVE",
"167 843 OFFCURVE",
"130 812 OFFCURVE",
"114 794 OFFCURVE",
"82 758 OFFCURVE",
"66 730 OFFCURVE",
"43 688 OFFCURVE",
"31 649 OFFCURVE",
"23 601 OFFCURVE",
"23 576 QCURVE SMOOTH",
"23 525 OFFCURVE",
"82 406 OFFCURVE",
"187 318 OFFCURVE",
"242 318 QCURVE",
"180 196 LINE",
"240 196 OFFCURVE",
"428 144 OFFCURVE",
"615 59 OFFCURVE",
"749 -69 OFFCURVE",
"749 -135 QCURVE SMOOTH",
"749 -174 LINE SMOOTH",
"749 -226 OFFCURVE",
"586 -309 OFFCURVE",
"500 -309 QCURVE SMOOTH",
"362 -309 OFFCURVE",
"184 -153 OFFCURVE",
"184 -26 QCURVE SMOOTH",
"184 -6 OFFCURVE",
"187 19 OFFCURVE",
"211 74 OFFCURVE",
"235 110 QCURVE",
"240 114 OFFCURVE",
"240 117 QCURVE SMOOTH",
"240 119 OFFCURVE",
"236 119 QCURVE SMOOTH",
"228 119 OFFCURVE",
"212 114 QCURVE",
"211 114 OFFCURVE",
"171 87 OFFCURVE",
"159 77 OFFCURVE",
"119 47 OFFCURVE",
"102 28 OFFCURVE",
"69 -6 OFFCURVE",
"53 -36 OFFCURVE",
"34 -75 OFFCURVE",
"26 -117 OFFCURVE",
"26 -140 QCURVE SMOOTH",
"26 -178 OFFCURVE",
"81 -277 OFFCURVE",
"173 -367 OFFCURVE",
"313 -429 OFFCURVE",
"389 -429 QCURVE SMOOTH",
"511 -429 OFFCURVE",
"726 -312 OFFCURVE",
"854 -113 OFFCURVE",
"854 0 QCURVE SMOOTH",
"854 24 OFFCURVE",
"816 83 OFFCURVE",
"729 150 OFFCURVE",
"608 205 OFFCURVE",
"420 241 OFFCURVE",
"311 241 QCURVE",
"311 294 LINE",
"508 294 OFFCURVE",
"738 384 OFFCURVE",
"833 557 OFFCURVE",
"833 700 QCURVE SMOOTH",
"833 767 OFFCURVE",
"794 824 QCURVE",
"790 829 OFFCURVE",
"790 833 QCURVE SMOOTH",
"790 836 OFFCURVE",
"794 836 QCURVE SMOOTH",
"807 836 OFFCURVE",
"839 819 QCURVE",
"905 944 LINE",
"836 927 OFFCURVE",
"740 927 QCURVE SMOOTH",
"685 927 OFFCURVE",
"565 938 OFFCURVE",
"485 950 OFFCURVE",
"479 950 QCURVE SMOOTH"
);
},
{
closed = 1;
nodes = (
"293 879 OFFCURVE",
"353 879 QCURVE SMOOTH",
"496 879 OFFCURVE",
"690 717 OFFCURVE",
"690 581 QCURVE SMOOTH",
"690 542 LINE SMOOTH",
"690 482 OFFCURVE",
"575 362 OFFCURVE",
"498 362 QCURVE SMOOTH",
"365 362 OFFCURVE",
"181 558 OFFCURVE",
"181 690 QCURVE SMOOTH",
"181 710 OFFCURVE",
"184 735 OFFCURVE",
"208 790 OFFCURVE",
"232 826 QCURVE"
);
}
);
width = 989;
}
);
note = g;
unicode = 0067;
},
{
glyphname = h;
lastChange = "2018-07-29 14:56:13 +0000";
layers = (
{
layerId = "BE590684-9836-437F-B2F3-AE785A4EA4BE";
paths = (
{
closed = 1;
nodes = (
"234 100 OFFCURVE",
"369 309 OFFCURVE",
"511 505 OFFCURVE",
"635 629 OFFCURVE",
"668 629 QCURVE SMOOTH",
"705 629 OFFCURVE",
"763 590 OFFCURVE",
"801 511 OFFCURVE",
"828 424 OFFCURVE",
"846 295 OFFCURVE",
"856 193 OFFCURVE",
"870 45 OFFCURVE",
"875 0 QCURVE",
"1064 132 LINE",
"1057 233 OFFCURVE",
"1043 394 OFFCURVE",
"1020 595 OFFCURVE",
"991 743 OFFCURVE",
"953 874 OFFCURVE",
"902 944 OFFCURVE",
"872 944 QCURVE SMOOTH",
"827 944 OFFCURVE",
"699 836 OFFCURVE",
"584 696 OFFCURVE",
"415 495 OFFCURVE",
"353 435 QCURVE",
"331 1347 LINE",
"331 1420 OFFCURVE",
"296 1420 QCURVE SMOOTH",
"274 1420 OFFCURVE",
"247 1397 QCURVE",
"-41 1210 LINE",
"-17 1182 LINE",
"30 1210 OFFCURVE",
"68 1210 QCURVE SMOOTH",
"142 1210 OFFCURVE",
"142 1089 QCURVE SMOOTH",
"176 0 LINE"
);
}
);
width = 1172;
}
);
note = h;
unicode = 0068;
},
{
glyphname = i;
lastChange = "2018-07-29 14:56:13 +0000";
layers = (
{
layerId = "BE590684-9836-437F-B2F3-AE785A4EA4BE";
paths = (
{
closed = 1;
nodes = (
"182 1303 LINE",
"143 1270 OFFCURVE",
"143 1239 QCURVE SMOOTH",
"143 1216 OFFCURVE",
"168 1173 QCURVE SMOOTH",
"184 1146 OFFCURVE",
"230 1117 OFFCURVE",
"252 1117 QCURVE SMOOTH",
"259 1117 OFFCURVE",
"269 1121 QCURVE",
"424 1224 LINE",
"331 1312 OFFCURVE",
"303 1392 QCURVE"
);
},
{
closed = 1;
nodes = (
"195 0 LINE",
"387 120 LINE",
"387 879 LINE SMOOTH",
"387 952 OFFCURVE",
"352 952 QCURVE SMOOTH",
"333 952 OFFCURVE",
"303 927 QCURVE",
"15 742 LINE",
"39 714 LINE",
"86 742 OFFCURVE",
"124 742 QCURVE SMOOTH",
"198 742 OFFCURVE",
"198 621 QCURVE SMOOTH"
);
}
);
width = 558;
}
);
note = i;
unicode = 0069;
},
{
glyphname = j;
lastChange = "2018-07-29 14:56:13 +0000";
layers = (
{
layerId = "BE590684-9836-437F-B2F3-AE785A4EA4BE";
paths = (
{
closed = 1;
nodes = (
"148 1303 LINE",
"109 1270 OFFCURVE",
"109 1239 QCURVE SMOOTH",
"109 1216 OFFCURVE",
"134 1173 QCURVE SMOOTH",
"150 1146 OFFCURVE",
"196 1117 OFFCURVE",
"218 1117 QCURVE SMOOTH",
"225 1117 OFFCURVE",
"235 1121 QCURVE",
"390 1224 LINE",
"297 1312 OFFCURVE",
"269 1392 QCURVE"
);
},
{
closed = 1;
nodes = (
"197 -414 LINE",
"392 -285 LINE",
"392 870 LINE SMOOTH",
"392 943 OFFCURVE",
"357 943 QCURVE SMOOTH",
"338 943 OFFCURVE",
"308 918 QCURVE",
"20 733 LINE",
"44 705 LINE",
"91 733 OFFCURVE",
"129 733 QCURVE SMOOTH",
"203 733 OFFCURVE",
"203 612 QCURVE SMOOTH"
);
}
);
width = 526;
}
);
note = j;
unicode = 006A;
},
{
glyphname = k;
lastChange = "2018-07-29 14:56:13 +0000";
layers = (
{
layerId = "BE590684-9836-437F-B2F3-AE785A4EA4BE";
paths = (
{
closed = 1;
nodes = (
"519 812 OFFCURVE",
"578 761 OFFCURVE",
"578 722 QCURVE SMOOTH",
"578 707 OFFCURVE",
"570 678 OFFCURVE",
"553 647 OFFCURVE",
"536 621 OFFCURVE",
"505 589 OFFCURVE",
"484 568 OFFCURVE",
"445 535 OFFCURVE",
"425 519 OFFCURVE",
"383 486 OFFCURVE",
"376 480 QCURVE",
"678 66 LINE",
"683 61 OFFCURVE",
"702 39 OFFCURVE",
"714 27 OFFCURVE",
"731 13 OFFCURVE",
"748 6 OFFCURVE",
"756 6 QCURVE SMOOTH",
"773 6 OFFCURVE",
"792 22 QCURVE SMOOTH",
"966 160 LINE",
"958 157 OFFCURVE",
"950 157 QCURVE SMOOTH",
"911 157 OFFCURVE",
"848 214 QCURVE",
"820 247 OFFCURVE",
"690 388 OFFCURVE",
"595 505 OFFCURVE",
"552 572 QCURVE",
"639 642 OFFCURVE",
"647 649 QCURVE SMOOTH",
"808 782 OFFCURVE",
"808 846 QCURVE SMOOTH",
"808 950 OFFCURVE",
"624 950 QCURVE",
"476 812 LINE"
);
},
{
closed = 1;
nodes = (
"162 0 LINE",
"346 130 LINE",
"346 1353 LINE SMOOTH",
"346 1426 OFFCURVE",
"311 1426 QCURVE SMOOTH",
"299 1426 OFFCURVE",
"262 1401 QCURVE SMOOTH",
"-26 1216 LINE",
"0 1188 LINE",
"47 1216 OFFCURVE",
"83 1216 QCURVE SMOOTH",
"157 1216 OFFCURVE",
"157 1095 QCURVE SMOOTH"
);
}
);
width = 1074;
}
);
note = k;
unicode = 006B;
},
{
glyphname = l;
lastChange = "2018-07-29 14:56:13 +0000";
layers = (
{
layerId = "BE590684-9836-437F-B2F3-AE785A4EA4BE";
paths = (
{
closed = 1;
nodes = (
"155 0 LINE",
"350 129 LINE",
"349 1347 LINE",
"349 1420 OFFCURVE",
"314 1420 QCURVE SMOOTH",
"295 1420 OFFCURVE",
"265 1395 QCURVE",
"-23 1210 LINE",
"0 1182 LINE",
"47 1210 OFFCURVE",
"86 1210 QCURVE SMOOTH",
"160 1210 OFFCURVE",
"160 1089 QCURVE SMOOTH"
);
}
);
width = 483;
}
);
note = l;
unicode = 006C;
},
{
glyphname = m;
lastChange = "2018-07-29 14:56:13 +0000";
layers = (
{
layerId = "BE590684-9836-437F-B2F3-AE785A4EA4BE";
paths = (
{
closed = 1;
nodes = (
"215 450 OFFCURVE",
"215 208 QCURVE SMOOTH",
"215 173 OFFCURVE",
"214 34 OFFCURVE",
"214 0 QCURVE",
"243 45 OFFCURVE",
"349 221 OFFCURVE",
"420 338 OFFCURVE",
"523 486 OFFCURVE",
"604 575 OFFCURVE",
"699 638 OFFCURVE",
"740 638 QCURVE SMOOTH",
"771 638 OFFCURVE",
"822 605 OFFCURVE",
"858 552 OFFCURVE",
"890 470 OFFCURVE",
"910 387 OFFCURVE",
"930 278 OFFCURVE",
"943 188 OFFCURVE",
"961 74 OFFCURVE",
"968 36 QCURVE",
"988 71 OFFCURVE",
"1072 228 OFFCURVE",
"1123 319 OFFCURVE",
"1203 456 OFFCURVE",
"1263 538 OFFCURVE",
"1334 621 OFFCURVE",
"1399 660 OFFCURVE",
"1428 660 QCURVE SMOOTH",
"1453 660 OFFCURVE",
"1496 634 OFFCURVE",
"1530 579 OFFCURVE",
"1556 519 OFFCURVE",
"1577 423 OFFCURVE",
"1591 348 OFFCURVE",
"1605 229 OFFCURVE",
"1612 154 OFFCURVE",
"1623 29 OFFCURVE",
"1626 0 QCURVE",
"1818 128 LINE",
"1813 176 OFFCURVE",
"1795 371 OFFCURVE",
"1782 495 OFFCURVE",
"1761 669 OFFCURVE",
"1737 779 OFFCURVE",
"1705 886 OFFCURVE",
"1663 938 OFFCURVE",
"1638 938 QCURVE SMOOTH",
"1592 938 OFFCURVE",
"1498 889 OFFCURVE",
"1418 815 OFFCURVE",
"1320 693 OFFCURVE",
"1244 585 OFFCURVE",
"1132 426 OFFCURVE",
"1090 372 QCURVE",
"1086 413 OFFCURVE",
"1077 538 OFFCURVE",
"1071 636 OFFCURVE",
"1060 750 OFFCURVE",
"1042 834 OFFCURVE",
"1016 906 OFFCURVE",
"975 944 OFFCURVE",
"948 944 QCURVE SMOOTH",
"868 944 OFFCURVE",
"681 729 QCURVE SMOOTH",
"625 664 OFFCURVE",
"424 412 QCURVE",
"376 866 LINE",
"365 908 OFFCURVE",
"344 941 OFFCURVE",
"328 941 QCURVE SMOOTH",
"309 941 OFFCURVE",
"279 916 QCURVE",
"-9 731 LINE",
"15 703 LINE",
"62 731 OFFCURVE",
"100 731 QCURVE SMOOTH",
"135 731 OFFCURVE",
"182 680 OFFCURVE",
"192 612 QCURVE SMOOTH"
);
}
);
width = 1929;
}
);
note = m;
unicode = 006D;
},
{
glyphname = n;
lastChange = "2018-07-29 14:56:13 +0000";
layers = (
{
layerId = "BE590684-9836-437F-B2F3-AE785A4EA4BE";
paths = (
{
closed = 1;
nodes = (
"1126 256 LINE",
"1123 284 OFFCURVE",
"1113 395 OFFCURVE",
"1105 478 OFFCURVE",
"1092 594 OFFCURVE",
"1077 682 OFFCURVE",
"1058 782 OFFCURVE",
"1035 853 OFFCURVE",
"1006 913 OFFCURVE",
"969 944 OFFCURVE",
"948 944 QCURVE SMOOTH",
"868 944 OFFCURVE",
"681 729 QCURVE SMOOTH",
"625 664 OFFCURVE",
"424 412 QCURVE",
"376 866 LINE",
"365 908 OFFCURVE",
"344 941 OFFCURVE",
"328 941 QCURVE SMOOTH",
"309 941 OFFCURVE",
"279 916 QCURVE",
"-9 731 LINE",
"15 703 LINE",
"62 731 OFFCURVE",
"100 731 QCURVE SMOOTH",
"135 731 OFFCURVE",
"182 680 OFFCURVE",
"192 612 QCURVE SMOOTH",
"215 450 OFFCURVE",
"215 208 QCURVE SMOOTH",
"215 173 OFFCURVE",
"214 34 OFFCURVE",
"214 0 QCURVE",
"359 229 OFFCURVE",
"419 314 QCURVE SMOOTH",
"647 636 OFFCURVE",
"780 636 QCURVE SMOOTH",
"807 636 OFFCURVE",
"850 596 OFFCURVE",
"881 521 OFFCURVE",
"905 433 OFFCURVE",
"926 314 OFFCURVE",
"940 209 OFFCURVE",
"960 80 OFFCURVE",
"968 36 QCURVE"
);
}
);
width = 1223;
}
);
note = n;
unicode = 006E;
},
{
glyphname = o;
lastChange = "2018-07-29 14:56:13 +0000";
layers = (
{
layerId = "BE590684-9836-437F-B2F3-AE785A4EA4BE";
paths = (
{
closed = 1;
nodes = (
"195 746 OFFCURVE",
"313 790 OFFCURVE",
"362 790 QCURVE SMOOTH",
"399 790 OFFCURVE",
"428 762 QCURVE SMOOTH",
"634 556 OFFCURVE",
"634 300 QCURVE SMOOTH",
"634 227 OFFCURVE",
"541 122 OFFCURVE",
"472 122 QCURVE SMOOTH",
"391 122 OFFCURVE",
"258 243 OFFCURVE",
"190 423 OFFCURVE",
"190 520 QCURVE SMOOTH",
"190 541 OFFCURVE",
"197 578 OFFCURVE",
"209 626 OFFCURVE",
"212 642 QCURVE",
"123 576 OFFCURVE",
"6 415 OFFCURVE",
"6 328 QCURVE SMOOTH",
"6 257 OFFCURVE",
"75 108 OFFCURVE",
"209 0 OFFCURVE",
"288 0 QCURVE SMOOTH",
"409 0 OFFCURVE",
"654 160 OFFCURVE",
"806 397 OFFCURVE",
"806 506 QCURVE SMOOTH",
"806 583 OFFCURVE",
"744 741 OFFCURVE",
"647 861 OFFCURVE",
"521 938 OFFCURVE",
"460 938 QCURVE SMOOTH",
"390 938 OFFCURVE",
"197 799 OFFCURVE",
"173 711 QCURVE"
);
}
);
width = 915;
}
);
note = o;
unicode = 006F;
},
{
glyphname = p;
lastChange = "2018-07-29 14:56:13 +0000";
layers = (
{
layerId = "BE590684-9836-437F-B2F3-AE785A4EA4BE";
paths = (
{
closed = 1;
nodes = (
"192 -429 LINE",
"387 -360 LINE",
"387 510 LINE",
"394 566 OFFCURVE",
"469 695 OFFCURVE",
"553 777 OFFCURVE",
"576 777 QCURVE SMOOTH",
"623 777 OFFCURVE",
"721 632 OFFCURVE",
"780 437 OFFCURVE",
"780 360 QCURVE SMOOTH",
"780 256 OFFCURVE",
"645 157 QCURVE SMOOTH",
"597 122 OFFCURVE",
"462 48 QCURVE",
"518 55 OFFCURVE",
"658 112 OFFCURVE",
"799 203 OFFCURVE",
"916 312 OFFCURVE",
"990 444 OFFCURVE",
"990 507 QCURVE SMOOTH",
"990 593 OFFCURVE",
"930 792 OFFCURVE",
"821 938 OFFCURVE",
"762 938 QCURVE SMOOTH",
"719 938 OFFCURVE",
"623 897 OFFCURVE",
"514 810 OFFCURVE",
"429 732 OFFCURVE",
"366 669 QCURVE",
"366 864 LINE SMOOTH",
"366 938 OFFCURVE",
"331 938 QCURVE SMOOTH",
"313 938 OFFCURVE",
"282 912 QCURVE",
"-6 727 LINE",
"18 699 LINE",
"65 727 OFFCURVE",
"103 727 QCURVE SMOOTH",
"177 727 OFFCURVE",
"177 606 QCURVE SMOOTH"
);
}
);
width = 1099;
}
);
note = p;
unicode = 0070;
},
{
glyphname = q;
lastChange = "2018-07-29 14:56:13 +0000";
layers = (
{
layerId = "BE590684-9836-437F-B2F3-AE785A4EA4BE";
paths = (
{
closed = 1;
nodes = (
"766 882 OFFCURVE",
"650 918 OFFCURVE",
"557 938 OFFCURVE",
"503 938 QCURVE SMOOTH",
"410 938 OFFCURVE",
"168 736 OFFCURVE",
"-1 466 OFFCURVE",
"-1 372 QCURVE SMOOTH",
"-1 296 OFFCURVE",
"63 165 OFFCURVE",
"151 79 OFFCURVE",
"221 27 QCURVE",
"293 0 LINE",
"323 0 OFFCURVE",
"350 27 QCURVE SMOOTH",
"500 174 LINE",
"417 146 LINE",
"396 146 OFFCURVE",
"377 156 QCURVE",
"291 251 OFFCURVE",
"197 457 OFFCURVE",
"197 588 QCURVE SMOOTH",
"197 606 LINE",
"208 692 OFFCURVE",
"284 783 OFFCURVE",
"329 783 QCURVE SMOOTH",
"385 783 OFFCURVE",
"463 773 OFFCURVE",
"514 751 OFFCURVE",
"543 732 OFFCURVE",
"586 695 OFFCURVE",
"602 684 QCURVE",
"602 -447 LINE",
"792 -407 OFFCURVE",
"986 -318 QCURVE",
"963 -318 LINE SMOOTH",
"932 -318 OFFCURVE",
"888 -313 OFFCURVE",
"835 -297 OFFCURVE",
"806 -258 OFFCURVE",
"806 -228 QCURVE SMOOTH",
"806 873 LINE"
);
}
);
width = 1007;
}
);
note = q;
unicode = 0071;
},
{
glyphname = r;
lastChange = "2018-07-29 14:56:13 +0000";
layers = (
{
layerId = "BE590684-9836-437F-B2F3-AE785A4EA4BE";
paths = (
{
closed = 1;
nodes = (
"368 870 LINE SMOOTH",
"368 943 OFFCURVE",
"333 943 QCURVE SMOOTH",
"314 943 OFFCURVE",
"284 918 QCURVE",
"-4 733 LINE",
"20 705 LINE",
"67 733 OFFCURVE",
"105 733 QCURVE SMOOTH",
"179 733 OFFCURVE",
"179 612 QCURVE SMOOTH",
"179 0 LINE",
"377 123 LINE",
"377 558 LINE",
"407 622 OFFCURVE",
"500 741 OFFCURVE",
"527 741 QCURVE SMOOTH",
"572 741 OFFCURVE",
"623 627 QCURVE",
"800 768 LINE",
"752 938 OFFCURVE",
"692 938 QCURVE SMOOTH",
"666 938 OFFCURVE",
"630 913 OFFCURVE",
"588 867 OFFCURVE",
"572 855 QCURVE",
"368 651 LINE"
);
}
);
width = 894;
}
);
note = r;
unicode = 0072;
},
{
glyphname = s;
lastChange = "2018-07-29 14:56:13 +0000";
layers = (
{
layerId = "BE590684-9836-437F-B2F3-AE785A4EA4BE";
paths = (
{
closed = 1;
nodes = (
"477 721 OFFCURVE",
"569 781 OFFCURVE",
"621 823 OFFCURVE",
"621 840 QCURVE SMOOTH",
"621 878 OFFCURVE",
"504 938 OFFCURVE",
"448 938 QCURVE SMOOTH",
"408 938 OFFCURVE",
"273 869 OFFCURVE",
"141 765 OFFCURVE",
"44 624 OFFCURVE",
"44 562 QCURVE SMOOTH",
"44 529 OFFCURVE",
"93 481 OFFCURVE",
"171 449 OFFCURVE",
"265 419 OFFCURVE",
"359 381 OFFCURVE",
"437 332 OFFCURVE",
"486 251 OFFCURVE",
"486 197 QCURVE SMOOTH",
"486 156 OFFCURVE",
"420 104 OFFCURVE",
"376 104 QCURVE SMOOTH",
"310 104 OFFCURVE",
"224 185 OFFCURVE",
"207 239 QCURVE",
"204 246 OFFCURVE",
"204 252 QCURVE SMOOTH",
"204 261 OFFCURVE",
"214 277 QCURVE",
"254 305 LINE",
"238 326 LINE",
"232 322 OFFCURVE",
"167 279 OFFCURVE",
"119 244 OFFCURVE",
"61 193 OFFCURVE",
"28 141 OFFCURVE",
"28 117 QCURVE SMOOTH",
"28 76 OFFCURVE",
"89 21 OFFCURVE",
"170 0 OFFCURVE",
"218 0 QCURVE SMOOTH",
"295 0 OFFCURVE",
"505 117 OFFCURVE",
"663 300 OFFCURVE",
"663 382 QCURVE SMOOTH",
"663 423 OFFCURVE",
"613 481 OFFCURVE",
"534 513 OFFCURVE",
"438 538 OFFCURVE",
"341 567 OFFCURVE",
"262 607 OFFCURVE",
"212 679 OFFCURVE",
"212 730 QCURVE SMOOTH",
"212 756 OFFCURVE",
"254 816 OFFCURVE",
"275 816 QCURVE SMOOTH",
"389 816 OFFCURVE",
"454 702 QCURVE"
);
}
);
width = 772;
}
);
note = s;
unicode = 0073;
},
{
glyphname = t;
lastChange = "2018-07-29 14:56:13 +0000";
layers = (
{
layerId = "BE590684-9836-437F-B2F3-AE785A4EA4BE";
paths = (
{
closed = 1;
nodes = (
"430 169 OFFCURVE",
"430 249 QCURVE SMOOTH",
"430 924 LINE",
"535 924 LINE",
"550 935 OFFCURVE",
"577 958 OFFCURVE",
"602 986 OFFCURVE",
"620 1007 OFFCURVE",
"642 1039 OFFCURVE",
"653 1055 OFFCURVE",
"676 1090 OFFCURVE",
"679 1095 QCURVE",
"418 1095 LINE",
"418 1423 LINE",
"226 1287 LINE",
"226 1092 LINE",
"82 1092 LINE",
"59 1006 OFFCURVE",
"-17 921 QCURVE",
"226 921 LINE",
"226 193 LINE SMOOTH",
"226 155 OFFCURVE",
"232 97 OFFCURVE",
"240 58 OFFCURVE",
"258 31 OFFCURVE",
"272 17 OFFCURVE",
"301 8 OFFCURVE",
"320 5 OFFCURVE",
"358 2 OFFCURVE",
"370 0 QCURVE",
"422 0 OFFCURVE",
"565 107 OFFCURVE",
"604 162 QCURVE",
"593 207 LINE",
"569 181 OFFCURVE",
"525 153 OFFCURVE",
"493 153 QCURVE"
);
}
);
width = 737;
}
);
note = t;
unicode = 0074;
},
{
glyphname = u;
lastChange = "2018-07-29 14:56:13 +0000";
layers = (
{
layerId = "BE590684-9836-437F-B2F3-AE785A4EA4BE";
paths = (
{
closed = 1;
nodes = (
"200 553 OFFCURVE",
"219 368 OFFCURVE",
"231 219 OFFCURVE",
"250 79 OFFCURVE",
"286 0 OFFCURVE",
"313 0 QCURVE SMOOTH",
"385 0 OFFCURVE",
"529 90 OFFCURVE",
"633 214 OFFCURVE",
"733 384 OFFCURVE",
"788 502 OFFCURVE",
"811 561 QCURVE",
"811 -39 LINE",
"1022 112 LINE",
"1002 276 OFFCURVE",
"1002 566 QCURVE SMOOTH",
"1002 629 OFFCURVE",
"1004 885 OFFCURVE",
"1004 949 QCURVE",
"823 795 LINE",
"823 737 OFFCURVE",
"765 553 OFFCURVE",
"675 375 OFFCURVE",
"551 246 OFFCURVE",
"494 246 QCURVE SMOOTH",
"465 246 OFFCURVE",
"421 288 OFFCURVE",
"392 369 OFFCURVE",
"372 461 OFFCURVE",
"359 588 OFFCURVE",
"351 692 OFFCURVE",
"342 827 OFFCURVE",
"338 868 QCURVE",
"338 938 OFFCURVE",
"303 938 QCURVE SMOOTH",
"280 938 OFFCURVE",
"254 916 QCURVE",
"-11 730 LINE",
"13 702 LINE",
"60 730 OFFCURVE",
"98 730 QCURVE SMOOTH",
"135 730 OFFCURVE",
"179 686 OFFCURVE",
"187 615 QCURVE"
);
}
);
width = 1133;
}
);
note = u;
unicode = 0075;
},
{
glyphname = v;
lastChange = "2018-07-29 14:56:13 +0000";
layers = (
{
layerId = "BE590684-9836-437F-B2F3-AE785A4EA4BE";
paths = (
{
closed = 1;
nodes = (
"-11 778 LINE",
"11 792 OFFCURVE",
"33 792 QCURVE SMOOTH",
"49 792 OFFCURVE",
"57 784 QCURVE",
"133 714 OFFCURVE",
"258 538 OFFCURVE",
"358 315 OFFCURVE",
"424 136 OFFCURVE",
"467 0 QCURVE",
"521 0 LINE",
"615 162 OFFCURVE",
"881 573 OFFCURVE",
"1033 808 OFFCURVE",
"1033 826 QCURVE SMOOTH",
"1033 828 OFFCURVE",
"1034 834 OFFCURVE",
"1034 836 QCURVE SMOOTH",
"1034 884 OFFCURVE",
"934 944 OFFCURVE",
"877 944 QCURVE SMOOTH",
"859 944 OFFCURVE",
"816 924 OFFCURVE",
"752 872 OFFCURVE",
"713 838 OFFCURVE",
"624 754 OFFCURVE",
"609 740 QCURVE",
"633 712 LINE",
"636 715 OFFCURVE",
"653 733 OFFCURVE",
"660 740 OFFCURVE",
"676 755 OFFCURVE",
"686 762 OFFCURVE",
"700 771 OFFCURVE",
"713 774 OFFCURVE",
"720 774 QCURVE SMOOTH",
"725 774 LINE SMOOTH",
"772 774 OFFCURVE",
"820 712 OFFCURVE",
"820 664 QCURVE SMOOTH",
"820 608 OFFCURVE",
"789 552 QCURVE",
"611 264 LINE",
"574 336 OFFCURVE",
"411 718 OFFCURVE",
"292 938 OFFCURVE",
"251 938 QCURVE SMOOTH",
"245 938 OFFCURVE",
"235 935 OFFCURVE",
"228 931 OFFCURVE",
"217 924 OFFCURVE",
"213 922 QCURVE SMOOTH",
"-25 798 LINE"
);
}
);
width = 1128;
}
);
note = v;
unicode = 0076;
},
{
glyphname = w;
lastChange = "2018-07-29 14:56:13 +0000";
layers = (
{
layerId = "BE590684-9836-437F-B2F3-AE785A4EA4BE";
paths = (
{
closed = 1;
nodes = (
"583 150 OFFCURVE",
"760 486 OFFCURVE",
"826 597 OFFCURVE",
"848 597 QCURVE SMOOTH",
"921 597 OFFCURVE",
"1135 229 OFFCURVE",
"1210 -6 QCURVE",
"1264 -6 LINE",
"1358 156 OFFCURVE",
"1624 567 OFFCURVE",
"1776 802 OFFCURVE",
"1776 820 QCURVE SMOOTH",
"1776 822 OFFCURVE",
"1777 828 OFFCURVE",
"1777 830 QCURVE SMOOTH",
"1777 878 OFFCURVE",
"1677 938 OFFCURVE",
"1620 938 QCURVE SMOOTH",
"1602 938 OFFCURVE",
"1559 918 OFFCURVE",
"1495 866 OFFCURVE",
"1456 832 OFFCURVE",
"1367 748 OFFCURVE",
"1352 734 QCURVE",
"1376 706 LINE",
"1379 709 OFFCURVE",
"1396 727 OFFCURVE",
"1403 734 OFFCURVE",
"1419 749 OFFCURVE",
"1429 756 OFFCURVE",
"1443 765 OFFCURVE",
"1456 768 OFFCURVE",
"1463 768 QCURVE SMOOTH",
"1468 768 LINE SMOOTH",
"1515 768 OFFCURVE",
"1563 706 OFFCURVE",
"1563 658 QCURVE SMOOTH",
"1563 602 OFFCURVE",
"1532 546 QCURVE",
"1354 258 LINE",
"1328 308 OFFCURVE",
"1232 508 OFFCURVE",
"1161 649 OFFCURVE",
"1077 799 OFFCURVE",
"1003 879 OFFCURVE",
"974 879 QCURVE SMOOTH",
"950 879 OFFCURVE",
"889 804 OFFCURVE",
"786 633 OFFCURVE",
"762 597 QCURVE SMOOTH",
"584 309 LINE",
"545 384 OFFCURVE",
"397 739 OFFCURVE",
"290 938 OFFCURVE",
"249 938 QCURVE SMOOTH",
"243 938 OFFCURVE",
"233 935 OFFCURVE",
"226 931 OFFCURVE",
"215 924 OFFCURVE",
"211 922 QCURVE SMOOTH",
"-27 798 LINE",
"-13 778 LINE",
"9 792 OFFCURVE",
"31 792 QCURVE SMOOTH",
"47 792 OFFCURVE",
"55 784 QCURVE",
"80 777 OFFCURVE",
"104 761 QCURVE SMOOTH",
"232 680 OFFCURVE",
"352 348 QCURVE SMOOTH",
"374 290 OFFCURVE",
"465 3 QCURVE",
"498 3 LINE"
);
}
);
width = 1871;
}
);
note = w;
unicode = 0077;
},
{
glyphname = x;
lastChange = "2018-07-29 14:56:13 +0000";
layers = (
{
layerId = "BE590684-9836-437F-B2F3-AE785A4EA4BE";
paths = (
{
closed = 1;
nodes = (
"27 758 LINE",
"92 789 OFFCURVE",
"143 789 QCURVE SMOOTH",
"206 789 OFFCURVE",
"233 744 QCURVE",
"433 436 LINE",
"97 148 LINE SMOOTH",
"68 123 OFFCURVE",
"68 99 QCURVE SMOOTH",
"68 74 OFFCURVE",
"95 56 QCURVE",
"103 50 OFFCURVE",
"120 39 OFFCURVE",
"135 30 OFFCURVE",
"155 23 OFFCURVE",
"168 18 OFFCURVE",
"193 12 OFFCURVE",
"204 10 OFFCURVE",
"231 5 OFFCURVE",
"240 4 OFFCURVE",
"270 0 OFFCURVE",
"273 0 QCURVE",
"421 104 LINE",
"359 136 LINE",
"305 182 OFFCURVE",
"305 226 QCURVE SMOOTH",
"305 257 OFFCURVE",
"348 315 OFFCURVE",
"436 392 OFFCURVE",
"449 406 QCURVE",
"683 28 LINE",
"706 -6 OFFCURVE",
"748 -6 QCURVE SMOOTH",
"775 -6 OFFCURVE",
"791 8 QCURVE",
"809 17 OFFCURVE",
"845 38 OFFCURVE",
"890 69 OFFCURVE",
"915 88 OFFCURVE",
"971 130 OFFCURVE",
"979 136 QCURVE",
"971 162 LINE",
"937 130 LINE",
"932 128 OFFCURVE",
"921 128 QCURVE SMOOTH",
"888 128 OFFCURVE",
"809 185 OFFCURVE",
"779 226 QCURVE",
"581 536 LINE",
"903 816 LINE",
"937 840 OFFCURVE",
"937 859 QCURVE SMOOTH",
"937 882 OFFCURVE",
"891 910 QCURVE",
"783 958 LINE",
"657 852 LINE",
"732 791 OFFCURVE",
"732 745 QCURVE SMOOTH",
"732 733 OFFCURVE",
"724 710 OFFCURVE",
"705 686 OFFCURVE",
"687 666 OFFCURVE",
"651 637 OFFCURVE",
"626 616 OFFCURVE",
"578 580 OFFCURVE",
"563 568 QCURVE",
"375 892 LINE SMOOTH",
"360 916 OFFCURVE",
"338 938 OFFCURVE",
"310 938 OFFCURVE",
"293 928 QCURVE SMOOTH",
"13 774 LINE"
);
}
);
width = 1087;
}
);
note = x;
unicode = 0078;
},
{
glyphname = y;
lastChange = "2018-07-29 14:56:13 +0000";
layers = (
{
layerId = "BE590684-9836-437F-B2F3-AE785A4EA4BE";
paths = (
{
closed = 1;
nodes = (
"196 548 OFFCURVE",
"215 363 OFFCURVE",
"227 214 OFFCURVE",
"246 74 OFFCURVE",
"282 -5 OFFCURVE",
"309 -5 QCURVE SMOOTH",
"370 -5 OFFCURVE",
"483 51 OFFCURVE",
"572 150 OFFCURVE",
"646 263 OFFCURVE",
"705 398 OFFCURVE",
"743 503 OFFCURVE",
"759 556 QCURVE",
"759 -262 LINE SMOOTH",
"759 -301 OFFCURVE",
"658 -361 OFFCURVE",
"595 -373 QCURVE",
"595 -427 LINE",
"619 -424 OFFCURVE",
"701 -415 OFFCURVE",
"761 -408 OFFCURVE",
"837 -395 OFFCURVE",
"890 -376 OFFCURVE",
"938 -348 OFFCURVE",
"962 -304 OFFCURVE",
"962 -276 QCURVE",
"950 -181 OFFCURVE",
"950 300 QCURVE SMOOTH",
"950 561 LINE SMOOTH",
"950 624 OFFCURVE",
"952 880 OFFCURVE",
"952 944 QCURVE",
"771 790 LINE",
"771 714 OFFCURVE",
"678 452 OFFCURVE",
"542 241 OFFCURVE",
"490 241 QCURVE SMOOTH",
"461 241 OFFCURVE",
"417 283 OFFCURVE",
"388 364 OFFCURVE",
"368 456 OFFCURVE",
"355 583 OFFCURVE",
"347 687 OFFCURVE",
"338 822 OFFCURVE",
"334 863 QCURVE",
"334 935 OFFCURVE",
"299 935 QCURVE SMOOTH",
"278 935 OFFCURVE",
"250 911 QCURVE",
"-15 725 LINE",
"9 697 LINE",
"56 725 OFFCURVE",
"94 725 QCURVE SMOOTH",
"131 725 OFFCURVE",
"175 681 OFFCURVE",
"183 610 QCURVE"
);
}
);
width = 1086;
}
);
note = y;
unicode = 0079;
},
{
glyphname = z;
lastChange = "2018-07-29 14:56:13 +0000";
layers = (
{
layerId = "BE590684-9836-437F-B2F3-AE785A4EA4BE";
paths = (
{
closed = 1;
nodes = (
"35 888 OFFCURVE",
"35 792 QCURVE SMOOTH",
"35 768 OFFCURVE",
"69 753 OFFCURVE",
"102 753 QCURVE SMOOTH",
"149 753 LINE",
"452 753 LINE",
"119 237 LINE",
"109 217 OFFCURVE",
"69 167 OFFCURVE",
"47 122 OFFCURVE",
"47 90 QCURVE SMOOTH",
"47 61 OFFCURVE",
"94 23 OFFCURVE",
"186 6 OFFCURVE",
"275 0 OFFCURVE",
"339 0 QCURVE SMOOTH",
"479 0 LINE",
"659 201 LINE",
"626 201 OFFCURVE",
"493 190 OFFCURVE",
"459 190 QCURVE SMOOTH",
"409 190 OFFCURVE",
"368 198 QCURVE",
"316 214 OFFCURVE",
"270 260 OFFCURVE",
"270 295 QCURVE SMOOTH",
"270 331 OFFCURVE",
"299 399 QCURVE",
"338 471 OFFCURVE",
"450 638 OFFCURVE",
"513 723 OFFCURVE",
"682 940 OFFCURVE",
"698 960 QCURVE",
"534 927 OFFCURVE",
"371 927 QCURVE SMOOTH",
"309 927 OFFCURVE",
"248 978 OFFCURVE",
"248 1038 QCURVE"
);
}
);
width = 782;
}
);
note = z;
unicode = 007A;
},
{
glyphname = braceleft;
lastChange = "2018-07-29 14:56:13 +0000";
layers = (
{
layerId = "BE590684-9836-437F-B2F3-AE785A4EA4BE";
paths = (
{
closed = 1;
nodes = (
"367 362 LINE SMOOTH",
"367 458 OFFCURVE",
"272 563 OFFCURVE",
"187 592 QCURVE SMOOTH",
"111 618 LINE",
"188 640 LINE SMOOTH",
"256 659 OFFCURVE",
"314 711 QCURVE SMOOTH",
"367 759 OFFCURVE",
"367 866 QCURVE SMOOTH",
"367 1161 LINE SMOOTH",
"367 1348 OFFCURVE",
"498 1348 QCURVE SMOOTH",
"582 1348 LINE",
"582 1445 LINE",
"412 1445 LINE SMOOTH",
"388 1445 OFFCURVE",
"333 1429 OFFCURVE",
"274 1391 OFFCURVE",
"227 1336 OFFCURVE",
"196 1249 OFFCURVE",
"196 1196 QCURVE SMOOTH",
"196 889 LINE SMOOTH",
"196 794 OFFCURVE",
"82 682 OFFCURVE",
"11 671 QCURVE",
"11 558 LINE",
"82 547 OFFCURVE",
"196 434 OFFCURVE",
"196 340 QCURVE SMOOTH",
"196 33 LINE SMOOTH",
"196 -19 OFFCURVE",
"227 -107 OFFCURVE",
"275 -162 OFFCURVE",
"334 -201 OFFCURVE",
"389 -217 OFFCURVE",
"412 -217 QCURVE SMOOTH",
"582 -217 LINE",
"582 -119 LINE",
"498 -119 LINE SMOOTH",
"367 -119 OFFCURVE",
"367 68 QCURVE SMOOTH"
);
}
);
width = 716;
}
);
note = braceleft;
unicode = 007B;
},
{
glyphname = bar;
lastChange = "2018-07-29 14:56:13 +0000";
layers = (
{
layerId = "BE590684-9836-437F-B2F3-AE785A4EA4BE";
paths = (
{
closed = 1;
nodes = (
"223 1460 LINE",
"96 1460 LINE",
"96 0 LINE",
"223 0 LINE"
);
}
);
width = 357;
}
);
note = bar;
unicode = 007C;
},
{
glyphname = braceright;
lastChange = "2018-07-29 14:56:13 +0000";
layers = (
{
layerId = "BE590684-9836-437F-B2F3-AE785A4EA4BE";
paths = (
{
closed = 1;
nodes = (
"338 1196 LINE SMOOTH",
"338 1258 OFFCURVE",
"293 1356 OFFCURVE",
"226 1409 OFFCURVE",
"159 1435 OFFCURVE",
"131 1435 QCURVE SMOOTH",
"-29 1435 LINE",
"-29 1358 LINE",
"45 1358 LINE SMOOTH",
"186 1358 OFFCURVE",
"186 1161 QCURVE SMOOTH",
"186 866 LINE SMOOTH",
"186 774 OFFCURVE",
"277 674 OFFCURVE",
"360 645 QCURVE SMOOTH",
"466 608 LINE",
"357 578 LINE SMOOTH",
"291 560 OFFCURVE",
"236 511 QCURVE SMOOTH",
"186 466 OFFCURVE",
"186 362 QCURVE SMOOTH",
"186 68 LINE SMOOTH",
"186 7 OFFCURVE",
"159 -76 OFFCURVE",
"113 -114 OFFCURVE",
"70 -129 OFFCURVE",
"45 -129 QCURVE SMOOTH",
"-29 -129 LINE",
"-29 -207 LINE",
"131 -207 LINE SMOOTH",
"160 -207 OFFCURVE",
"227 -181 OFFCURVE",
"294 -128 OFFCURVE",
"338 -30 OFFCURVE",
"338 33 QCURVE SMOOTH",
"338 340 LINE SMOOTH",
"338 436 OFFCURVE",
"449 553 OFFCURVE",
"522 567 QCURVE",
"522 663 LINE",
"449 677 OFFCURVE",
"338 794 OFFCURVE",
"338 889 QCURVE SMOOTH"
);
}
);
width = 631;
}
);
note = braceright;
unicode = 007D;
},
{
glyphname = asciitilde;
lastChange = "2018-07-29 14:56:13 +0000";
layers = (
{
layerId = "BE590684-9836-437F-B2F3-AE785A4EA4BE";
paths = (
{
closed = 1;
nodes = (
"570 512 OFFCURVE",
"455 555 OFFCURVE",
"361 608 OFFCURVE",
"234 651 OFFCURVE",
"178 651 QCURVE SMOOTH",
"149 651 OFFCURVE",
"101 642 OFFCURVE",
"42 614 OFFCURVE",
"-14 554 OFFCURVE",
"-39 508 QCURVE",
"3 412 LINE",
"49 475 OFFCURVE",
"130 524 OFFCURVE",
"176 524 QCURVE SMOOTH",
"220 524 OFFCURVE",
"335 481 OFFCURVE",
"430 428 OFFCURVE",
"557 385 OFFCURVE",
"612 385 QCURVE SMOOTH",
"641 385 OFFCURVE",
"688 394 OFFCURVE",
"748 421 OFFCURVE",
"804 481 OFFCURVE",
"829 527 QCURVE",
"788 624 LINE",
"741 561 OFFCURVE",
"661 512 OFFCURVE",
"615 512 QCURVE SMOOTH"
);
}
);
width = 938;
}
);
note = asciitilde;
unicode = 007E;
},
{
glyphname = dotnosp;
lastChange = "2018-07-29 14:56:13 +0000";
layers = (
{
layerId = "BE590684-9836-437F-B2F3-AE785A4EA4BE";
paths = (
{
closed = 1;
nodes = (
"39 1308 OFFCURVE",
"92 1370 OFFCURVE",
"92 1417 QCURVE SMOOTH",
"92 1463 OFFCURVE",
"40 1525 OFFCURVE",
"0 1525 QCURVE SMOOTH",
"-39 1525 OFFCURVE",
"-92 1464 OFFCURVE",
"-92 1370 OFFCURVE",
"-39 1308 OFFCURVE",
"0 1308 QCURVE SMOOTH"
);
}
);
width = 0;
}
);
note = dotnosp;
unicode = 0307;
},
{
glyphname = dieresisnosp;
lastChange = "2018-07-29 14:56:13 +0000";
layers = (
{
layerId = "BE590684-9836-437F-B2F3-AE785A4EA4BE";
paths = (
{
closed = 1;
nodes = (
"-174 1310 OFFCURVE",
"-122 1371 OFFCURVE",
"-122 1417 QCURVE SMOOTH",
"-122 1462 OFFCURVE",
"-173 1523 OFFCURVE",
"-251 1523 OFFCURVE",
"-303 1464 OFFCURVE",
"-303 1417 QCURVE SMOOTH",
"-303 1372 OFFCURVE",
"-252 1310 OFFCURVE",
"-212 1310 QCURVE SMOOTH"
);
},
{
closed = 1;
nodes = (
"251 1310 OFFCURVE",
"303 1371 OFFCURVE",
"303 1417 QCURVE SMOOTH",
"303 1462 OFFCURVE",
"252 1523 OFFCURVE",
"212 1523 QCURVE SMOOTH",
"174 1523 OFFCURVE",
"122 1464 OFFCURVE",
"122 1417 QCURVE SMOOTH",
"122 1372 OFFCURVE",
"172 1310 OFFCURVE",
"212 1310 QCURVE SMOOTH"
);
}
);
width = 0;
}
);
note = dieresisnosp;
unicode = 0308;
},
{
glyphname = ringnosp;
lastChange = "2018-07-29 14:56:13 +0000";
layers = (
{
layerId = "BE590684-9836-437F-B2F3-AE785A4EA4BE";
paths = (
{
closed = 1;
nodes = (
"69 1234 OFFCURVE",
"158 1341 OFFCURVE",
"158 1416 QCURVE SMOOTH",
"158 1495 OFFCURVE",
"68 1599 OFFCURVE",
"0 1599 QCURVE SMOOTH",
"-71 1599 OFFCURVE",
"-157 1492 OFFCURVE",
"-157 1416 QCURVE SMOOTH",
"-157 1341 OFFCURVE",
"-71 1234 OFFCURVE",
"0 1234 QCURVE SMOOTH"
);
},
{
closed = 1;
nodes = (
"47 1533 OFFCURVE",
"97 1465 OFFCURVE",
"97 1416 QCURVE SMOOTH",
"97 1369 OFFCURVE",
"48 1300 OFFCURVE",
"-48 1300 OFFCURVE",
"-97 1369 OFFCURVE",
"-97 1416 QCURVE SMOOTH",
"-97 1465 OFFCURVE",
"-47 1533 OFFCURVE",
"0 1533 QCURVE SMOOTH"
);
}
);
width = 0;
}
);
note = ringnosp;
unicode = 030A;
},
{
glyphname = atnah;
lastChange = "2018-07-29 14:56:13 +0000";
layers = (
{
layerId = "BE590684-9836-437F-B2F3-AE785A4EA4BE";
paths = (
{
closed = 1;
nodes = (
"-153 -526 OFFCURVE",
"-149 -572 OFFCURVE",
"-149 -585 QCURVE",
"-77 -585 LINE",
"-81 -548 OFFCURVE",
"-81 -511 QCURVE SMOOTH",
"-81 -373 OFFCURVE",
"0 -373 QCURVE SMOOTH",
"80 -373 OFFCURVE",
"80 -517 QCURVE SMOOTH",
"80 -539 OFFCURVE",
"76 -580 OFFCURVE",
"76 -585 QCURVE",
"148 -585 LINE",
"148 -563 OFFCURVE",
"150 -526 OFFCURVE",
"152 -505 OFFCURVE",
"152 -503 QCURVE SMOOTH",
"152 -413 OFFCURVE",
"98 -308 OFFCURVE",
"36 -294 QCURVE",
"36 -164 LINE",
"-37 -164 LINE",
"-37 -294 LINE",
"-153 -322 OFFCURVE",
"-153 -511 QCURVE SMOOTH"
);
}
);
width = 0;
}
);
note = atnah;
unicode = 0591;
},
{
glyphname = segolta;
lastChange = "2018-07-29 14:56:13 +0000";
layers = (
{
layerId = "BE590684-9836-437F-B2F3-AE785A4EA4BE";
paths = (
{
closed = 1;
nodes = (
"-88 1222 OFFCURVE",
"-48 1268 OFFCURVE",
"-48 1304 QCURVE SMOOTH",
"-48 1339 OFFCURVE",
"-87 1386 OFFCURVE",
"-118 1386 QCURVE SMOOTH",
"-148 1386 OFFCURVE",
"-188 1340 OFFCURVE",
"-188 1304 QCURVE SMOOTH",
"-188 1269 OFFCURVE",
"-149 1222 OFFCURVE",
"-118 1222 QCURVE SMOOTH"
);
},
{
closed = 1;
nodes = (
"30 1466 OFFCURVE",
"70 1512 OFFCURVE",
"70 1548 QCURVE SMOOTH",
"70 1583 OFFCURVE",
"31 1630 OFFCURVE",
"0 1630 QCURVE SMOOTH",
"-30 1630 OFFCURVE",
"-70 1584 OFFCURVE",
"-70 1548 QCURVE SMOOTH",
"-70 1513 OFFCURVE",
"-31 1466 OFFCURVE",
"0 1466 QCURVE SMOOTH"
);
},
{
closed = 1;
nodes = (
"148 1222 OFFCURVE",
"188 1268 OFFCURVE",
"188 1304 QCURVE SMOOTH",
"188 1339 OFFCURVE",
"149 1386 OFFCURVE",
"118 1386 QCURVE SMOOTH",
"88 1386 OFFCURVE",
"48 1340 OFFCURVE",
"48 1304 QCURVE SMOOTH",
"48 1269 OFFCURVE",
"87 1222 OFFCURVE",
"118 1222 QCURVE SMOOTH"
);
}
);
width = 0;
}
);
note = segolta;
unicode = 0592;
},
{
glyphname = shalshelet;
lastChange = "2018-07-29 14:56:13 +0000";
layers = (
{
layerId = "BE590684-9836-437F-B2F3-AE785A4EA4BE";
paths = (
{
closed = 1;
nodes = (
"-28 1562 LINE",
"110 1656 LINE",
"26 1656 LINE",
"-113 1562 LINE",
"25 1475 LINE",
"-110 1388 LINE",
"30 1301 LINE",
"-110 1207 LINE",
"-25 1207 LINE",
"114 1301 LINE",
"-24 1388 LINE",
"110 1475 LINE"
);
}
);
width = 0;
}
);
note = shalshelet;
unicode = 0593;
},
{
glyphname = zaqefqatan;
lastChange = "2018-07-29 14:56:13 +0000";
layers = (
{
layerId = "BE590684-9836-437F-B2F3-AE785A4EA4BE";
paths = (
{
closed = 1;
nodes = (
"30 1222 OFFCURVE",
"70 1268 OFFCURVE",
"70 1304 QCURVE SMOOTH",
"70 1339 OFFCURVE",
"31 1386 OFFCURVE",
"0 1386 QCURVE SMOOTH",
"-30 1386 OFFCURVE",
"-70 1340 OFFCURVE",
"-70 1304 QCURVE SMOOTH",
"-70 1269 OFFCURVE",
"-31 1222 OFFCURVE",
"0 1222 QCURVE SMOOTH"
);
},
{
closed = 1;
nodes = (
"30 1476 OFFCURVE",
"70 1522 OFFCURVE",
"70 1558 QCURVE SMOOTH",
"70 1593 OFFCURVE",
"31 1640 OFFCURVE",
"0 1640 QCURVE SMOOTH",
"-30 1640 OFFCURVE",
"-70 1594 OFFCURVE",
"-70 1558 QCURVE SMOOTH",
"-70 1523 OFFCURVE",
"-31 1476 OFFCURVE",
"0 1476 QCURVE SMOOTH"
);
}
);
width = 0;
}
);
note = zaqefqatan;
unicode = 0594;
},
{
glyphname = zaqefgadol;
lastChange = "2018-07-29 14:56:13 +0000";
layers = (
{
layerId = "BE590684-9836-437F-B2F3-AE785A4EA4BE";
paths = (
{
closed = 1;
nodes = (
"121 1222 OFFCURVE",
"160 1268 OFFCURVE",
"160 1304 QCURVE SMOOTH",
"160 1339 OFFCURVE",
"121 1386 OFFCURVE",
"61 1386 OFFCURVE",
"21 1340 OFFCURVE",
"21 1304 QCURVE SMOOTH",
"21 1269 OFFCURVE",
"60 1222 OFFCURVE",
"91 1222 QCURVE SMOOTH"
);
},
{
closed = 1;
nodes = (
"121 1476 OFFCURVE",
"160 1522 OFFCURVE",
"160 1558 QCURVE SMOOTH",
"160 1593 OFFCURVE",
"121 1640 OFFCURVE",
"61 1640 OFFCURVE",
"21 1594 OFFCURVE",
"21 1558 QCURVE SMOOTH",
"21 1523 OFFCURVE",
"60 1476 OFFCURVE",
"91 1476 QCURVE SMOOTH"
);
},
{
closed = 1;
nodes = (
"-47 1635 LINE",
"-119 1635 LINE",
"-119 1237 LINE",
"-47 1237 LINE"
);
}
);
width = 0;
}
);
note = zaqefgadol;
unicode = 0595;
},
{
glyphname = tipeha;
lastChange = "2018-07-29 14:56:13 +0000";
layers = (
{
layerId = "BE590684-9836-437F-B2F3-AE785A4EA4BE";
paths = (
{
closed = 1;
nodes = (
"38 -328 OFFCURVE",
"49 -177 QCURVE",
"-26 -177 LINE",
"-37 -270 OFFCURVE",
"-37 -350 QCURVE SMOOTH",
"-37 -545 OFFCURVE",
"138 -587 QCURVE",
"138 -500 LINE",
"87 -482 OFFCURVE",
"38 -416 OFFCURVE",
"38 -353 QCURVE SMOOTH"
);
}
);
width = 0;
}
);
note = tipeha;
unicode = 0596;
},
{
glyphname = revia;
lastChange = "2018-07-29 14:56:13 +0000";
layers = (
{
layerId = "BE590684-9836-437F-B2F3-AE785A4EA4BE";
paths = (
{
closed = 1;
nodes = (
"-103 1356 LINE",
"4 1213 LINE",
"104 1353 LINE",
"-3 1501 LINE"
);
}
);
width = 0;
}
);
note = revia;
unicode = 0597;
},
{
glyphname = zarqa;
lastChange = "2018-07-29 14:56:13 +0000";
layers = (
{
layerId = "BE590684-9836-437F-B2F3-AE785A4EA4BE";
paths = (
{
closed = 1;
nodes = (
"154 1366 OFFCURVE",
"124 1329 OFFCURVE",
"102 1329 QCURVE SMOOTH",
"86 1329 OFFCURVE",
"60 1355 OFFCURVE",
"44 1382 QCURVE",
"28 1413 LINE SMOOTH",
"0 1469 OFFCURVE",
"-60 1525 OFFCURVE",
"-104 1525 QCURVE SMOOTH",
"-154 1525 OFFCURVE",
"-225 1444 OFFCURVE",
"-225 1380 QCURVE SMOOTH",
"-225 1331 OFFCURVE",
"-160 1248 OFFCURVE",
"-108 1230 QCURVE",
"-108 1317 LINE",
"-154 1336 OFFCURVE",
"-154 1381 QCURVE SMOOTH",
"-154 1410 OFFCURVE",
"-124 1447 OFFCURVE",
"-102 1447 QCURVE SMOOTH",
"-70 1447 OFFCURVE",
"-42 1392 QCURVE SMOOTH",
"-27 1362 LINE SMOOTH",
"-15 1338 OFFCURVE",
"3 1308 OFFCURVE",
"36 1269 OFFCURVE",
"79 1249 OFFCURVE",
"105 1249 QCURVE SMOOTH",
"153 1249 OFFCURVE",
"225 1330 OFFCURVE",
"225 1395 QCURVE SMOOTH",
"225 1451 OFFCURVE",
"154 1532 OFFCURVE",
"112 1546 QCURVE",
"112 1457 LINE",
"154 1437 OFFCURVE",
"154 1394 QCURVE SMOOTH"
);
}
);
width = 0;
}
);
note = zarqa;
unicode = 0598;
},
{
glyphname = pashta;
lastChange = "2018-07-29 14:56:13 +0000";
layers = (
{
layerId = "BE590684-9836-437F-B2F3-AE785A4EA4BE";
paths = (
{
closed = 1;
nodes = (
"-371 1383 OFFCURVE",
"-382 1232 QCURVE",
"-307 1232 LINE",
"-296 1326 OFFCURVE",
"-296 1405 QCURVE SMOOTH",
"-296 1600 OFFCURVE",
"-471 1642 QCURVE",
"-471 1555 LINE",
"-420 1537 OFFCURVE",
"-371 1471 OFFCURVE",
"-371 1408 QCURVE SMOOTH"
);
}
);
width = 0;
}
);
note = pashta;
unicode = 0599;
},
{
glyphname = yetiv;
lastChange = "2018-07-29 14:56:13 +0000";
layers = (
{
layerId = "BE590684-9836-437F-B2F3-AE785A4EA4BE";
paths = (
{
closed = 1;
nodes = (
"463 -376 LINE",
"626 -243 LINE",
"576 -171 LINE",
"349 -379 LINE",
"576 -587 LINE",
"626 -515 LINE"
);
}
);
width = 0;
}
);
note = yetiv;
unicode = 059A;
},
{
glyphname = tevir;
lastChange = "2018-07-29 14:56:13 +0000";
layers = (
{
layerId = "BE590684-9836-437F-B2F3-AE785A4EA4BE";
paths = (
{
closed = 1;
nodes = (
"51 -416 OFFCURVE",
"2 -482 OFFCURVE",
"-49 -500 QCURVE",
"-49 -587 LINE",
"125 -545 OFFCURVE",
"125 -350 QCURVE SMOOTH",
"125 -262 OFFCURVE",
"115 -177 QCURVE",
"39 -177 LINE",
"51 -353 OFFCURVE",
"51 -353 QCURVE"
);
},
{
closed = 1;
nodes = (
"-62 -411 OFFCURVE",
"-23 -367 OFFCURVE",
"-23 -334 QCURVE SMOOTH",
"-23 -303 OFFCURVE",
"-61 -257 OFFCURVE",
"-117 -257 OFFCURVE",
"-154 -302 OFFCURVE",
"-154 -366 OFFCURVE",
"-118 -411 OFFCURVE",
"-89 -411 QCURVE SMOOTH"
);
}
);
width = 0;
}
);
note = tevir;
unicode = 059B;
},
{
glyphname = gereshaccent;
lastChange = "2018-07-29 14:56:13 +0000";
layers = (
{
layerId = "BE590684-9836-437F-B2F3-AE785A4EA4BE";
paths = (
{
closed = 1;
nodes = (
"37 1472 OFFCURVE",
"86 1538 OFFCURVE",
"137 1556 QCURVE",
"137 1643 LINE",
"-38 1601 OFFCURVE",
"-38 1406 QCURVE SMOOTH",
"-38 1326 OFFCURVE",
"-27 1233 QCURVE",
"48 1233 LINE",
"37 1409 OFFCURVE",
"37 1409 QCURVE"
);
}
);
width = 0;
}
);
note = gereshaccent;
unicode = 059C;
},
{
glyphname = gereshmuqdam;
lastChange = "2018-07-29 14:56:13 +0000";
layers = (
{
layerId = "BE590684-9836-437F-B2F3-AE785A4EA4BE";
paths = (
{
closed = 1;
nodes = (
"370 1470 OFFCURVE",
"419 1536 OFFCURVE",
"470 1554 QCURVE",
"470 1641 LINE",
"295 1599 OFFCURVE",
"295 1404 QCURVE SMOOTH",
"295 1325 OFFCURVE",
"306 1231 QCURVE",
"381 1231 LINE",
"370 1407 OFFCURVE",
"370 1407 QCURVE"
);
}
);
width = 0;
}
);
note = gereshmuqdam;
unicode = 059D;
},
{
glyphname = gershayimaccent;
lastChange = "2018-07-29 14:56:13 +0000";
layers = (
{
layerId = "BE590684-9836-437F-B2F3-AE785A4EA4BE";
paths = (
{
closed = 1;
nodes = (
"-58 1471 OFFCURVE",
"-10 1536 OFFCURVE",
"42 1554 QCURVE",
"42 1641 LINE",
"-133 1599 OFFCURVE",
"-133 1404 QCURVE SMOOTH",
"-133 1316 OFFCURVE",
"-123 1231 QCURVE",
"-47 1231 LINE",
"-58 1407 OFFCURVE",
"-58 1407 QCURVE"
);
},
{
closed = 1;
nodes = (
"137 1471 OFFCURVE",
"186 1536 OFFCURVE",
"237 1554 QCURVE",
"237 1642 LINE",
"62 1598 OFFCURVE",
"62 1404 QCURVE SMOOTH",
"62 1364 OFFCURVE",
"72 1232 OFFCURVE",
"72 1231 QCURVE",
"149 1231 LINE",
"137 1408 LINE"
);
}
);
width = 0;
}
);
note = gershayimaccent;
unicode = 059E;
},
{
glyphname = qarneypara;
lastChange = "2018-07-29 14:56:13 +0000";
layers = (
{
layerId = "BE590684-9836-437F-B2F3-AE785A4EA4BE";
paths = (
{
closed = 1;
nodes = (
"388 1581 OFFCURVE",
"296 1696 OFFCURVE",
"152 1696 OFFCURVE",
"60 1584 OFFCURVE",
"60 1503 QCURVE SMOOTH",
"60 1441 OFFCURVE",
"90 1395 QCURVE",
"0 1295 LINE",
"-90 1395 LINE",
"-60 1442 OFFCURVE",
"-60 1503 QCURVE SMOOTH",
"-60 1584 OFFCURVE",
"-152 1696 OFFCURVE",
"-296 1696 OFFCURVE",
"-388 1581 OFFCURVE",
"-388 1503 QCURVE SMOOTH",
"-388 1424 OFFCURVE",
"-296 1311 OFFCURVE",
"-224 1311 QCURVE SMOOTH",
"-169 1311 OFFCURVE",
"-130 1347 QCURVE",
"0 1199 LINE",
"130 1347 LINE",
"169 1311 OFFCURVE",
"224 1311 QCURVE SMOOTH",
"296 1311 OFFCURVE",
"388 1424 OFFCURVE",
"388 1503 QCURVE SMOOTH"
);
},
{
closed = 1;
nodes = (
"-326 1554 OFFCURVE",
"-270 1627 OFFCURVE",
"-178 1627 OFFCURVE",
"-122 1554 OFFCURVE",
"-122 1452 OFFCURVE",
"-178 1379 OFFCURVE",
"-270 1379 OFFCURVE",
"-326 1452 OFFCURVE"
);
},
{
closed = 1;
nodes = (
"326 1452 OFFCURVE",
"270 1379 OFFCURVE",
"178 1379 OFFCURVE",
"122 1452 OFFCURVE",
"122 1554 OFFCURVE",
"178 1627 OFFCURVE",
"270 1627 OFFCURVE",
"326 1554 OFFCURVE"
);
}
);
width = 0;
}
);
note = qarneypara;
unicode = 059F;
},
{
glyphname = telishagedola;
lastChange = "2018-07-29 14:56:13 +0000";
layers = (
{
layerId = "BE590684-9836-437F-B2F3-AE785A4EA4BE";
paths = (
{
closed = 1;
nodes = (
"503 1452 OFFCURVE",
"447 1379 OFFCURVE",
"355 1379 OFFCURVE",
"299 1452 OFFCURVE",
"299 1554 OFFCURVE",
"355 1627 OFFCURVE",
"447 1627 OFFCURVE",
"503 1554 OFFCURVE"
);
},
{
closed = 1;
nodes = (
"220 1217 LINE",
"278 1178 LINE",
"344 1324 LINE",
"381 1311 OFFCURVE",
"401 1311 QCURVE SMOOTH",
"473 1311 OFFCURVE",
"565 1424 OFFCURVE",
"565 1503 QCURVE SMOOTH",
"565 1581 OFFCURVE",
"473 1696 OFFCURVE",
"329 1696 OFFCURVE",
"237 1584 OFFCURVE",
"237 1503 QCURVE SMOOTH",
"237 1420 OFFCURVE",
"295 1358 QCURVE"
);
}
);
width = 0;
}
);
note = telishagedola;
unicode = 05A0;
},
{
glyphname = pazer;
lastChange = "2018-07-29 14:56:13 +0000";
layers = (
{
layerId = "BE590684-9836-437F-B2F3-AE785A4EA4BE";
paths = (
{
closed = 1;
nodes = (
"189 1591 OFFCURVE",
"184 1633 QCURVE",
"111 1633 LINE",
"116 1588 OFFCURVE",
"116 1550 QCURVE SMOOTH",
"116 1418 OFFCURVE",
"40 1418 QCURVE SMOOTH",
"22 1418 OFFCURVE",
"9 1422 QCURVE",
"9 1635 LINE",
"-64 1635 LINE",
"-64 1237 LINE",
"9 1237 LINE",
"9 1346 LINE",
"34 1340 OFFCURVE",
"54 1340 QCURVE SMOOTH",
"102 1340 OFFCURVE",
"165 1401 OFFCURVE",
"189 1492 OFFCURVE",
"189 1551 QCURVE SMOOTH"
);
}
);
width = 0;
}
);
note = pazer;
unicode = 05A1;
},
{
glyphname = atnahhafukh;
lastChange = "2018-07-29 14:56:13 +0000";
layers = (
{
layerId = "BE590684-9836-437F-B2F3-AE785A4EA4BE";
paths = (
{
closed = 1;
nodes = (
"153 -233 OFFCURVE",
"149 -187 OFFCURVE",
"149 -174 QCURVE",
"77 -174 LINE",
"81 -211 OFFCURVE",
"81 -248 QCURVE SMOOTH",
"81 -386 OFFCURVE",
"0 -386 QCURVE SMOOTH",
"-80 -386 OFFCURVE",
"-80 -242 QCURVE SMOOTH",
"-80 -220 OFFCURVE",
"-76 -179 OFFCURVE",
"-76 -174 QCURVE",
"-148 -174 LINE",
"-148 -196 OFFCURVE",
"-150 -233 OFFCURVE",
"-152 -254 OFFCURVE",
"-152 -256 QCURVE SMOOTH",
"-152 -346 OFFCURVE",
"-98 -451 OFFCURVE",
"-36 -465 QCURVE",
"-36 -595 LINE",
"37 -595 LINE",
"37 -465 LINE",
"153 -437 OFFCURVE",
"153 -248 QCURVE SMOOTH"
);
}
);
width = 0;
}
);
note = atnahhafukh;
unicode = 05A2;
},
{
glyphname = munah;
lastChange = "2018-07-29 14:56:13 +0000";
layers = (
{
layerId = "BE590684-9836-437F-B2F3-AE785A4EA4BE";
paths = (
{
closed = 1;
nodes = (
"126 -183 LINE",
"53 -183 LINE",
"53 -487 LINE",
"-116 -487 LINE",
"-116 -572 LINE",
"126 -572 LINE"
);
}
);
width = 0;
}
);
note = munah;
unicode = 05A3;
},
{
glyphname = mahapakh;
lastChange = "2018-07-29 14:56:13 +0000";
layers = (
{
layerId = "BE590684-9836-437F-B2F3-AE785A4EA4BE";
paths = (
{
closed = 1;
nodes = (
"-29 -376 LINE",
"134 -243 LINE",
"84 -171 LINE",
"-143 -379 LINE",
"84 -587 LINE",
"134 -515 LINE"
);
}
);
width = 0;
}
);
note = mahapakh;
unicode = 05A4;
},
{
glyphname = merkha;
lastChange = "2018-07-29 14:56:13 +0000";
layers = (
{
layerId = "BE590684-9836-437F-B2F3-AE785A4EA4BE";
paths = (
{
closed = 1;
nodes = (
"-38 -414 OFFCURVE",
"-86 -479 OFFCURVE",
"-137 -498 QCURVE",
"-137 -584 LINE",
"37 -543 OFFCURVE",
"37 -348 QCURVE SMOOTH",
"37 -273 OFFCURVE",
"26 -174 QCURVE",
"-48 -174 LINE",
"-38 -350 OFFCURVE",
"-38 -350 QCURVE"
);
}
);
width = 0;
}
);
note = merkha;
unicode = 05A5;
},
{
glyphname = merkhakefula;
lastChange = "2018-07-29 14:56:13 +0000";
layers = (
{
layerId = "BE590684-9836-437F-B2F3-AE785A4EA4BE";
paths = (
{
closed = 1;
nodes = (
"-139 -417 OFFCURVE",
"-186 -482 OFFCURVE",
"-237 -501 QCURVE",
"-237 -587 LINE",
"-64 -546 OFFCURVE",
"-64 -351 QCURVE SMOOTH",
"-64 -267 OFFCURVE",
"-74 -177 QCURVE",
"-149 -177 LINE",
"-139 -353 OFFCURVE",
"-139 -353 QCURVE"
);
},
{
closed = 1;
nodes = (
"58 -418 OFFCURVE",
"10 -483 OFFCURVE",
"-41 -502 QCURVE",
"-41 -587 LINE",
"132 -546 OFFCURVE",
"132 -352 QCURVE SMOOTH",
"132 -268 OFFCURVE",
"122 -178 QCURVE",
"47 -178 LINE",
"58 -354 LINE"
);
}
);
width = 0;
}
);
note = merkhakefula;
unicode = 05A6;
},
{
glyphname = darga;
lastChange = "2018-07-29 14:56:13 +0000";
layers = (
{
layerId = "BE590684-9836-437F-B2F3-AE785A4EA4BE";
paths = (
{
closed = 1;
nodes = (
"65 -247 LINE",
"68 -246 OFFCURVE",
"79 -245 OFFCURVE",
"82 -244 QCURVE",
"82 -162 LINE",
"-20 -178 OFFCURVE",
"-104 -241 OFFCURVE",
"-104 -321 QCURVE SMOOTH",
"-104 -340 OFFCURVE",
"-101 -353 QCURVE SMOOTH",
"-96 -377 OFFCURVE",
"-29 -414 OFFCURVE",
"34 -433 OFFCURVE",
"34 -437 QCURVE SMOOTH",
"34 -455 OFFCURVE",
"25 -478 OFFCURVE",
"-2 -492 OFFCURVE",
"-22 -498 OFFCURVE",
"-77 -508 OFFCURVE",
"-93 -512 QCURVE",
"-93 -593 LINE",
"16 -576 OFFCURVE",
"104 -510 OFFCURVE",
"104 -432 QCURVE SMOOTH",
"104 -414 OFFCURVE",
"101 -400 QCURVE SMOOTH",
"96 -376 OFFCURVE",
"29 -339 OFFCURVE",
"-34 -319 OFFCURVE",
"-34 -316 QCURVE SMOOTH",
"-34 -293 OFFCURVE",
"-5 -264 OFFCURVE",
"27 -253 OFFCURVE",
"58 -247 QCURVE"
);
}
);
width = 0;
}
);
note = darga;
unicode = 05A7;
},
{
glyphname = qadma;
lastChange = "2018-07-29 14:56:13 +0000";
layers = (
{
layerId = "BE590684-9836-437F-B2F3-AE785A4EA4BE";
paths = (
{
closed = 1;
nodes = (
"-39 1381 OFFCURVE",
"-50 1230 QCURVE",
"25 1230 LINE",
"36 1324 OFFCURVE",
"36 1403 QCURVE SMOOTH",
"36 1598 OFFCURVE",
"-139 1640 QCURVE",
"-139 1553 LINE",
"-88 1535 OFFCURVE",
"-39 1469 OFFCURVE",
"-39 1406 QCURVE SMOOTH"
);
}
);
width = 0;
}
);
note = qadma;
unicode = 05A8;
},
{
glyphname = telishaqetana;
lastChange = "2018-07-29 14:56:13 +0000";
layers = (
{
layerId = "BE590684-9836-437F-B2F3-AE785A4EA4BE";
paths = (
{
closed = 1;
nodes = (
"-503 1554 OFFCURVE",
"-447 1627 OFFCURVE",
"-355 1627 OFFCURVE",
"-299 1554 OFFCURVE",
"-299 1452 OFFCURVE",
"-355 1379 OFFCURVE",
"-447 1379 OFFCURVE",
"-503 1452 OFFCURVE"
);
},
{
closed = 1;
nodes = (
"-473 1696 OFFCURVE",
"-565 1581 OFFCURVE",
"-565 1503 QCURVE SMOOTH",
"-565 1424 OFFCURVE",
"-473 1311 OFFCURVE",
"-401 1311 QCURVE SMOOTH",
"-381 1311 OFFCURVE",
"-344 1324 QCURVE",
"-278 1178 LINE",
"-220 1217 LINE",
"-295 1358 LINE",
"-237 1419 OFFCURVE",
"-237 1503 QCURVE SMOOTH",
"-237 1584 OFFCURVE",
"-329 1696 OFFCURVE",
"-401 1696 QCURVE SMOOTH"
);
}
);
width = 0;
}
);
note = telishaqetana;
unicode = 05A9;
},
{
glyphname = yerahbenyomo;
lastChange = "2018-07-29 14:56:13 +0000";
layers = (
{
layerId = "BE590684-9836-437F-B2F3-AE785A4EA4BE";
paths = (
{
closed = 1;
nodes = (
"153 -234 OFFCURVE",
"149 -188 OFFCURVE",
"149 -175 QCURVE",
"77 -175 LINE",
"81 -212 OFFCURVE",
"81 -249 QCURVE SMOOTH",
"81 -387 OFFCURVE",
"0 -387 QCURVE SMOOTH",
"-80 -387 OFFCURVE",
"-80 -243 QCURVE SMOOTH",
"-80 -221 OFFCURVE",
"-76 -180 OFFCURVE",
"-76 -175 QCURVE",
"-148 -175 LINE",
"-148 -197 OFFCURVE",
"-150 -234 OFFCURVE",
"-152 -255 OFFCURVE",
"-152 -257 QCURVE SMOOTH",
"-152 -347 OFFCURVE",
"-98 -452 OFFCURVE",
"-36 -466 QCURVE",
"-36 -596 LINE",
"37 -596 LINE",
"37 -466 LINE",
"153 -438 OFFCURVE",
"153 -249 QCURVE SMOOTH"
);
}
);
width = 0;
}
);
note = yerahbenyomo;
unicode = 05AA;
},
{
glyphname = ole;
lastChange = "2018-07-29 14:56:13 +0000";
layers = (
{
layerId = "BE590684-9836-437F-B2F3-AE785A4EA4BE";
paths = (
{
closed = 1;
nodes = (
"28 1434 LINE",
"191 1567 LINE",
"141 1639 LINE",
"-86 1431 LINE",
"141 1223 LINE",
"191 1295 LINE"
);
}
);
width = 0;
}
);
note = ole;
unicode = 05AB;
},
{
glyphname = iluy;
lastChange = "2018-07-29 14:56:13 +0000";
layers = (
{
layerId = "BE590684-9836-437F-B2F3-AE785A4EA4BE";
paths = (
{
closed = 1;
nodes = (
"130 1592 LINE",
"58 1592 LINE",
"58 1288 LINE",
"-120 1288 LINE",
"-120 1203 LINE",
"130 1203 LINE"
);
}
);
width = 0;
}
);
note = iluy;
unicode = 05AC;
},
{
glyphname = dehi;
lastChange = "2018-07-29 14:56:13 +0000";
layers = (
{
layerId = "BE590684-9836-437F-B2F3-AE785A4EA4BE";
paths = (
{
closed = 1;
nodes = (
"465 -331 OFFCURVE",
"476 -180 QCURVE",
"401 -180 LINE",
"390 -273 OFFCURVE",
"390 -353 QCURVE SMOOTH",
"390 -548 OFFCURVE",
"565 -590 QCURVE",
"565 -503 LINE",
"514 -485 OFFCURVE",
"465 -419 OFFCURVE",
"465 -356 QCURVE SMOOTH"
);
}
);
width = 0;
}
);
note = dehi;
unicode = 05AD;
},
{
glyphname = tsinor;
lastChange = "2018-07-29 14:56:13 +0000";
layers = (
{
layerId = "BE590684-9836-437F-B2F3-AE785A4EA4BE";
paths = (
{
closed = 1;
nodes = (
"-325 1364 OFFCURVE",
"-355 1327 OFFCURVE",
"-377 1327 QCURVE SMOOTH",
"-393 1327 OFFCURVE",
"-419 1353 OFFCURVE",
"-435 1380 QCURVE",
"-451 1411 LINE SMOOTH",
"-479 1467 OFFCURVE",
"-539 1523 OFFCURVE",
"-583 1523 QCURVE SMOOTH",
"-633 1523 OFFCURVE",
"-704 1442 OFFCURVE",
"-704 1378 QCURVE SMOOTH",
"-704 1329 OFFCURVE",
"-640 1246 OFFCURVE",
"-587 1228 QCURVE",
"-587 1315 LINE",
"-633 1334 OFFCURVE",
"-633 1379 QCURVE SMOOTH",
"-633 1408 OFFCURVE",
"-603 1445 OFFCURVE",
"-581 1445 QCURVE SMOOTH",
"-549 1445 OFFCURVE",
"-522 1390 QCURVE SMOOTH",
"-506 1360 LINE SMOOTH",
"-494 1336 OFFCURVE",
"-476 1306 OFFCURVE",
"-443 1267 OFFCURVE",
"-400 1247 OFFCURVE",
"-374 1247 QCURVE SMOOTH",
"-326 1247 OFFCURVE",
"-254 1328 OFFCURVE",
"-254 1393 QCURVE SMOOTH",
"-254 1449 OFFCURVE",
"-325 1530 OFFCURVE",
"-367 1544 QCURVE",
"-367 1455 LINE",
"-325 1435 OFFCURVE",
"-325 1392 QCURVE SMOOTH"
);
}
);
width = 0;
}
);
note = tsinor;
unicode = 05AE;
},
{
glyphname = masoracircle;
lastChange = "2018-07-29 14:56:13 +0000";
layers = (
{
layerId = "BE590684-9836-437F-B2F3-AE785A4EA4BE";
paths = (
{
closed = 1;
nodes = (
"166 1583 OFFCURVE",
"68 1696 OFFCURVE",
"0 1696 QCURVE SMOOTH",
"-70 1696 OFFCURVE",
"-166 1579 OFFCURVE",
"-166 1501 QCURVE SMOOTH",
"-166 1420 OFFCURVE",
"-69 1306 OFFCURVE",
"69 1306 OFFCURVE",
"166 1420 OFFCURVE",
"166 1501 QCURVE SMOOTH"
);
},
{
closed = 1;
nodes = (
"47 1643 OFFCURVE",
"116 1563 OFFCURVE",
"116 1439 OFFCURVE",
"47 1359 OFFCURVE",
"-47 1359 OFFCURVE",
"-116 1441 OFFCURVE",
"-116 1501 QCURVE SMOOTH",
"-116 1562 OFFCURVE",
"-48 1643 OFFCURVE",
"0 1643 QCURVE SMOOTH"
);
}
);
width = 0;
}
);
note = masoracircle;
unicode = 05AF;
},
{
glyphname = sheva;
lastChange = "2018-07-29 14:56:13 +0000";
layers = (
{
layerId = "BE590684-9836-437F-B2F3-AE785A4EA4BE";
paths = (
{
closed = 1;
nodes = (
"-100 -587 OFFCURVE",
"-60 -541 OFFCURVE",
"-60 -505 QCURVE SMOOTH",
"-60 -470 OFFCURVE",
"-99 -423 OFFCURVE",
"-130 -423 QCURVE SMOOTH",
"-160 -423 OFFCURVE",
"-200 -469 OFFCURVE",
"-200 -505 QCURVE SMOOTH",
"-200 -540 OFFCURVE",
"-161 -587 OFFCURVE",
"-130 -587 QCURVE SMOOTH"
);
},
{
closed = 1;
nodes = (
"-100 -333 OFFCURVE",
"-60 -287 OFFCURVE",
"-60 -251 QCURVE SMOOTH",
"-60 -216 OFFCURVE",
"-99 -169 OFFCURVE",
"-130 -169 QCURVE SMOOTH",
"-160 -169 OFFCURVE",
"-200 -215 OFFCURVE",
"-200 -251 QCURVE SMOOTH",
"-200 -286 OFFCURVE",
"-161 -333 OFFCURVE",
"-130 -333 QCURVE SMOOTH"
);
}
);
width = 0;
}
);
note = sheva;
unicode = 05B0;
},
{
glyphname = hatafsegol;
lastChange = "2018-07-29 14:56:13 +0000";
layers = (
{
layerId = "BE590684-9836-437F-B2F3-AE785A4EA4BE";
paths = (
{
closed = 1;
nodes = (
"265 -587 OFFCURVE",
"304 -541 OFFCURVE",
"304 -505 QCURVE SMOOTH",
"304 -470 OFFCURVE",
"265 -423 OFFCURVE",
"205 -423 OFFCURVE",
"165 -469 OFFCURVE",
"165 -505 QCURVE SMOOTH",
"165 -540 OFFCURVE",
"204 -587 OFFCURVE",
"235 -587 QCURVE SMOOTH"
);
},
{
closed = 1;
nodes = (
"265 -333 OFFCURVE",
"304 -287 OFFCURVE",
"304 -251 QCURVE SMOOTH",
"304 -216 OFFCURVE",
"265 -169 OFFCURVE",
"205 -169 OFFCURVE",
"165 -215 OFFCURVE",
"165 -251 QCURVE SMOOTH",
"165 -286 OFFCURVE",
"204 -333 OFFCURVE",
"235 -333 QCURVE SMOOTH"
);
},
{
closed = 1;
nodes = (
"-27 -169 OFFCURVE",
"-67 -215 OFFCURVE",
"-67 -251 QCURVE SMOOTH",
"-67 -286 OFFCURVE",
"-28 -333 OFFCURVE",
"3 -333 QCURVE SMOOTH",
"33 -333 OFFCURVE",
"72 -287 OFFCURVE",
"72 -251 QCURVE SMOOTH",
"72 -216 OFFCURVE",
"33 -169 OFFCURVE",
"3 -169 QCURVE SMOOTH"
);
},
{
closed = 1;
nodes = (
"-146 -423 OFFCURVE",
"-185 -469 OFFCURVE",
"-185 -505 QCURVE SMOOTH",
"-185 -540 OFFCURVE",
"-146 -587 OFFCURVE",
"-86 -587 OFFCURVE",
"-46 -541 OFFCURVE",
"-46 -505 QCURVE SMOOTH",
"-46 -470 OFFCURVE",
"-85 -423 OFFCURVE",
"-116 -423 QCURVE SMOOTH"
);
},
{
closed = 1;
nodes = (
"-264 -169 OFFCURVE",
"-303 -215 OFFCURVE",
"-303 -251 QCURVE SMOOTH",
"-303 -286 OFFCURVE",
"-264 -333 OFFCURVE",
"-204 -333 OFFCURVE",
"-164 -287 OFFCURVE",
"-164 -251 QCURVE SMOOTH",
"-164 -216 OFFCURVE",
"-203 -169 OFFCURVE",
"-234 -169 QCURVE SMOOTH"
);
}
);
width = 0;
}
);
note = hatafsegol;
unicode = 05B1;
},
{
glyphname = hatafpatah;
lastChange = "2018-07-29 14:56:13 +0000";
layers = (
{
layerId = "BE590684-9836-437F-B2F3-AE785A4EA4BE";
paths = (
{
closed = 1;
nodes = (
"35 -194 LINE",
"-263 -194 LINE",
"-263 -288 LINE",
"35 -288 LINE"
);
},
{
closed = 1;
nodes = (
"231 -587 OFFCURVE",
"271 -541 OFFCURVE",
"271 -505 QCURVE SMOOTH",
"271 -470 OFFCURVE",
"232 -423 OFFCURVE",
"201 -423 QCURVE SMOOTH",
"171 -423 OFFCURVE",
"132 -469 OFFCURVE",
"132 -505 QCURVE SMOOTH",
"132 -540 OFFCURVE",
"171 -587 OFFCURVE",
"201 -587 QCURVE SMOOTH"
);
},
{
closed = 1;
nodes = (
"231 -333 OFFCURVE",
"271 -287 OFFCURVE",
"271 -251 QCURVE SMOOTH",
"271 -216 OFFCURVE",
"232 -169 OFFCURVE",
"201 -169 QCURVE SMOOTH",
"171 -169 OFFCURVE",
"132 -215 OFFCURVE",
"132 -251 QCURVE SMOOTH",
"132 -286 OFFCURVE",
"171 -333 OFFCURVE",
"201 -333 QCURVE SMOOTH"
);
}
);
width = 0;
}
);
note = hatafpatah;
unicode = 05B2;
},
{
glyphname = hatafqamats;
lastChange = "2018-07-29 14:56:13 +0000";
layers = (
{
layerId = "BE590684-9836-437F-B2F3-AE785A4EA4BE";
paths = (
{
closed = 1;
nodes = (
"-143 -322 OFFCURVE",
"-143 -322 QCURVE",
"-143 -326 OFFCURVE",
"-143 -326 QCURVE",
"-143 -383 OFFCURVE",
"-155 -410 QCURVE",
"-191 -500 LINE",
"-173 -559 OFFCURVE",
"-143 -584 QCURVE",
"-124 -590 OFFCURVE",
"-101 -584 QCURVE",
"-74 -557 OFFCURVE",
"-51 -500 QCURVE",
"-87 -410 LINE SMOOTH",
"-101 -373 OFFCURVE",
"-101 -324 QCURVE SMOOTH",
"-101 -322 LINE",
"-101 -288 LINE",
"27 -288 LINE",
"27 -194 LINE",
"-269 -194 LINE",
"-269 -288 LINE",
"-143 -288 LINE"
);
},
{
closed = 1;
nodes = (
"224 -587 OFFCURVE",
"264 -541 OFFCURVE",
"264 -505 QCURVE SMOOTH",
"264 -470 OFFCURVE",
"225 -423 OFFCURVE",
"194 -423 QCURVE SMOOTH",
"164 -423 OFFCURVE",
"125 -469 OFFCURVE",
"125 -505 QCURVE SMOOTH",
"125 -540 OFFCURVE",
"164 -587 OFFCURVE",
"194 -587 QCURVE SMOOTH"
);
},
{
closed = 1;
nodes = (
"224 -333 OFFCURVE",
"264 -287 OFFCURVE",
"264 -251 QCURVE SMOOTH",
"264 -216 OFFCURVE",
"225 -169 OFFCURVE",
"194 -169 QCURVE SMOOTH",
"164 -169 OFFCURVE",
"125 -215 OFFCURVE",
"125 -251 QCURVE SMOOTH",
"125 -286 OFFCURVE",
"164 -333 OFFCURVE",
"194 -333 QCURVE SMOOTH"
);
}
);
width = 0;
}
);
note = hatafqamats;
unicode = 05B3;
},
{
glyphname = hiriq;
lastChange = "2018-07-29 14:56:13 +0000";
layers = (
{
layerId = "BE590684-9836-437F-B2F3-AE785A4EA4BE";
paths = (
{
closed = 1;
nodes = (
"-238 -333 OFFCURVE",
"-198 -287 OFFCURVE",
"-198 -251 QCURVE SMOOTH",
"-198 -216 OFFCURVE",
"-237 -169 OFFCURVE",
"-268 -169 QCURVE SMOOTH",
"-298 -169 OFFCURVE",
"-338 -215 OFFCURVE",
"-338 -251 QCURVE SMOOTH",
"-338 -286 OFFCURVE",
"-299 -333 OFFCURVE",
"-268 -333 QCURVE SMOOTH"
);
}
);
width = 0;
}
);
note = hiriq;
unicode = 05B4;
},
{
glyphname = tsere;
lastChange = "2018-07-29 14:56:13 +0000";
layers = (
{
layerId = "BE590684-9836-437F-B2F3-AE785A4EA4BE";
paths = (
{
closed = 1;
nodes = (
"178 -216 OFFCURVE",
"139 -169 OFFCURVE",
"108 -169 QCURVE SMOOTH",
"78 -169 OFFCURVE",
"38 -215 OFFCURVE",
"38 -251 QCURVE SMOOTH",
"38 -286 OFFCURVE",
"77 -333 OFFCURVE",
"108 -333 QCURVE SMOOTH",
"138 -333 OFFCURVE",
"178 -287 OFFCURVE",
"178 -251 QCURVE SMOOTH"
);
},
{
closed = 1;
nodes = (
"-38 -216 OFFCURVE",
"-77 -169 OFFCURVE",
"-108 -169 QCURVE SMOOTH",
"-138 -169 OFFCURVE",
"-178 -215 OFFCURVE",
"-178 -251 QCURVE SMOOTH",
"-178 -286 OFFCURVE",
"-139 -333 OFFCURVE",
"-108 -333 QCURVE SMOOTH",
"-78 -333 OFFCURVE",
"-38 -287 OFFCURVE",
"-38 -251 QCURVE SMOOTH"
);
}
);
width = 0;
}
);
note = tsere;
unicode = 05B5;
},
{
glyphname = segol;
lastChange = "2018-07-29 14:56:13 +0000";
layers = (
{
layerId = "BE590684-9836-437F-B2F3-AE785A4EA4BE";
paths = (
{
closed = 1;
nodes = (
"88 -169 OFFCURVE",
"48 -215 OFFCURVE",
"48 -251 QCURVE SMOOTH",
"48 -286 OFFCURVE",
"87 -333 OFFCURVE",
"118 -333 QCURVE SMOOTH",
"148 -333 OFFCURVE",
"188 -287 OFFCURVE",
"188 -251 QCURVE SMOOTH",
"188 -216 OFFCURVE",
"149 -169 OFFCURVE",
"118 -169 QCURVE SMOOTH"
);
},
{
closed = 1;
nodes = (
"-30 -413 OFFCURVE",
"-70 -459 OFFCURVE",
"-70 -495 QCURVE SMOOTH",
"-70 -530 OFFCURVE",
"-31 -577 OFFCURVE",
"0 -577 QCURVE SMOOTH",
"30 -577 OFFCURVE",
"70 -531 OFFCURVE",
"70 -495 QCURVE SMOOTH",
"70 -460 OFFCURVE",
"31 -413 OFFCURVE",
"0 -413 QCURVE SMOOTH"
);
},
{
closed = 1;
nodes = (
"-148 -169 OFFCURVE",
"-188 -215 OFFCURVE",
"-188 -251 QCURVE SMOOTH",
"-188 -286 OFFCURVE",
"-149 -333 OFFCURVE",
"-118 -333 QCURVE SMOOTH",
"-88 -333 OFFCURVE",
"-48 -287 OFFCURVE",
"-48 -251 QCURVE SMOOTH",
"-48 -216 OFFCURVE",
"-87 -169 OFFCURVE",
"-118 -169 QCURVE SMOOTH"
);
}
);
width = 0;
}
);
note = segol;
unicode = 05B6;
},
{
glyphname = patah;
lastChange = "2018-07-29 14:56:13 +0000";
layers = (
{
layerId = "BE590684-9836-437F-B2F3-AE785A4EA4BE";
paths = (
{
closed = 1;
nodes = (
"149 -194 LINE",
"-150 -194 LINE",
"-150 -288 LINE",
"149 -288 LINE"
);
}
);
width = 0;
}
);
note = patah;
unicode = 05B7;
},
{
glyphname = qamats;
lastChange = "2018-07-29 14:56:13 +0000";
layers = (
{
layerId = "BE590684-9836-437F-B2F3-AE785A4EA4BE";
paths = (
{
closed = 1;
nodes = (
"-21 -323 OFFCURVE",
"-21 -323 QCURVE",
"-21 -326 OFFCURVE",
"-21 -326 QCURVE",
"-21 -385 OFFCURVE",
"-34 -410 QCURVE",
"-69 -500 LINE",
"-50 -560 OFFCURVE",
"-21 -584 QCURVE",
"-2 -590 OFFCURVE",
"20 -585 QCURVE",
"50 -555 OFFCURVE",
"70 -500 QCURVE",
"34 -410 LINE",
"21 -371 OFFCURVE",
"21 -325 QCURVE SMOOTH",
"21 -322 OFFCURVE",
"21 -322 QCURVE",
"21 -288 LINE",
"149 -288 LINE",
"149 -194 LINE",
"-148 -194 LINE",
"-148 -288 LINE",
"-21 -288 LINE"
);
}
);
width = 0;
}
);
note = qamats;
unicode = 05B8;
},
{
glyphname = holam;
lastChange = "2018-07-29 14:56:13 +0000";
layers = (
{
layerId = "BE590684-9836-437F-B2F3-AE785A4EA4BE";
paths = (
{
closed = 1;
nodes = (
"-200 1222 OFFCURVE",
"-160 1268 OFFCURVE",
"-160 1304 QCURVE SMOOTH",
"-160 1339 OFFCURVE",
"-199 1386 OFFCURVE",
"-230 1386 QCURVE SMOOTH",
"-260 1386 OFFCURVE",
"-300 1340 OFFCURVE",
"-300 1304 QCURVE SMOOTH",
"-300 1269 OFFCURVE",
"-261 1222 OFFCURVE",
"-230 1222 QCURVE SMOOTH"
);
}
);
width = 0;
}
);
note = holam;
unicode = 05B9;
},
{
glyphname = holamhaser;
lastChange = "2018-07-29 14:56:13 +0000";
layers = (
{
layerId = "BE590684-9836-437F-B2F3-AE785A4EA4BE";
paths = (
{
closed = 1;
nodes = (
"-200 1222 OFFCURVE",
"-160 1268 OFFCURVE",
"-160 1304 QCURVE SMOOTH",
"-160 1339 OFFCURVE",
"-199 1386 OFFCURVE",
"-230 1386 QCURVE SMOOTH",
"-260 1386 OFFCURVE",
"-300 1340 OFFCURVE",
"-300 1304 QCURVE SMOOTH",
"-300 1269 OFFCURVE",
"-261 1222 OFFCURVE",
"-230 1222 QCURVE SMOOTH"
);
}
);
width = 0;
}
);
note = holamhaser;
unicode = 05BA;
},
{
glyphname = qubuts;
lastChange = "2018-07-29 14:56:13 +0000";
layers = (
{
layerId = "BE590684-9836-437F-B2F3-AE785A4EA4BE";
paths = (
{
closed = 1;
nodes = (
"-130 -323 OFFCURVE",
"-90 -279 OFFCURVE",
"-90 -244 QCURVE SMOOTH",
"-90 -210 OFFCURVE",
"-128 -164 OFFCURVE",
"-158 -164 QCURVE SMOOTH",
"-187 -164 OFFCURVE",
"-225 -210 OFFCURVE",
"-225 -244 QCURVE SMOOTH",
"-225 -277 OFFCURVE",
"-187 -323 OFFCURVE",
"-158 -323 QCURVE SMOOTH"
);
},
{
closed = 1;
nodes = (
"186 -591 OFFCURVE",
"225 -547 OFFCURVE",
"225 -512 QCURVE SMOOTH",
"225 -478 OFFCURVE",
"187 -432 OFFCURVE",
"157 -432 QCURVE SMOOTH",
"128 -432 OFFCURVE",
"90 -478 OFFCURVE",
"90 -512 QCURVE SMOOTH",
"90 -545 OFFCURVE",
"128 -591 OFFCURVE",
"157 -591 QCURVE SMOOTH"
);
},
{
closed = 1;
nodes = (
"28 -457 OFFCURVE",
"68 -413 OFFCURVE",
"68 -378 QCURVE SMOOTH",
"68 -344 OFFCURVE",
"30 -298 OFFCURVE",
"0 -298 QCURVE SMOOTH",
"-29 -298 OFFCURVE",
"-67 -344 OFFCURVE",
"-67 -378 QCURVE SMOOTH",
"-67 -411 OFFCURVE",
"-29 -457 OFFCURVE",
"0 -457 QCURVE SMOOTH"
);
}
);
width = 0;
}
);
note = qubuts;
unicode = 05BB;
},
{
glyphname = dagesh;
lastChange = "2018-07-29 14:56:13 +0000";
layers = (
{
layerId = "BE590684-9836-437F-B2F3-AE785A4EA4BE";
paths = (
{
closed = 1;
nodes = (
"30 437 OFFCURVE",
"70 483 OFFCURVE",
"70 519 QCURVE SMOOTH",
"70 554 OFFCURVE",
"31 601 OFFCURVE",
"0 601 QCURVE SMOOTH",
"-30 601 OFFCURVE",
"-70 555 OFFCURVE",
"-70 519 QCURVE SMOOTH",
"-70 484 OFFCURVE",
"-31 437 OFFCURVE",
"0 437 QCURVE SMOOTH"
);
}
);
width = 0;
}
);
note = dagesh;
unicode = 05BC;
},
{
glyphname = meteg;
lastChange = "2018-07-29 14:56:13 +0000";
layers = (
{
layerId = "BE590684-9836-437F-B2F3-AE785A4EA4BE";
paths = (
{
closed = 1;
nodes = (
"-77 -182 LINE",
"-150 -182 LINE",
"-150 -572 LINE",
"-77 -572 LINE"
);
}
);
width = 0;
}
);
note = meteg;
unicode = 05BD;
},
{
glyphname = makaf;
lastChange = "2018-07-29 14:56:13 +0000";
layers = (
{
layerId = "BE590684-9836-437F-B2F3-AE785A4EA4BE";
paths = (
{
closed = 1;
nodes = (
"127 1050 LINE",
"123 1045 OFFCURVE",
"99 1014 OFFCURVE",
"87 996 OFFCURVE",
"68 966 OFFCURVE",
"53 933 OFFCURVE",
"47 914 QCURVE",
"39 908 OFFCURVE",
"39 887 QCURVE SMOOTH",
"39 865 OFFCURVE",
"68 828 OFFCURVE",
"100 828 QCURVE SMOOTH",
"478 828 LINE",
"537 883 OFFCURVE",
"570 965 QCURVE",
"582 985 OFFCURVE",
"582 1005 QCURVE SMOOTH",
"582 1026 OFFCURVE",
"552 1050 OFFCURVE",
"527 1050 QCURVE SMOOTH"
);
}
);
width = 631;
}
);
note = makaf;
unicode = 05BE;
},
{
glyphname = rafe;
lastChange = "2018-07-29 14:56:13 +0000";
layers = (
{
layerId = "BE590684-9836-437F-B2F3-AE785A4EA4BE";
paths = (
{
closed = 1;
nodes = (
"194 1318 LINE",
"-194 1318 LINE",
"-194 1224 LINE",
"194 1224 LINE"
);
}
);
width = 0;
}
);
note = rafe;
unicode = 05BF;
},
{
glyphname = paseq;
lastChange = "2018-07-29 14:56:13 +0000";
layers = (
{
layerId = "BE590684-9836-437F-B2F3-AE785A4EA4BE";
paths = (
{
closed = 1;
nodes = (
"330 1230 LINE",
"207 1230 LINE",
"207 -163 LINE",
"330 -163 LINE"
);
}
);
width = 589;
}
);
note = paseq;
unicode = 05C0;
},
{
glyphname = shindot;
lastChange = "2018-07-29 14:56:13 +0000";
layers = (
{
layerId = "BE590684-9836-437F-B2F3-AE785A4EA4BE";
paths = (
{
closed = 1;
nodes = (
"418 1222 OFFCURVE",
"458 1268 OFFCURVE",
"458 1304 QCURVE SMOOTH",
"458 1339 OFFCURVE",
"419 1386 OFFCURVE",
"388 1386 QCURVE SMOOTH",
"358 1386 OFFCURVE",
"318 1340 OFFCURVE",
"318 1304 QCURVE SMOOTH",
"318 1269 OFFCURVE",
"357 1222 OFFCURVE",
"388 1222 QCURVE SMOOTH"
);
}
);
width = 0;
}
);
note = shindot;
unicode = 05C1;
},
{
glyphname = sindot;
lastChange = "2018-07-29 14:56:13 +0000";
layers = (
{
layerId = "BE590684-9836-437F-B2F3-AE785A4EA4BE";
paths = (
{
closed = 1;
nodes = (
"-390 1222 OFFCURVE",
"-350 1268 OFFCURVE",
"-350 1304 QCURVE SMOOTH",
"-350 1339 OFFCURVE",
"-389 1386 OFFCURVE",
"-420 1386 QCURVE SMOOTH",
"-450 1386 OFFCURVE",
"-490 1340 OFFCURVE",
"-490 1304 QCURVE SMOOTH",
"-490 1269 OFFCURVE",
"-451 1222 OFFCURVE",
"-420 1222 QCURVE SMOOTH"
);
}
);
width = 0;
}
);
note = sindot;
unicode = 05C2;
},
{
glyphname = sofpasuq;
lastChange = "2018-07-29 14:56:13 +0000";
layers = (
{
layerId = "BE590684-9836-437F-B2F3-AE785A4EA4BE";
paths = (
{
closed = 1;
nodes = (
"185 982 OFFCURVE",
"178 970 QCURVE",
"140 913 OFFCURVE",
"80 802 QCURVE SMOOTH",
"74 791 OFFCURVE",
"80 783 QCURVE",
"110 749 OFFCURVE",
"217 663 OFFCURVE",
"238 663 QCURVE SMOOTH",
"244 663 OFFCURVE",
"247 668 QCURVE SMOOTH",
"293 751 LINE",
"343 832 LINE",
"345 835 OFFCURVE",
"345 844 QCURVE SMOOTH",
"345 852 OFFCURVE",
"317 869 OFFCURVE",
"240 927 OFFCURVE",
"197 973 QCURVE"
);
},
{
closed = 1;
nodes = (
"185 301 OFFCURVE",
"178 289 QCURVE",
"140 232 OFFCURVE",
"80 121 QCURVE SMOOTH",
"74 110 OFFCURVE",
"80 102 QCURVE",
"110 68 OFFCURVE",
"217 -18 OFFCURVE",
"238 -18 QCURVE SMOOTH",
"244 -18 OFFCURVE",
"247 -13 QCURVE SMOOTH",
"293 70 LINE",
"343 151 LINE SMOOTH",
"346 156 OFFCURVE",
"345 164 QCURVE",
"344 169 OFFCURVE",
"333 178 OFFCURVE",
"309 194 OFFCURVE",
"277 216 OFFCURVE",
"225 262 OFFCURVE",
"197 292 QCURVE"
);
}
);
width = 490;
}
);
note = sofpasuq;
unicode = 05C3;
},
{
glyphname = upperdot;
lastChange = "2018-07-29 14:56:13 +0000";
layers = (
{
layerId = "BE590684-9836-437F-B2F3-AE785A4EA4BE";
paths = (
{
closed = 1;
nodes = (
"-4 1997 LINE",
"-134 1835 LINE",
"0 1674 LINE",
"132 1831 LINE"
);
}
);
width = 0;
}
);
note = upperdot;
unicode = 05C4;
},
{
glyphname = lowerdot;
lastChange = "2018-07-29 14:56:13 +0000";
layers = (
{
layerId = "BE590684-9836-437F-B2F3-AE785A4EA4BE";
paths = (
{
closed = 1;
nodes = (
"-4 -620 LINE",
"-134 -782 LINE",
"0 -943 LINE",
"132 -786 LINE"
);
}
);
width = 0;
}
);
note = lowerdot;
unicode = 05C5;
},
{
glyphname = nunhapukha;
lastChange = "2018-07-29 14:56:13 +0000";
layers = (
{
layerId = "BE590684-9836-437F-B2F3-AE785A4EA4BE";
paths = (
{
closed = 1;
nodes = (
"510 1083 OFFCURVE",
"440 1061 OFFCURVE",
"388 1061 QCURVE SMOOTH",
"376 1061 OFFCURVE",
"323 1062 OFFCURVE",
"309 1062 QCURVE",
"306 1060 OFFCURVE",
"297 1060 QCURVE SMOOTH",
"282 1060 OFFCURVE",
"188 1085 OFFCURVE",
"175 1085 QCURVE SMOOTH",
"170 1085 OFFCURVE",
"166 1083 QCURVE",
"149 1056 OFFCURVE",
"129 933 OFFCURVE",
"119 840 OFFCURVE",
"115 840 QCURVE",
"150 818 OFFCURVE",
"204 818 QCURVE SMOOTH",
"248 818 OFFCURVE",
"250 825 QCURVE",
"250 821 LINE SMOOTH",
"250 805 OFFCURVE",
"208 702 OFFCURVE",
"208 690 QCURVE SMOOTH",
"208 614 OFFCURVE",
"169 444 OFFCURVE",
"111 255 OFFCURVE",
"101 203 QCURVE",
"106 178 LINE SMOOTH",
"111 152 OFFCURVE",
"130 89 OFFCURVE",
"139 76 QCURVE",
"177 52 OFFCURVE",
"257 16 OFFCURVE",
"352 -11 OFFCURVE",
"411 -25 OFFCURVE",
"528 -47 OFFCURVE",
"550 -52 QCURVE",
"576 0 OFFCURVE",
"576 46 QCURVE SMOOTH",
"576 108 OFFCURVE",
"526 168 QCURVE",
"398 168 OFFCURVE",
"283 239 QCURVE",
"300 366 LINE SMOOTH",
"307 424 OFFCURVE",
"307 504 QCURVE SMOOTH",
"307 549 LINE SMOOTH",
"307 682 OFFCURVE",
"331 789 QCURVE",
"380 826 OFFCURVE",
"435 846 OFFCURVE",
"468 846 QCURVE SMOOTH",
"496 846 OFFCURVE",
"496 846 QCURVE",
"532 923 OFFCURVE",
"532 1116 QCURVE"
);
}
);
width = 651;
}
);
note = nunhapukha;
unicode = 05C6;
},
{
glyphname = qamatsqatan;
lastChange = "2018-07-29 14:56:13 +0000";
layers = (
{
layerId = "BE590684-9836-437F-B2F3-AE785A4EA4BE";
paths = (
{
closed = 1;
nodes = (
"-23 -322 OFFCURVE",
"-23 -322 QCURVE",
"-23 -326 OFFCURVE",
"-23 -326 QCURVE",
"-23 -440 OFFCURVE",
"-33 -460 QCURVE",
"-68 -550 LINE",
"-51 -610 OFFCURVE",
"-23 -634 QCURVE",
"-5 -640 OFFCURVE",
"21 -636 QCURVE",
"50 -607 OFFCURVE",
"71 -550 QCURVE",
"35 -460 LINE SMOOTH",
"24 -431 OFFCURVE",
"24 -324 QCURVE SMOOTH",
"24 -320 OFFCURVE",
"24 -320 QCURVE",
"24 -278 LINE",
"148 -278 LINE",
"148 -184 LINE",
"-148 -184 LINE",
"-148 -278 LINE",
"-23 -278 LINE"
);
}
);
width = 0;
}
);
note = qamatsqatan;
unicode = 05C7;
},
{
glyphname = alef;
lastChange = "2018-07-29 14:56:13 +0000";
layers = (
{
layerId = "BE590684-9836-437F-B2F3-AE785A4EA4BE";
paths = (
{
closed = 1;
nodes = (
"849 505 OFFCURVE",
"905 678 OFFCURVE",
"905 775 QCURVE",
"953 767 LINE",
"1012 817 OFFCURVE",
"1057 943 QCURVE",
"918 1022 OFFCURVE",
"841 1123 QCURVE",
"833 1110 OFFCURVE",
"819 1086 OFFCURVE",
"804 1058 OFFCURVE",
"794 1039 OFFCURVE",
"780 1007 OFFCURVE",
"774 993 OFFCURVE",
"758 956 OFFCURVE",
"755 947 OFFCURVE",
"738 906 OFFCURVE",
"737 903 QCURVE",
"819 848 OFFCURVE",
"819 760 QCURVE SMOOTH",
"819 629 OFFCURVE",
"715 552 QCURVE",
"594 706 OFFCURVE",
"426 960 OFFCURVE",
"375 1092 QCURVE",
"235 924 LINE",
"320 827 LINE",
"250 720 OFFCURVE",
"169 507 OFFCURVE",
"169 383 QCURVE SMOOTH",
"169 324 OFFCURVE",
"238 187 OFFCURVE",
"288 141 QCURVE",
"286 138 OFFCURVE",
"259 103 OFFCURVE",
"251 92 OFFCURVE",
"231 61 OFFCURVE",
"222 41 OFFCURVE",
"210 10 OFFCURVE",
"206 -5 QCURVE",
"226 -49 LINE",
"287 -15 OFFCURVE",
"352 17 OFFCURVE",
"461 51 OFFCURVE",
"510 51 QCURVE",
"550 287 LINE",
"507 260 OFFCURVE",
"467 260 QCURVE SMOOTH",
"429 260 OFFCURVE",
"345 300 OFFCURVE",
"277 390 OFFCURVE",
"277 447 QCURVE SMOOTH",
"277 533 OFFCURVE",
"356 650 OFFCURVE",
"399 650 QCURVE",
"414 647 OFFCURVE",
"439 629 OFFCURVE",
"449 615 OFFCURVE",
"460 595 OFFCURVE",
"461 594 QCURVE",
"565 433 OFFCURVE",
"804 153 OFFCURVE",
"981 -9 QCURVE",
"983 -9 OFFCURVE",
"1010 58 OFFCURVE",
"1044 171 OFFCURVE",
"1053 219 QCURVE",
"962 292 OFFCURVE",
"858 386 OFFCURVE",
"797 458 QCURVE"
);
}
);
width = 1115;
}
);
note = alef;
unicode = 05D0;
},
{
glyphname = bet;
lastChange = "2018-07-29 14:56:13 +0000";
layers = (
{
layerId = "BE590684-9836-437F-B2F3-AE785A4EA4BE";
paths = (
{
closed = 1;
nodes = (
"378 151 OFFCURVE",
"240 151 QCURVE SMOOTH",
"205 151 OFFCURVE",
"178 154 QCURVE",
"132 20 OFFCURVE",
"132 -75 QCURVE",
"269 -75 OFFCURVE",
"512 -51 OFFCURVE",
"853 5 OFFCURVE",
"904 12 QCURVE",
"913 28 OFFCURVE",
"927 62 OFFCURVE",
"939 103 OFFCURVE",
"947 133 OFFCURVE",
"956 180 OFFCURVE",
"960 203 OFFCURVE",
"969 255 OFFCURVE",
"970 262 QCURVE",
"856 242 LINE",
"840 286 OFFCURVE",
"823 410 OFFCURVE",
"821 501 OFFCURVE",
"821 590 QCURVE SMOOTH",
"821 648 LINE SMOOTH",
"821 695 OFFCURVE",
"820 758 OFFCURVE",
"817 842 OFFCURVE",
"809 897 OFFCURVE",
"796 960 OFFCURVE",
"776 1000 OFFCURVE",
"749 1036 OFFCURVE",
"712 1052 OFFCURVE",
"688 1052 QCURVE",
"626 1042 OFFCURVE",
"530 1042 QCURVE SMOOTH",
"460 1042 LINE SMOOTH",
"377 1042 OFFCURVE",
"288 1140 QCURVE",
"222 1074 OFFCURVE",
"192 956 QCURVE",
"220 928 LINE",
"252 828 LINE",
"632 828 LINE",
"665 815 OFFCURVE",
"694 752 OFFCURVE",
"694 722 QCURVE SMOOTH",
"694 210 LINE"
);
}
);
width = 995;
}
);
note = bet;
unicode = 05D1;
},
{
glyphname = gimel;
lastChange = "2018-07-29 14:56:13 +0000";
layers = (
{
layerId = "BE590684-9836-437F-B2F3-AE785A4EA4BE";
paths = (
{
closed = 1;
nodes = (
"345 1065 OFFCURVE",
"299 1121 OFFCURVE",
"298 1128 QCURVE",
"261 1102 OFFCURVE",
"212 1045 OFFCURVE",
"196 1001 QCURVE",
"196 962 LINE",
"196 868 LINE",
"233 853 OFFCURVE",
"292 838 OFFCURVE",
"362 827 OFFCURVE",
"376 824 QCURVE",
"363 738 OFFCURVE",
"363 631 QCURVE SMOOTH",
"363 584 OFFCURVE",
"392 438 OFFCURVE",
"410 391 QCURVE",
"224 339 OFFCURVE",
"76 168 OFFCURVE",
"76 -11 QCURVE",
"108 -49 LINE",
"123 -26 OFFCURVE",
"174 52 OFFCURVE",
"199 89 OFFCURVE",
"241 141 OFFCURVE",
"274 164 OFFCURVE",
"320 182 OFFCURVE",
"346 182 QCURVE SMOOTH",
"403 182 OFFCURVE",
"516 62 OFFCURVE",
"564 -52 QCURVE",
"568 -48 OFFCURVE",
"584 -34 OFFCURVE",
"603 -13 OFFCURVE",
"620 7 QCURVE",
"637 60 OFFCURVE",
"648 115 OFFCURVE",
"648 165 QCURVE SMOOTH",
"648 277 OFFCURVE",
"614 307 QCURVE",
"594 314 OFFCURVE",
"562 347 OFFCURVE",
"534 414 OFFCURVE",
"520 455 OFFCURVE",
"492 559 OFFCURVE",
"488 574 QCURVE",
"487 582 OFFCURVE",
"472 661 OFFCURVE",
"472 684 QCURVE SMOOTH",
"472 720 OFFCURVE",
"484 756 QCURVE",
"487 762 OFFCURVE",
"516 809 OFFCURVE",
"530 834 OFFCURVE",
"551 874 OFFCURVE",
"560 903 OFFCURVE",
"560 914 QCURVE SMOOTH",
"560 938 OFFCURVE",
"540 977 OFFCURVE",
"513 1001 OFFCURVE",
"464 1022 OFFCURVE",
"431 1032 OFFCURVE",
"374 1047 OFFCURVE",
"363 1050 QCURVE"
);
}
);
width = 672;
}
);
note = gimel;
unicode = 05D2;
},
{
glyphname = dalet;
lastChange = "2018-07-29 14:56:13 +0000";
layers = (
{
layerId = "BE590684-9836-437F-B2F3-AE785A4EA4BE";
paths = (
{
closed = 1;
nodes = (
"592 770 OFFCURVE",
"592 679 QCURVE SMOOTH",
"592 609 LINE SMOOTH",
"592 599 OFFCURVE",
"604 494 OFFCURVE",
"604 482 QCURVE",
"637 356 OFFCURVE",
"656 148 OFFCURVE",
"656 0 QCURVE",
"680 -22 LINE",
"764 93 OFFCURVE",
"779 173 QCURVE SMOOTH",
"786 205 OFFCURVE",
"786 244 QCURVE SMOOTH",
"786 318 OFFCURVE",
"721 629 OFFCURVE",
"721 685 QCURVE SMOOTH",
"721 735 OFFCURVE",
"809 837 OFFCURVE",
"870 852 QCURVE",
"870 968 OFFCURVE",
"822 1056 QCURVE",
"676 1036 OFFCURVE",
"460 1036 QCURVE SMOOTH",
"429 1036 OFFCURVE",
"395 1037 OFFCURVE",
"379 1039 OFFCURVE",
"338 1044 OFFCURVE",
"316 1046 QCURVE",
"288 1051 OFFCURVE",
"247 1075 OFFCURVE",
"229 1096 OFFCURVE",
"204 1132 OFFCURVE",
"196 1140 QCURVE",
"125 1069 OFFCURVE",
"100 972 QCURVE",
"128 944 LINE",
"159 847 LINE",
"199 827 OFFCURVE",
"374 827 QCURVE SMOOTH",
"528 827 OFFCURVE",
"621 841 QCURVE"
);
}
);
width = 925;
}
);
note = dalet;
unicode = 05D3;
},
{
glyphname = he;
lastChange = "2018-07-29 14:56:13 +0000";
layers = (
{
layerId = "BE590684-9836-437F-B2F3-AE785A4EA4BE";
paths = (
{
closed = 1;
nodes = (
"402 256 OFFCURVE",
"374 330 OFFCURVE",
"369 387 OFFCURVE",
"369 438 QCURVE SMOOTH",
"369 462 LINE SMOOTH",
"369 486 OFFCURVE",
"374 537 OFFCURVE",
"385 599 OFFCURVE",
"394 642 OFFCURVE",
"412 725 OFFCURVE",
"417 746 QCURVE",
"337 654 OFFCURVE",
"247 398 OFFCURVE",
"247 268 QCURVE SMOOTH",
"247 169 OFFCURVE",
"279 -12 QCURVE",
"327 -36 LINE",
"363 22 OFFCURVE",
"429 224 QCURVE"
);
},
{
closed = 1;
nodes = (
"824 790 OFFCURVE",
"810 687 OFFCURVE",
"810 617 QCURVE SMOOTH",
"810 550 LINE",
"827 470 OFFCURVE",
"849 275 OFFCURVE",
"867 47 OFFCURVE",
"873 -7 QCURVE",
"897 -28 LINE",
"981 87 OFFCURVE",
"996 167 QCURVE SMOOTH",
"1003 199 OFFCURVE",
"1003 238 QCURVE SMOOTH",
"1003 312 OFFCURVE",
"938 637 OFFCURVE",
"938 693 QCURVE SMOOTH",
"938 799 OFFCURVE",
"1023 856 QCURVE",
"1023 952 OFFCURVE",
"970 1050 QCURVE",
"781 1024 OFFCURVE",
"669 1024 QCURVE SMOOTH",
"538 1024 OFFCURVE",
"428 1048 QCURVE",
"400 1053 OFFCURVE",
"353 1080 OFFCURVE",
"332 1099 OFFCURVE",
"296 1143 OFFCURVE",
"292 1148 QCURVE",
"221 1077 OFFCURVE",
"196 980 QCURVE",
"224 952 LINE",
"256 850 LINE",
"312 850 OFFCURVE",
"536 832 OFFCURVE",
"592 832 QCURVE SMOOTH",
"730 832 OFFCURVE",
"849 850 QCURVE"
);
}
);
width = 1099;
}
);
note = he;
unicode = 05D4;
},
{
glyphname = vav;
lastChange = "2018-07-29 14:56:13 +0000";
layers = (
{
layerId = "BE590684-9836-437F-B2F3-AE785A4EA4BE";
paths = (
{
closed = 1;
nodes = (
"354 -20 LINE",
"366 -4 OFFCURVE",
"385 34 OFFCURVE",
"398 64 OFFCURVE",
"412 113 OFFCURVE",
"418 137 OFFCURVE",
"431 194 OFFCURVE",
"433 203 QCURVE",
"433 234 OFFCURVE",
"435 426 OFFCURVE",
"435 479 QCURVE SMOOTH",
"435 579 LINE SMOOTH",
"435 630 OFFCURVE",
"434 700 OFFCURVE",
"431 795 OFFCURVE",
"424 859 OFFCURVE",
"412 933 OFFCURVE",
"393 982 OFFCURVE",
"369 1024 OFFCURVE",
"334 1044 OFFCURVE",
"312 1044 QCURVE",
"297 1047 LINE SMOOTH",
"261 1054 OFFCURVE",
"222 1080 OFFCURVE",
"189 1131 OFFCURVE",
"183 1138 QCURVE",
"112 1067 OFFCURVE",
"87 970 QCURVE",
"115 942 LINE",
"147 827 LINE",
"251 827 LINE SMOOTH",
"276 827 OFFCURVE",
"302 801 OFFCURVE",
"307 772 OFFCURVE",
"307 747 QCURVE SMOOTH",
"307 721 OFFCURVE",
"325 119 OFFCURVE",
"325 62 QCURVE"
);
}
);
width = 500;
}
);
note = vav;
unicode = 05D5;
},
{
glyphname = zain;
lastChange = "2018-07-29 14:56:13 +0000";
layers = (
{
layerId = "BE590684-9836-437F-B2F3-AE785A4EA4BE";
paths = (
{
closed = 1;
nodes = (
"113 1095 OFFCURVE",
"94 993 OFFCURVE",
"94 924 QCURVE",
"104 910 OFFCURVE",
"122 890 OFFCURVE",
"144 873 OFFCURVE",
"159 864 OFFCURVE",
"192 845 OFFCURVE",
"202 839 QCURVE",
"212 832 OFFCURVE",
"208 816 QCURVE",
"203 802 OFFCURVE",
"180 734 OFFCURVE",
"170 703 OFFCURVE",
"152 646 OFFCURVE",
"144 613 OFFCURVE",
"134 569 OFFCURVE",
"130 533 OFFCURVE",
"130 517 QCURVE SMOOTH",
"130 484 LINE",
"137 465 OFFCURVE",
"178 348 OFFCURVE",
"190 313 OFFCURVE",
"222 216 OFFCURVE",
"241 149 OFFCURVE",
"270 41 OFFCURVE",
"286 -20 QCURVE",
"350 106 LINE",
"356 133 OFFCURVE",
"372 178 OFFCURVE",
"376 206 OFFCURVE",
"376 242 QCURVE SMOOTH",
"376 315 OFFCURVE",
"349 422 OFFCURVE",
"305 553 OFFCURVE",
"293 624 QCURVE",
"293 641 OFFCURVE",
"273 732 OFFCURVE",
"273 768 QCURVE",
"282 788 OFFCURVE",
"297 788 QCURVE SMOOTH",
"303 788 OFFCURVE",
"313 784 QCURVE",
"456 716 LINE",
"485 814 OFFCURVE",
"485 878 QCURVE SMOOTH",
"485 920 OFFCURVE",
"476 952 QCURVE",
"463 958 OFFCURVE",
"387 993 OFFCURVE",
"357 1009 OFFCURVE",
"291 1046 OFFCURVE",
"245 1080 OFFCURVE",
"180 1134 OFFCURVE",
"146 1167 QCURVE"
);
}
);
width = 517;
}
);
note = zain;
unicode = 05D6;
},
{
glyphname = het;
lastChange = "2018-07-29 14:56:13 +0000";
layers = (
{
layerId = "BE590684-9836-437F-B2F3-AE785A4EA4BE";
paths = (
{
closed = 1;
nodes = (
"274 753 OFFCURVE",
"260 650 OFFCURVE",
"260 580 QCURVE SMOOTH",
"260 513 LINE",
"281 412 OFFCURVE",
"281 250 QCURVE SMOOTH",
"281 218 OFFCURVE",
"276 45 OFFCURVE",
"276 -18 QCURVE",
"300 -39 LINE",
"395 91 OFFCURVE",
"407 155 QCURVE SMOOTH",
"414 187 OFFCURVE",
"414 226 QCURVE SMOOTH",
"414 300 OFFCURVE",
"388 600 OFFCURVE",
"388 656 QCURVE SMOOTH",
"388 709 OFFCURVE",
"431 807 OFFCURVE",
"476 837 QCURVE",
"506 837 OFFCURVE",
"614 828 OFFCURVE",
"636 828 QCURVE SMOOTH",
"774 828 OFFCURVE",
"893 846 QCURVE",
"867 782 OFFCURVE",
"867 689 QCURVE SMOOTH",
"867 605 LINE SMOOTH",
"867 595 OFFCURVE",
"877 508 OFFCURVE",
"877 496 QCURVE",
"913 323 OFFCURVE",
"913 123 QCURVE SMOOTH",
"913 -18 LINE",
"936 -39 LINE",
"973 12 OFFCURVE",
"1037 165 OFFCURVE",
"1046 213 QCURVE SMOOTH",
"1053 245 OFFCURVE",
"1053 284 QCURVE SMOOTH",
"1053 358 OFFCURVE",
"982 633 OFFCURVE",
"982 689 QCURVE SMOOTH",
"982 795 OFFCURVE",
"1067 852 QCURVE",
"1067 968 OFFCURVE",
"1019 1056 QCURVE",
"844 1032 OFFCURVE",
"717 1032 QCURVE SMOOTH",
"555 1032 OFFCURVE",
"427 1060 QCURVE",
"414 1062 OFFCURVE",
"391 1069 OFFCURVE",
"370 1078 OFFCURVE",
"355 1085 OFFCURVE",
"337 1099 OFFCURVE",
"327 1105 OFFCURVE",
"311 1122 OFFCURVE",
"306 1127 OFFCURVE",
"289 1146 OFFCURVE",
"287 1148 QCURVE",
"216 1077 OFFCURVE",
"191 980 QCURVE",
"219 952 LINE",
"251 852 LINE",
"264 852 OFFCURVE",
"327 846 OFFCURVE",
"344 846 QCURVE",
"299 813 LINE"
);
}
);
width = 1142;
}
);
note = het;
unicode = 05D7;
},
{
glyphname = tet;
lastChange = "2018-07-29 14:56:13 +0000";
layers = (
{
layerId = "BE590684-9836-437F-B2F3-AE785A4EA4BE";
paths = (
{
closed = 1;
nodes = (
"426 883 OFFCURVE",
"426 942 QCURVE SMOOTH",
"426 989 OFFCURVE",
"383 1040 OFFCURVE",
"332 1057 QCURVE",
"251 1123 OFFCURVE",
"242 1174 QCURVE",
"225 1158 OFFCURVE",
"192 1117 OFFCURVE",
"147 1056 OFFCURVE",
"134 1039 QCURVE",
"149 1006 LINE",
"134 898 LINE",
"257 819 LINE",
"257 758 OFFCURVE",
"253 702 OFFCURVE",
"240 661 OFFCURVE",
"239 657 QCURVE",
"239 468 OFFCURVE",
"312 86 OFFCURVE",
"374 -18 QCURVE",
"702 17 OFFCURVE",
"890 190 QCURVE",
"1009 365 OFFCURVE",
"1009 671 QCURVE SMOOTH",
"1009 685 OFFCURVE",
"1010 748 OFFCURVE",
"1010 765 QCURVE SMOOTH",
"1010 865 OFFCURVE",
"972 1005 OFFCURVE",
"914 1048 QCURVE",
"834 1093 OFFCURVE",
"766 1093 QCURVE SMOOTH",
"690 1093 OFFCURVE",
"640 1060 QCURVE SMOOTH",
"608 1038 OFFCURVE",
"575 1008 OFFCURVE",
"531 947 OFFCURVE",
"511 857 OFFCURVE",
"511 795 QCURVE",
"582 776 LINE",
"590 846 OFFCURVE",
"668 907 OFFCURVE",
"718 907 QCURVE SMOOTH",
"727 907 OFFCURVE",
"740 902 QCURVE",
"785 889 OFFCURVE",
"842 831 OFFCURVE",
"867 740 OFFCURVE",
"875 660 OFFCURVE",
"875 601 QCURVE SMOOTH",
"875 525 OFFCURVE",
"846 409 OFFCURVE",
"829 393 QCURVE SMOOTH",
"826 390 OFFCURVE",
"774 341 OFFCURVE",
"763 331 OFFCURVE",
"716 289 OFFCURVE",
"697 277 OFFCURVE",
"654 246 OFFCURVE",
"626 236 OFFCURVE",
"586 219 OFFCURVE",
"548 214 OFFCURVE",
"528 214 QCURVE SMOOTH",
"518 214 OFFCURVE",
"474 218 OFFCURVE",
"463 218 QCURVE SMOOTH",
"459 218 OFFCURVE",
"406 401 OFFCURVE",
"353 659 OFFCURVE",
"353 736 QCURVE SMOOTH",
"353 764 OFFCURVE",
"356 786 QCURVE"
);
}
);
width = 1083;
}
);
note = tet;
unicode = 05D8;
},
{
glyphname = yod;
lastChange = "2018-07-29 14:56:13 +0000";
layers = (
{
layerId = "BE590684-9836-437F-B2F3-AE785A4EA4BE";
paths = (
{
closed = 1;
nodes = (
"232 852 OFFCURVE",
"301 795 OFFCURVE",
"301 743 QCURVE SMOOTH",
"301 730 OFFCURVE",
"297 681 OFFCURVE",
"297 669 QCURVE SMOOTH",
"297 648 OFFCURVE",
"288 538 OFFCURVE",
"288 505 QCURVE",
"352 477 LINE",
"407 646 OFFCURVE",
"432 753 QCURVE SMOOTH",
"438 781 OFFCURVE",
"438 840 QCURVE SMOOTH",
"438 954 OFFCURVE",
"399 990 QCURVE",
"382 1004 OFFCURVE",
"366 1018 OFFCURVE",
"347 1029 OFFCURVE",
"342 1030 OFFCURVE",
"315 1038 OFFCURVE",
"306 1041 QCURVE",
"278 1046 OFFCURVE",
"227 1077 OFFCURVE",
"204 1099 OFFCURVE",
"162 1149 OFFCURVE",
"159 1152 QCURVE",
"99 1092 OFFCURVE",
"67 968 QCURVE",
"93 938 LINE",
"129 852 LINE"
);
}
);
width = 491;
}
);
note = yod;
unicode = 05D9;
},
{
glyphname = finalkaf;
lastChange = "2018-07-29 14:56:13 +0000";
layers = (
{
layerId = "BE590684-9836-437F-B2F3-AE785A4EA4BE";
paths = (
{
closed = 1;
nodes = (
"243 1059 OFFCURVE",
"219 1091 OFFCURVE",
"206 1129 OFFCURVE",
"204 1131 QCURVE",
"133 1060 OFFCURVE",
"108 963 QCURVE",
"136 935 LINE",
"149 870 LINE",
"184 860 OFFCURVE",
"257 846 OFFCURVE",
"304 840 OFFCURVE",
"396 830 OFFCURVE",
"422 827 QCURVE",
"534 827 OFFCURVE",
"653 845 QCURVE",
"571 645 OFFCURVE",
"571 557 QCURVE SMOOTH",
"571 490 LINE",
"580 417 OFFCURVE",
"614 151 OFFCURVE",
"623 74 OFFCURVE",
"639 -79 OFFCURVE",
"642 -180 OFFCURVE",
"642 -246 QCURVE SMOOTH",
"642 -311 OFFCURVE",
"631 -397 QCURVE",
"655 -418 LINE",
"739 -303 OFFCURVE",
"754 -223 QCURVE SMOOTH",
"761 -191 OFFCURVE",
"761 -152 QCURVE",
"765 -117 OFFCURVE",
"765 -70 QCURVE",
"770 -29 OFFCURVE",
"770 27 QCURVE SMOOTH",
"770 102 OFFCURVE",
"733 412 OFFCURVE",
"733 502 QCURVE SMOOTH",
"733 604 OFFCURVE",
"749 697 QCURVE",
"749 781 OFFCURVE",
"853 851 QCURVE",
"853 966 OFFCURVE",
"805 1055 QCURVE",
"630 1031 OFFCURVE",
"503 1031 QCURVE SMOOTH",
"372 1031 OFFCURVE",
"262 1055 QCURVE SMOOTH"
);
}
);
width = 909;
}
);
note = finalkaf;
unicode = 05DA;
},
{
glyphname = kaf;
lastChange = "2018-07-29 14:56:13 +0000";
layers = (
{
layerId = "BE590684-9836-437F-B2F3-AE785A4EA4BE";
paths = (
{
closed = 1;
nodes = (
"776 976 OFFCURVE",
"700 1021 OFFCURVE",
"638 1021 QCURVE SMOOTH",
"616 1021 OFFCURVE",
"516 1014 OFFCURVE",
"489 1014 QCURVE SMOOTH",
"432 1014 OFFCURVE",
"369 1025 QCURVE",
"344 1033 OFFCURVE",
"307 1051 OFFCURVE",
"279 1074 OFFCURVE",
"264 1089 OFFCURVE",
"240 1118 OFFCURVE",
"235 1123 QCURVE",
"164 1052 OFFCURVE",
"139 955 QCURVE",
"167 927 LINE",
"199 827 LINE",
"559 827 LINE",
"594 823 OFFCURVE",
"643 791 OFFCURVE",
"672 734 OFFCURVE",
"689 683 OFFCURVE",
"709 602 OFFCURVE",
"717 580 QCURVE",
"720 570 OFFCURVE",
"746 476 OFFCURVE",
"756 424 OFFCURVE",
"756 400 QCURVE SMOOTH",
"756 358 OFFCURVE",
"735 334 QCURVE SMOOTH",
"696 289 OFFCURVE",
"563 232 OFFCURVE",
"388 209 OFFCURVE",
"266 203 OFFCURVE",
"179 203 QCURVE",
"172 188 OFFCURVE",
"161 158 OFFCURVE",
"152 123 OFFCURVE",
"146 101 OFFCURVE",
"138 60 OFFCURVE",
"135 43 OFFCURVE",
"126 -8 OFFCURVE",
"125 -16 QCURVE",
"351 -16 OFFCURVE",
"652 62 OFFCURVE",
"801 145 QCURVE",
"877 243 OFFCURVE",
"877 406 QCURVE SMOOTH",
"877 460 OFFCURVE",
"858 601 OFFCURVE",
"840 695 OFFCURVE",
"799 880 OFFCURVE",
"792 913 QCURVE"
);
}
);
width = 953;
}
);
note = kaf;
unicode = 05DB;
},
{
glyphname = lamed;
lastChange = "2018-07-29 14:56:13 +0000";
layers = (
{
layerId = "BE590684-9836-437F-B2F3-AE785A4EA4BE";
paths = (
{
closed = 1;
nodes = (
"682 1046 OFFCURVE",
"340 1052 OFFCURVE",
"290 1052 QCURVE SMOOTH",
"257 1052 OFFCURVE",
"228 1130 OFFCURVE",
"228 1180 QCURVE SMOOTH",
"228 1229 OFFCURVE",
"282 1515 OFFCURVE",
"282 1584 QCURVE SMOOTH",
"282 1625 OFFCURVE",
"275 1656 QCURVE",
"265 1676 OFFCURVE",
"241 1676 QCURVE SMOOTH",
"232 1676 OFFCURVE",
"225 1672 QCURVE",
"89 1520 LINE",
"82 1509 OFFCURVE",
"82 1497 QCURVE SMOOTH",
"82 1483 OFFCURVE",
"105 1467 OFFCURVE",
"119 1467 QCURVE",
"146 1475 OFFCURVE",
"162 1475 QCURVE SMOOTH",
"192 1475 OFFCURVE",
"192 1434 QCURVE SMOOTH",
"192 1401 OFFCURVE",
"146 1243 OFFCURVE",
"144 1228 QCURVE SMOOTH",
"131 1132 OFFCURVE",
"131 1012 QCURVE SMOOTH",
"131 836 OFFCURVE",
"260 836 QCURVE SMOOTH",
"620 836 LINE SMOOTH",
"645 836 OFFCURVE",
"691 772 OFFCURVE",
"691 734 QCURVE",
"692 726 LINE",
"692 719 OFFCURVE",
"691 719 QCURVE",
"666 618 OFFCURVE",
"595 446 OFFCURVE",
"538 357 OFFCURVE",
"493 287 OFFCURVE",
"491 276 QCURVE",
"475 224 OFFCURVE",
"475 170 QCURVE SMOOTH",
"475 152 OFFCURVE",
"479 101 OFFCURVE",
"479 93 QCURVE SMOOTH",
"479 90 OFFCURVE",
"500 51 OFFCURVE",
"545 -4 OFFCURVE",
"570 -16 QCURVE",
"633 100 OFFCURVE",
"633 200 QCURVE",
"613 205 OFFCURVE",
"586 233 OFFCURVE",
"586 250 QCURVE SMOOTH",
"586 257 OFFCURVE",
"589 266 QCURVE SMOOTH",
"604 309 OFFCURVE",
"839 735 OFFCURVE",
"864 824 QCURVE",
"864 936 OFFCURVE",
"799 1013 QCURVE",
"774 1038 OFFCURVE",
"737 1046 QCURVE"
);
}
);
width = 902;
}
);
note = lamed;
unicode = 05DC;
},
{
glyphname = finalmem;
lastChange = "2018-07-29 14:56:13 +0000";
layers = (
{
layerId = "BE590684-9836-437F-B2F3-AE785A4EA4BE";
paths = (
{
closed = 1;
nodes = (
"848 294 LINE SMOOTH",
"787 279 OFFCURVE",
"594 221 OFFCURVE",
"522 194 QCURVE SMOOTH",
"505 187 OFFCURVE",
"488 187 QCURVE SMOOTH",
"460 187 OFFCURVE",
"423 228 OFFCURVE",
"418 260 QCURVE",
"402 316 LINE SMOOTH",
"385 371 OFFCURVE",
"352 574 OFFCURVE",
"352 666 QCURVE SMOOTH",
"352 761 OFFCURVE",
"370 826 QCURVE",
"499 846 OFFCURVE",
"622 846 QCURVE SMOOTH",
"867 846 OFFCURVE",
"876 764 QCURVE",
"909 614 OFFCURVE",
"909 462 QCURVE SMOOTH",
"909 310 OFFCURVE",
"909 310 QCURVE"
);
},
{
closed = 1;
nodes = (
"209 852 OFFCURVE",
"232 845 OFFCURVE",
"260 838 OFFCURVE",
"268 838 QCURVE SMOOTH",
"316 838 LINE",
"310 830 LINE SMOOTH",
"305 823 OFFCURVE",
"289 780 OFFCURVE",
"273 717 OFFCURVE",
"262 603 OFFCURVE",
"262 533 QCURVE SMOOTH",
"262 348 OFFCURVE",
"302 116 QCURVE",
"302 44 OFFCURVE",
"325 -33 OFFCURVE",
"362 -56 OFFCURVE",
"394 -56 QCURVE",
"1034 156 LINE",
"1037 167 OFFCURVE",
"1053 224 OFFCURVE",
"1061 266 OFFCURVE",
"1061 288 QCURVE SMOOTH",
"1061 315 OFFCURVE",
"1052 346 QCURVE",
"1030 362 OFFCURVE",
"1020 394 QCURVE",
"1020 659 OFFCURVE",
"978 928 QCURVE SMOOTH",
"977 935 OFFCURVE",
"971 972 OFFCURVE",
"968 987 OFFCURVE",
"959 1015 OFFCURVE",
"945 1028 OFFCURVE",
"924 1044 OFFCURVE",
"891 1050 OFFCURVE",
"870 1050 QCURVE SMOOTH",
"823 1050 OFFCURVE",
"632 1039 OFFCURVE",
"584 1039 QCURVE SMOOTH",
"469 1039 OFFCURVE",
"382 1062 QCURVE",
"346 1069 OFFCURVE",
"299 1103 OFFCURVE",
"251 1169 OFFCURVE",
"248 1172 QCURVE",
"177 1101 OFFCURVE",
"152 1004 QCURVE",
"180 976 LINE",
"208 852 LINE"
);
}
);
width = 1143;
}
);
note = finalmem;
unicode = 05DD;
},
{
glyphname = mem;
lastChange = "2018-07-29 14:56:13 +0000";
layers = (
{
layerId = "BE590684-9836-437F-B2F3-AE785A4EA4BE";
paths = (
{
closed = 1;
nodes = (
"274 1093 OFFCURVE",
"235 1038 OFFCURVE",
"208 979 QCURVE",
"208 977 LINE SMOOTH",
"208 973 OFFCURVE",
"218 956 OFFCURVE",
"218 951 QCURVE SMOOTH",
"218 949 LINE",
"199 880 LINE",
"291 859 OFFCURVE",
"368 774 OFFCURVE",
"368 735 QCURVE SMOOTH",
"368 724 OFFCURVE",
"366 719 QCURVE SMOOTH",
"354 689 OFFCURVE",
"292 538 OFFCURVE",
"266 471 OFFCURVE",
"222 349 OFFCURVE",
"202 275 OFFCURVE",
"186 185 OFFCURVE",
"186 149 QCURVE",
"257 185 OFFCURVE",
"300 230 QCURVE",
"318 273 OFFCURVE",
"367 403 OFFCURVE",
"400 486 OFFCURVE",
"451 594 OFFCURVE",
"509 668 OFFCURVE",
"591 746 OFFCURVE",
"703 803 OFFCURVE",
"774 824 QCURVE",
"827 780 OFFCURVE",
"855 692 QCURVE SMOOTH",
"878 612 OFFCURVE",
"878 451 QCURVE SMOOTH",
"878 400 LINE SMOOTH",
"878 246 OFFCURVE",
"758 207 QCURVE",
"601 171 OFFCURVE",
"365 171 QCURVE",
"318 81 OFFCURVE",
"318 27 QCURVE SMOOTH",
"318 -9 OFFCURVE",
"335 -42 QCURVE",
"368 -39 OFFCURVE",
"491 -27 OFFCURVE",
"561 -20 OFFCURVE",
"673 -5 OFFCURVE",
"740 8 OFFCURVE",
"831 33 OFFCURVE",
"885 60 OFFCURVE",
"946 101 OFFCURVE",
"979 150 OFFCURVE",
"1001 214 OFFCURVE",
"1001 252 QCURVE SMOOTH",
"1001 385 LINE",
"1001 393 LINE SMOOTH",
"1001 605 OFFCURVE",
"992 715 QCURVE SMOOTH",
"960 1088 OFFCURVE",
"795 1088 QCURVE",
"614 1007 OFFCURVE",
"476 863 QCURVE",
"480 875 OFFCURVE",
"480 894 QCURVE SMOOTH",
"480 940 OFFCURVE",
"458 955 QCURVE SMOOTH",
"429 974 OFFCURVE",
"389 1003 OFFCURVE",
"359 1032 OFFCURVE",
"342 1047 OFFCURVE",
"327 1077 OFFCURVE",
"323 1085 OFFCURVE",
"311 1124 OFFCURVE",
"309 1130 QCURVE"
);
}
);
width = 1088;
}
);
note = mem;
unicode = 05DE;
},
{
glyphname = finalnun;
lastChange = "2018-07-29 14:56:13 +0000";
layers = (
{
layerId = "BE590684-9836-437F-B2F3-AE785A4EA4BE";
paths = (
{
closed = 1;
nodes = (
"223 139 OFFCURVE",
"237 37 OFFCURVE",
"247 -40 OFFCURVE",
"256 -143 OFFCURVE",
"256 -178 QCURVE SMOOTH",
"256 -226 OFFCURVE",
"236 -325 OFFCURVE",
"217 -389 OFFCURVE",
"217 -394 QCURVE",
"230 -372 OFFCURVE",
"274 -337 QCURVE",
"336 -257 OFFCURVE",
"400 -64 OFFCURVE",
"400 -10 QCURVE SMOOTH",
"400 88 OFFCURVE",
"320 355 OFFCURVE",
"313 419 QCURVE SMOOTH",
"309 454 OFFCURVE",
"309 510 QCURVE SMOOTH",
"309 534 OFFCURVE",
"311 628 OFFCURVE",
"311 647 QCURVE SMOOTH",
"311 686 OFFCURVE",
"317 720 QCURVE",
"363 768 OFFCURVE",
"405 867 OFFCURVE",
"417 931 QCURVE",
"417 978 OFFCURVE",
"380 999 QCURVE",
"311 1034 OFFCURVE",
"268 1061 QCURVE",
"220 1100 OFFCURVE",
"207 1179 QCURVE",
"129 1125 OFFCURVE",
"99 1044 QCURVE",
"114 1011 LINE",
"75 915 LINE",
"108 886 LINE SMOOTH",
"142 858 OFFCURVE",
"225 786 OFFCURVE",
"241 770 QCURVE",
"198 710 OFFCURVE",
"166 588 OFFCURVE",
"166 503 QCURVE SMOOTH",
"166 441 OFFCURVE",
"182 334 OFFCURVE",
"215 192 OFFCURVE",
"222 151 QCURVE"
);
}
);
width = 459;
}
);
note = finalnun;
unicode = 05DF;
},
{
glyphname = nun;
lastChange = "2018-07-29 14:56:13 +0000";
layers = (
{
layerId = "BE590684-9836-437F-B2F3-AE785A4EA4BE";
paths = (
{
closed = 1;
nodes = (
"304 1094 OFFCURVE",
"281 1127 OFFCURVE",
"276 1158 QCURVE",
"193 1101 OFFCURVE",
"163 1019 QCURVE",
"178 986 LINE",
"154 912 LINE",
"157 911 OFFCURVE",
"186 896 OFFCURVE",
"190 894 OFFCURVE",
"215 881 OFFCURVE",
"220 878 OFFCURVE",
"241 866 OFFCURVE",
"250 859 OFFCURVE",
"268 847 OFFCURVE",
"281 836 OFFCURVE",
"299 821 OFFCURVE",
"308 813 QCURVE",
"332 708 OFFCURVE",
"340 417 OFFCURVE",
"345 372 QCURVE SMOOTH",
"362 245 LINE",
"247 174 OFFCURVE",
"119 174 QCURVE",
"69 114 OFFCURVE",
"69 52 QCURVE SMOOTH",
"69 6 OFFCURVE",
"95 -46 QCURVE",
"117 -41 OFFCURVE",
"234 -19 OFFCURVE",
"293 -5 OFFCURVE",
"388 22 OFFCURVE",
"468 58 OFFCURVE",
"506 82 QCURVE",
"526 111 OFFCURVE",
"544 209 QCURVE",
"534 259 OFFCURVE",
"474 468 OFFCURVE",
"435 653 OFFCURVE",
"435 729 QCURVE SMOOTH",
"435 768 OFFCURVE",
"441 810 QCURVE",
"441 835 OFFCURVE",
"470 897 OFFCURVE",
"476 930 QCURVE",
"467 950 LINE SMOOTH",
"458 969 OFFCURVE",
"388 1038 OFFCURVE",
"336 1068 QCURVE"
);
}
);
width = 609;
}
);
note = nun;
unicode = 05E0;
},
{
glyphname = samekh;
lastChange = "2018-07-29 14:56:13 +0000";
layers = (
{
layerId = "BE590684-9836-437F-B2F3-AE785A4EA4BE";
paths = (
{
closed = 1;
nodes = (
"788 820 OFFCURVE",
"855 716 OFFCURVE",
"913 552 OFFCURVE",
"913 483 QCURVE",
"863 365 OFFCURVE",
"636 200 OFFCURVE",
"512 200 QCURVE",
"466 260 OFFCURVE",
"405 371 OFFCURVE",
"373 453 OFFCURVE",
"358 559 OFFCURVE",
"355 624 OFFCURVE",
"355 686 QCURVE SMOOTH",
"355 711 OFFCURVE",
"391 791 OFFCURVE",
"415 806 QCURVE",
"653 806 OFFCURVE",
"770 823 QCURVE"
);
},
{
closed = 1;
nodes = (
"300 1045 OFFCURVE",
"274 1112 QCURVE",
"203 1041 OFFCURVE",
"178 944 QCURVE",
"206 916 LINE",
"222 838 LINE",
"292 818 OFFCURVE",
"351 810 QCURVE",
"341 791 OFFCURVE",
"295 722 OFFCURVE",
"263 670 OFFCURVE",
"263 658 QCURVE",
"254 606 OFFCURVE",
"254 553 QCURVE SMOOTH",
"254 404 OFFCURVE",
"381 89 OFFCURVE",
"491 -35 QCURVE",
"532 -42 LINE",
"560 -28 OFFCURVE",
"673 23 OFFCURVE",
"739 57 OFFCURVE",
"829 111 OFFCURVE",
"901 176 OFFCURVE",
"931 216 QCURVE",
"939 239 OFFCURVE",
"970 321 OFFCURVE",
"981 355 OFFCURVE",
"996 422 OFFCURVE",
"1001 493 OFFCURVE",
"1001 543 QCURVE SMOOTH",
"1001 659 OFFCURVE",
"958 850 OFFCURVE",
"899 970 OFFCURVE",
"852 1040 QCURVE",
"836 1040 OFFCURVE",
"597 1026 OFFCURVE",
"522 1026 QCURVE SMOOTH",
"440 1026 OFFCURVE",
"379 1034 QCURVE SMOOTH"
);
}
);
width = 1077;
}
);
note = samekh;
unicode = 05E1;
},
{
glyphname = ayin;
lastChange = "2018-07-29 14:56:13 +0000";
layers = (
{
layerId = "BE590684-9836-437F-B2F3-AE785A4EA4BE";
paths = (
{
closed = 1;
nodes = (
"242 714 OFFCURVE",
"242 673 QCURVE SMOOTH",
"242 610 OFFCURVE",
"310 446 OFFCURVE",
"409 263 OFFCURVE",
"425 222 QCURVE",
"375 179 OFFCURVE",
"248 137 OFFCURVE",
"153 124 QCURVE",
"129 79 OFFCURVE",
"129 11 QCURVE SMOOTH",
"129 -38 OFFCURVE",
"149 -144 QCURVE",
"219 -114 OFFCURVE",
"317 -68 OFFCURVE",
"443 0 OFFCURVE",
"531 62 OFFCURVE",
"633 152 OFFCURVE",
"701 245 OFFCURVE",
"769 370 OFFCURVE",
"809 508 OFFCURVE",
"833 682 OFFCURVE",
"833 780 QCURVE",
"873 796 LINE",
"938 960 LINE",
"917 971 OFFCURVE",
"829 1007 OFFCURVE",
"776 1032 OFFCURVE",
"704 1089 OFFCURVE",
"677 1128 QCURVE",
"633 1096 OFFCURVE",
"585 999 OFFCURVE",
"585 948 QCURVE SMOOTH",
"585 916 OFFCURVE",
"593 892 QCURVE",
"607 866 OFFCURVE",
"645 831 OFFCURVE",
"676 817 OFFCURVE",
"729 796 OFFCURVE",
"745 788 QCURVE",
"729 671 OFFCURVE",
"663 459 OFFCURVE",
"547 282 OFFCURVE",
"477 254 QCURVE",
"483 281 OFFCURVE",
"483 305 QCURVE SMOOTH",
"483 348 OFFCURVE",
"441 460 OFFCURVE",
"391 556 OFFCURVE",
"349 694 OFFCURVE",
"349 760 QCURVE",
"366 830 OFFCURVE",
"433 964 QCURVE",
"288 1019 OFFCURVE",
"193 1096 QCURVE",
"125 1006 OFFCURVE",
"125 844 QCURVE",
"147 814 OFFCURVE",
"180 783 OFFCURVE",
"200 775 OFFCURVE",
"240 764 OFFCURVE",
"257 756 QCURVE"
);
}
);
width = 984;
}
);
note = ayin;
unicode = 05E2;
},
{
glyphname = finalpe;
lastChange = "2018-07-29 14:56:13 +0000";
layers = (
{
layerId = "BE590684-9836-437F-B2F3-AE785A4EA4BE";
paths = (
{
closed = 1;
nodes = (
"324 1171 OFFCURVE",
"255 1077 OFFCURVE",
"227 1001 QCURVE",
"252 935 LINE",
"151 853 OFFCURVE",
"151 750 QCURVE SMOOTH",
"151 716 OFFCURVE",
"170 632 QCURVE",
"141 599 OFFCURVE",
"141 549 QCURVE SMOOTH",
"141 481 OFFCURVE",
"184 419 QCURVE",
"229 400 OFFCURVE",
"278 400 QCURVE SMOOTH",
"329 400 OFFCURVE",
"390 421 QCURVE",
"423 484 OFFCURVE",
"423 549 QCURVE SMOOTH",
"423 589 OFFCURVE",
"409 636 QCURVE",
"369 618 OFFCURVE",
"339 618 QCURVE SMOOTH",
"287 618 OFFCURVE",
"237 708 OFFCURVE",
"237 778 QCURVE",
"243 804 OFFCURVE",
"255 835 OFFCURVE",
"283 873 OFFCURVE",
"333 896 OFFCURVE",
"370 901 QCURVE",
"446 901 OFFCURVE",
"567 852 OFFCURVE",
"631 795 QCURVE",
"731 731 OFFCURVE",
"731 352 QCURVE SMOOTH",
"731 330 OFFCURVE",
"725 249 OFFCURVE",
"725 230 QCURVE SMOOTH",
"725 128 OFFCURVE",
"769 -204 OFFCURVE",
"769 -269 QCURVE SMOOTH",
"769 -309 LINE SMOOTH",
"769 -344 OFFCURVE",
"763 -382 QCURVE",
"811 -368 OFFCURVE",
"855 -309 OFFCURVE",
"864 -247 QCURVE",
"864 -186 OFFCURVE",
"862 97 OFFCURVE",
"862 166 QCURVE SMOOTH",
"862 292 OFFCURVE",
"860 450 OFFCURVE",
"849 661 OFFCURVE",
"829 794 OFFCURVE",
"791 914 OFFCURVE",
"764 942 QCURVE SMOOTH",
"732 976 OFFCURVE",
"628 1014 OFFCURVE",
"506 1041 OFFCURVE",
"476 1056 QCURVE",
"471 1060 OFFCURVE",
"447 1079 OFFCURVE",
"436 1089 OFFCURVE",
"415 1108 OFFCURVE",
"403 1124 OFFCURVE",
"388 1145 OFFCURVE",
"376 1170 OFFCURVE",
"372 1184 QCURVE"
);
}
);
width = 907;
}
);
note = finalpe;
unicode = 05E3;
},
{
glyphname = pe;
lastChange = "2018-07-29 14:56:13 +0000";
layers = (
{
layerId = "BE590684-9836-437F-B2F3-AE785A4EA4BE";
paths = (
{
closed = 1;
nodes = (
"751 993 OFFCURVE",
"640 1019 OFFCURVE",
"532 1033 OFFCURVE",
"429 1056 OFFCURVE",
"366 1110 OFFCURVE",
"366 1154 QCURVE",
"362 1156 OFFCURVE",
"354 1156 QCURVE SMOOTH",
"315 1156 OFFCURVE",
"223 1010 OFFCURVE",
"223 969 QCURVE SMOOTH",
"223 962 LINE",
"248 905 LINE",
"212 871 OFFCURVE",
"178 834 OFFCURVE",
"143 756 OFFCURVE",
"143 664 OFFCURVE",
"163 602 QCURVE",
"122 543 OFFCURVE",
"122 492 QCURVE SMOOTH",
"122 468 OFFCURVE",
"130 437 OFFCURVE",
"155 415 OFFCURVE",
"177 404 OFFCURVE",
"203 394 QCURVE",
"374 394 LINE",
"376 397 OFFCURVE",
"408 460 OFFCURVE",
"417 481 OFFCURVE",
"430 526 OFFCURVE",
"430 544 QCURVE SMOOTH",
"430 579 OFFCURVE",
"423 608 QCURVE",
"392 582 OFFCURVE",
"324 582 OFFCURVE",
"287 608 QCURVE SMOOTH",
"271 620 OFFCURVE",
"251 702 OFFCURVE",
"251 739 QCURVE SMOOTH",
"251 800 OFFCURVE",
"320 869 OFFCURVE",
"378 869 QCURVE SMOOTH",
"501 869 OFFCURVE",
"625 834 OFFCURVE",
"682 784 QCURVE SMOOTH",
"780 699 OFFCURVE",
"780 282 QCURVE",
"536 173 OFFCURVE",
"168 173 QCURVE",
"108 95 OFFCURVE",
"108 -40 QCURVE",
"619 -40 OFFCURVE",
"812 38 QCURVE",
"818 46 OFFCURVE",
"840 76 OFFCURVE",
"850 92 OFFCURVE",
"862 122 OFFCURVE",
"865 141 QCURVE SMOOTH",
"898 316 OFFCURVE",
"898 536 QCURVE SMOOTH",
"898 601 OFFCURVE",
"881 754 OFFCURVE",
"824 934 OFFCURVE",
"780 972 QCURVE"
);
}
);
width = 982;
}
);
note = pe;
unicode = 05E4;
},
{
glyphname = finaltsadi;
lastChange = "2018-07-29 14:56:13 +0000";
layers = (
{
layerId = "BE590684-9836-437F-B2F3-AE785A4EA4BE";
paths = (
{
closed = 1;
nodes = (
"420 1018 OFFCURVE",
"350 1071 OFFCURVE",
"285 1098 OFFCURVE",
"222 1139 OFFCURVE",
"210 1163 QCURVE",
"196 1146 OFFCURVE",
"171 1112 OFFCURVE",
"154 1087 OFFCURVE",
"138 1053 OFFCURVE",
"129 1037 OFFCURVE",
"117 1001 OFFCURVE",
"114 990 OFFCURVE",
"102 950 OFFCURVE",
"101 946 QCURVE",
"111 933 OFFCURVE",
"136 908 OFFCURVE",
"157 891 OFFCURVE",
"191 868 OFFCURVE",
"209 856 OFFCURVE",
"250 833 OFFCURVE",
"257 828 QCURVE",
"257 557 OFFCURVE",
"323 291 QCURVE SMOOTH",
"364 106 OFFCURVE",
"364 -274 QCURVE SMOOTH",
"364 -333 OFFCURVE",
"358 -390 QCURVE",
"420 -340 OFFCURVE",
"485 -133 OFFCURVE",
"485 -31 QCURVE SMOOTH",
"485 -12 OFFCURVE",
"476 76 OFFCURVE",
"476 102 QCURVE",
"468 152 OFFCURVE",
"440 282 OFFCURVE",
"427 375 OFFCURVE",
"427 434 QCURVE SMOOTH",
"427 499 OFFCURVE",
"464 592 OFFCURVE",
"507 658 QCURVE SMOOTH",
"535 702 OFFCURVE",
"599 753 OFFCURVE",
"647 772 QCURVE",
"662 782 OFFCURVE",
"685 782 QCURVE SMOOTH",
"692 782 OFFCURVE",
"718 780 OFFCURVE",
"724 780 QCURVE SMOOTH",
"733 780 OFFCURVE",
"764 762 OFFCURVE",
"769 762 QCURVE",
"792 798 OFFCURVE",
"821 857 OFFCURVE",
"852 935 OFFCURVE",
"859 951 QCURVE",
"827 963 OFFCURVE",
"770 1005 OFFCURVE",
"716 1069 OFFCURVE",
"688 1108 OFFCURVE",
"662 1145 QCURVE",
"569 1130 OFFCURVE",
"525 927 QCURVE",
"587 848 LINE",
"516 804 OFFCURVE",
"409 646 OFFCURVE",
"387 565 QCURVE",
"361 584 OFFCURVE",
"346 649 OFFCURVE",
"346 703 QCURVE SMOOTH",
"346 735 LINE SMOOTH",
"346 752 OFFCURVE",
"347 768 OFFCURVE",
"347 783 QCURVE",
"347 779 OFFCURVE",
"364 776 QCURVE",
"368 784 OFFCURVE",
"406 860 OFFCURVE",
"428 927 OFFCURVE",
"439 984 QCURVE"
);
}
);
width = 894;
}
);
note = finaltsadi;
unicode = 05E5;
},
{
glyphname = tsadi;
lastChange = "2018-07-29 14:56:13 +0000";
layers = (
{
layerId = "BE590684-9836-437F-B2F3-AE785A4EA4BE";
paths = (
{
closed = 1;
nodes = (
"571 498 OFFCURVE",
"571 528 QCURVE SMOOTH",
"571 553 OFFCURVE",
"583 589 QCURVE",
"589 603 OFFCURVE",
"608 660 OFFCURVE",
"621 683 OFFCURVE",
"654 726 OFFCURVE",
"711 767 OFFCURVE",
"757 793 QCURVE",
"768 790 OFFCURVE",
"810 767 OFFCURVE",
"829 767 QCURVE SMOOTH",
"830 767 OFFCURVE",
"868 833 OFFCURVE",
"912 914 OFFCURVE",
"919 930 QCURVE",
"891 956 OFFCURVE",
"805 1029 OFFCURVE",
"742 1089 OFFCURVE",
"715 1123 QCURVE",
"674 1086 OFFCURVE",
"620 1007 OFFCURVE",
"587 937 OFFCURVE",
"576 923 QCURVE",
"598 890 OFFCURVE",
"637 864 OFFCURVE",
"645 846 QCURVE",
"601 801 OFFCURVE",
"517 635 OFFCURVE",
"499 564 QCURVE",
"441 599 OFFCURVE",
"369 709 OFFCURVE",
"369 771 QCURVE SMOOTH",
"369 785 OFFCURVE",
"370 792 QCURVE",
"404 784 LINE",
"404 798 OFFCURVE",
"445 950 OFFCURVE",
"448 980 QCURVE",
"287 1032 OFFCURVE",
"242 1147 QCURVE",
"218 1138 OFFCURVE",
"165 1014 OFFCURVE",
"146 945 OFFCURVE",
"141 922 QCURVE",
"178 870 OFFCURVE",
"243 819 OFFCURVE",
"294 800 QCURVE",
"294 771 LINE SMOOTH",
"294 659 OFFCURVE",
"399 490 QCURVE SMOOTH",
"415 464 OFFCURVE",
"449 425 OFFCURVE",
"498 376 OFFCURVE",
"513 360 QCURVE SMOOTH",
"610 252 LINE",
"462 188 OFFCURVE",
"306 188 QCURVE SMOOTH",
"290 188 OFFCURVE",
"205 180 OFFCURVE",
"188 180 QCURVE",
"182 166 OFFCURVE",
"160 110 OFFCURVE",
"156 97 OFFCURVE",
"144 63 OFFCURVE",
"139 42 OFFCURVE",
"131 7 OFFCURVE",
"126 -18 QCURVE",
"403 16 OFFCURVE",
"451 24 QCURVE",
"460 26 OFFCURVE",
"526 38 OFFCURVE",
"550 42 OFFCURVE",
"610 55 OFFCURVE",
"636 64 OFFCURVE",
"685 82 OFFCURVE",
"709 99 OFFCURVE",
"744 125 OFFCURVE",
"761 153 OFFCURVE",
"777 189 OFFCURVE",
"780 210 QCURVE",
"780 245 OFFCURVE",
"739 327 OFFCURVE",
"688 389 OFFCURVE",
"623 452 OFFCURVE",
"597 473 OFFCURVE",
"589 479 QCURVE"
);
}
);
width = 958;
}
);
note = tsadi;
unicode = 05E6;
},
{
glyphname = kof;
lastChange = "2018-07-29 14:56:13 +0000";
layers = (
{
layerId = "BE590684-9836-437F-B2F3-AE785A4EA4BE";
paths = (
{
closed = 1;
nodes = (
"195 1091 OFFCURVE",
"166 999 OFFCURVE",
"166 897 QCURVE",
"188 880 OFFCURVE",
"241 854 OFFCURVE",
"276 842 OFFCURVE",
"346 823 OFFCURVE",
"361 818 QCURVE",
"357 809 OFFCURVE",
"310 733 OFFCURVE",
"275 652 OFFCURVE",
"275 621 QCURVE SMOOTH",
"275 512 OFFCURVE",
"303 16 OFFCURVE",
"303 -106 QCURVE SMOOTH",
"303 -294 OFFCURVE",
"281 -411 QCURVE",
"283 -409 OFFCURVE",
"336 -360 OFFCURVE",
"353 -341 OFFCURVE",
"400 -291 OFFCURVE",
"420 -254 OFFCURVE",
"449 -201 OFFCURVE",
"460 -144 OFFCURVE",
"460 -114 QCURVE SMOOTH",
"460 -5 OFFCURVE",
"378 364 OFFCURVE",
"378 487 QCURVE SMOOTH",
"378 803 LINE",
"516 830 OFFCURVE",
"761 830 QCURVE",
"771 819 OFFCURVE",
"788 791 OFFCURVE",
"800 766 OFFCURVE",
"813 726 OFFCURVE",
"820 703 OFFCURVE",
"829 656 OFFCURVE",
"832 641 OFFCURVE",
"841 592 OFFCURVE",
"841 589 QCURVE",
"599 332 LINE",
"595 325 OFFCURVE",
"573 292 OFFCURVE",
"559 271 OFFCURVE",
"541 232 OFFCURVE",
"534 211 QCURVE",
"532 193 OFFCURVE",
"532 185 QCURVE SMOOTH",
"532 155 OFFCURVE",
"552 109 OFFCURVE",
"563 106 QCURVE",
"595 162 OFFCURVE",
"653 245 OFFCURVE",
"733 332 OFFCURVE",
"834 398 OFFCURVE",
"895 420 QCURVE",
"950 558 OFFCURVE",
"950 694 QCURVE SMOOTH",
"950 793 OFFCURVE",
"911 998 OFFCURVE",
"875 1059 QCURVE",
"712 1035 OFFCURVE",
"583 1035 QCURVE SMOOTH",
"539 1035 OFFCURVE",
"539 1035 QCURVE SMOOTH",
"285 1035 OFFCURVE",
"240 1144 QCURVE"
);
}
);
width = 1011;
}
);
note = kof;
unicode = 05E7;
},
{
glyphname = resh;
lastChange = "2018-07-29 14:56:13 +0000";
layers = (
{
layerId = "BE590684-9836-437F-B2F3-AE785A4EA4BE";
paths = (
{
closed = 1;
nodes = (
"771 445 OFFCURVE",
"771 234 QCURVE SMOOTH",
"771 106 OFFCURVE",
"731 22 QCURVE",
"774 6 LINE",
"875 82 OFFCURVE",
"875 374 QCURVE SMOOTH",
"875 571 LINE SMOOTH",
"875 669 OFFCURVE",
"859 831 OFFCURVE",
"823 972 OFFCURVE",
"754 1052 OFFCURVE",
"706 1052 QCURVE SMOOTH",
"333 1052 LINE",
"318 1055 OFFCURVE",
"292 1063 OFFCURVE",
"272 1071 OFFCURVE",
"251 1085 OFFCURVE",
"239 1093 OFFCURVE",
"220 1112 OFFCURVE",
"214 1117 OFFCURVE",
"195 1139 OFFCURVE",
"193 1141 QCURVE",
"129 1077 OFFCURVE",
"98 955 QCURVE",
"126 927 LINE",
"158 827 LINE",
"651 827 LINE",
"659 824 OFFCURVE",
"673 814 OFFCURVE",
"684 800 OFFCURVE",
"692 789 OFFCURVE",
"700 768 OFFCURVE",
"705 756 OFFCURVE",
"711 731 OFFCURVE",
"714 721 OFFCURVE",
"719 693 OFFCURVE",
"720 690 QCURVE"
);
}
);
width = 931;
}
);
note = resh;
unicode = 05E8;
},
{
glyphname = shin;
lastChange = "2018-07-29 14:56:13 +0000";
layers = (
{
layerId = "BE590684-9836-437F-B2F3-AE785A4EA4BE";
paths = (
{
closed = 1;
nodes = (
"309 1092 LINE SMOOTH",
"301 1102 OFFCURVE",
"285 1146 OFFCURVE",
"285 1169 QCURVE",
"257 1149 OFFCURVE",
"212 1098 OFFCURVE",
"184 1054 OFFCURVE",
"162 999 OFFCURVE",
"153 969 OFFCURVE",
"143 927 OFFCURVE",
"143 926 QCURVE",
"261 842 LINE",
"273 821 OFFCURVE",
"273 792 QCURVE SMOOTH",
"273 770 OFFCURVE",
"261 728 QCURVE",
"248 712 OFFCURVE",
"248 624 QCURVE SMOOTH",
"248 588 LINE",
"390 31 LINE SMOOTH",
"397 1 OFFCURVE",
"439 -30 OFFCURVE",
"469 -30 QCURVE",
"496 -33 OFFCURVE",
"517 -20 QCURVE",
"544 -10 OFFCURVE",
"600 15 OFFCURVE",
"665 53 OFFCURVE",
"711 81 OFFCURVE",
"788 136 OFFCURVE",
"824 162 OFFCURVE",
"914 228 OFFCURVE",
"928 238 QCURVE",
"973 262 LINE",
"1093 637 LINE",
"1097 648 OFFCURVE",
"1105 665 OFFCURVE",
"1114 678 OFFCURVE",
"1120 684 OFFCURVE",
"1132 694 OFFCURVE",
"1134 696 QCURVE SMOOTH",
"1166 726 OFFCURVE",
"1198 726 QCURVE",
"1244 784 OFFCURVE",
"1275 842 OFFCURVE",
"1291 902 QCURVE",
"1160 1012 LINE SMOOTH",
"1148 1022 OFFCURVE",
"1118 1081 OFFCURVE",
"1098 1130 OFFCURVE",
"1097 1130 QCURVE",
"1071 1112 OFFCURVE",
"1033 1072 OFFCURVE",
"1010 1029 OFFCURVE",
"996 994 OFFCURVE",
"979 941 OFFCURVE",
"972 925 QCURVE",
"1089 802 LINE",
"887 398 LINE SMOOTH",
"852 328 OFFCURVE",
"718 203 OFFCURVE",
"643 203 QCURVE SMOOTH",
"614 203 OFFCURVE",
"574 208 QCURVE",
"661 595 LINE SMOOTH",
"683 689 OFFCURVE",
"765 755 QCURVE",
"766 755 OFFCURVE",
"781 767 OFFCURVE",
"797 774 OFFCURVE",
"806 774 QCURVE SMOOTH",
"817 774 OFFCURVE",
"829 768 QCURVE",
"846 789 OFFCURVE",
"888 885 OFFCURVE",
"897 920 QCURVE",
"880 936 OFFCURVE",
"804 997 OFFCURVE",
"759 1036 OFFCURVE",
"720 1096 OFFCURVE",
"720 1125 QCURVE",
"635 1055 OFFCURVE",
"608 1007 QCURVE SMOOTH",
"595 984 OFFCURVE",
"571 908 QCURVE",
"666 846 LINE",
"660 834 OFFCURVE",
"621 759 OFFCURVE",
"604 724 OFFCURVE",
"576 655 OFFCURVE",
"564 619 QCURVE SMOOTH",
"550 573 OFFCURVE",
"526 439 OFFCURVE",
"504 290 OFFCURVE",
"501 272 QCURVE",
"497 241 OFFCURVE",
"476 241 QCURVE SMOOTH",
"456 241 OFFCURVE",
"442 270 QCURVE SMOOTH",
"430 293 OFFCURVE",
"402 373 OFFCURVE",
"385 438 OFFCURVE",
"363 526 OFFCURVE",
"360 536 QCURVE SMOOTH",
"357 547 OFFCURVE",
"342 599 OFFCURVE",
"336 623 OFFCURVE",
"330 672 OFFCURVE",
"330 700 QCURVE SMOOTH",
"330 750 OFFCURVE",
"359 799 QCURVE",
"383 814 OFFCURVE",
"463 937 OFFCURVE",
"463 959 QCURVE",
"461 966 LINE",
"317 1082 LINE"
);
}
);
width = 1324;
}
);
note = shin;
unicode = 05E9;
},
{
glyphname = tav;
lastChange = "2018-07-29 14:56:13 +0000";
layers = (
{
layerId = "BE590684-9836-437F-B2F3-AE785A4EA4BE";
paths = (
{
closed = 1;
nodes = (
"393 1052 OFFCURVE",
"331 1078 OFFCURVE",
"303 1126 QCURVE",
"270 1093 OFFCURVE",
"234 984 OFFCURVE",
"234 926 QCURVE SMOOTH",
"234 896 OFFCURVE",
"240 863 QCURVE",
"438 827 LINE",
"303 676 OFFCURVE",
"303 506 QCURVE SMOOTH",
"303 389 OFFCURVE",
"362 241 QCURVE",
"330 218 OFFCURVE",
"268 188 OFFCURVE",
"173 154 OFFCURVE",
"160 149 QCURVE",
"153 121 OFFCURVE",
"153 93 QCURVE SMOOTH",
"153 60 OFFCURVE",
"180 -53 OFFCURVE",
"182 -63 QCURVE",
"318 -30 OFFCURVE",
"518 79 QCURVE",
"518 271 LINE",
"470 271 LINE",
"412 415 OFFCURVE",
"412 533 QCURVE SMOOTH",
"412 657 OFFCURVE",
"478 775 QCURVE SMOOTH",
"492 799 OFFCURVE",
"532 827 OFFCURVE",
"548 827 QCURVE SMOOTH",
"762 827 LINE SMOOTH",
"815 827 OFFCURVE",
"842 771 QCURVE",
"849 739 OFFCURVE",
"892 547 OFFCURVE",
"911 453 OFFCURVE",
"939 300 OFFCURVE",
"951 179 OFFCURVE",
"951 125 QCURVE SMOOTH",
"951 86 OFFCURVE",
"946 41 QCURVE",
"1002 -11 LINE",
"1062 130 OFFCURVE",
"1062 239 QCURVE",
"974 811 LINE",
"971 825 OFFCURVE",
"959 896 OFFCURVE",
"950 937 OFFCURVE",
"930 995 OFFCURVE",
"906 1028 OFFCURVE",
"864 1052 OFFCURVE",
"837 1052 QCURVE SMOOTH",
"446 1052 LINE SMOOTH"
);
}
);
width = 1116;
}
);
note = tav;
unicode = 05EA;
},
{
glyphname = geresh;
lastChange = "2018-07-29 14:56:13 +0000";
layers = (
{
layerId = "BE590684-9836-437F-B2F3-AE785A4EA4BE";
paths = (
{
closed = 1;
nodes = (
"236 1134 LINE SMOOTH",
"224 1137 OFFCURVE",
"217 1137 QCURVE SMOOTH",
"195 1137 OFFCURVE",
"189 1112 QCURVE SMOOTH",
"138 907 OFFCURVE",
"98 698 QCURVE",
"122 685 OFFCURVE",
"140 685 QCURVE",
"246 874 LINE",
"358 1060 LINE",
"358 1086 OFFCURVE",
"356 1100 QCURVE"
);
}
);
width = 396;
}
);
note = geresh;
unicode = 05F3;
},
{
glyphname = zerononjoin;
lastChange = "2018-07-29 14:56:13 +0000";
layers = (
{
layerId = "BE590684-9836-437F-B2F3-AE785A4EA4BE";
paths = (
{
closed = 1;
nodes = (
"-141 1860 LINE",
"-34 1753 LINE",
"-141 1646 LINE",
"-108 1612 LINE",
"0 1719 LINE",
"106 1613 LINE",
"140 1646 LINE",
"33 1753 LINE",
"140 1860 LINE",
"106 1893 LINE",
"0 1786 LINE",
"-108 1894 LINE"
);
}
);
width = 0;
}
);
note = zerononjoin;
unicode = 200C;
},
{
glyphname = zerojoin;
lastChange = "2018-07-29 14:56:13 +0000";
layers = (
{
layerId = "BE590684-9836-437F-B2F3-AE785A4EA4BE";
paths = (
{
closed = 1;
nodes = (
"204 1637 LINE",
"204 1777 LINE",
"-203 1777 LINE",
"-203 1637 LINE",
"-156 1637 LINE",
"-156 1730 LINE",
"157 1730 LINE",
"157 1637 LINE"
);
}
);
width = 0;
}
);
note = zerojoin;
unicode = 200D;
},
{
glyphname = lrm;
lastChange = "2018-07-29 14:56:13 +0000";
layers = (
{
layerId = "BE590684-9836-437F-B2F3-AE785A4EA4BE";
paths = (
{
closed = 1;
nodes = (
"104 1777 LINE",
"-154 1777 LINE",
"-154 1730 LINE",
"105 1730 LINE",
"21 1646 LINE",
"54 1612 LINE",
"195 1753 LINE",
"54 1894 LINE",
"21 1860 LINE"
);
}
);
width = 0;
}
);
note = lrm;
unicode = 200E;
},
{
glyphname = rlm;
lastChange = "2018-07-29 14:56:13 +0000";
layers = (
{
layerId = "BE590684-9836-437F-B2F3-AE785A4EA4BE";
paths = (
{
closed = 1;
nodes = (
"-103 1730 LINE",
"155 1730 LINE",
"155 1777 LINE",
"-104 1777 LINE",
"-20 1861 LINE",
"-53 1895 LINE",
"-194 1754 LINE",
"-53 1613 LINE",
"-20 1647 LINE"
);
}
);
width = 0;
}
);
note = rlm;
unicode = 200F;
},
{
glyphname = quoteleft;
lastChange = "2018-07-29 14:56:13 +0000";
layers = (
{
layerId = "BE590684-9836-437F-B2F3-AE785A4EA4BE";
paths = (
{
closed = 1;
nodes = (
"307 1481 OFFCURVE",
"213 1481 QCURVE SMOOTH",
"117 1481 OFFCURVE",
"117 1395 QCURVE SMOOTH",
"117 1366 OFFCURVE",
"117 1366 QCURVE",
"169 1032 LINE",
"178 951 OFFCURVE",
"178 944 QCURVE SMOOTH",
"178 936 OFFCURVE",
"213 936 QCURVE SMOOTH",
"246 936 OFFCURVE",
"248 944 QCURVE",
"307 1397 LINE"
);
}
);
width = 422;
}
);
note = quoteleft;
unicode = 2018;
},
{
glyphname = quoteright;
lastChange = "2018-07-29 14:56:13 +0000";
layers = (
{
layerId = "BE590684-9836-437F-B2F3-AE785A4EA4BE";
paths = (
{
closed = 1;
nodes = (
"307 1481 OFFCURVE",
"213 1481 QCURVE SMOOTH",
"117 1481 OFFCURVE",
"117 1395 QCURVE SMOOTH",
"117 1366 OFFCURVE",
"117 1366 QCURVE",
"169 1032 LINE",
"178 951 OFFCURVE",
"178 944 QCURVE SMOOTH",
"178 936 OFFCURVE",
"213 936 QCURVE SMOOTH",
"246 936 OFFCURVE",
"248 944 QCURVE",
"307 1397 LINE"
);
}
);
width = 422;
}
);
note = quoteright;
unicode = 2019;
},
{
glyphname = quotesinglbase;
lastChange = "2018-07-29 14:56:13 +0000";
layers = (
{
layerId = "BE590684-9836-437F-B2F3-AE785A4EA4BE";
paths = (
{
closed = 1;
nodes = (
"305 243 OFFCURVE",
"211 243 QCURVE SMOOTH",
"115 243 OFFCURVE",
"115 157 QCURVE SMOOTH",
"115 128 OFFCURVE",
"115 128 QCURVE",
"167 -206 LINE",
"176 -287 OFFCURVE",
"176 -294 QCURVE SMOOTH",
"176 -302 OFFCURVE",
"211 -302 QCURVE SMOOTH",
"244 -302 OFFCURVE",
"246 -294 QCURVE",
"305 159 LINE"
);
}
);
width = 422;
}
);
note = quotesinglbase;
unicode = 201A;
},
{
glyphname = newshekel;
lastChange = "2018-07-29 14:56:13 +0000";
layers = (
{
layerId = "BE590684-9836-437F-B2F3-AE785A4EA4BE";
paths = (
{
closed = 1;
nodes = (
"141 1076 OFFCURVE",
"101 944 OFFCURVE",
"101 882 QCURVE SMOOTH",
"101 848 OFFCURVE",
"108 827 QCURVE",
"219 827 LINE",
"178 765 OFFCURVE",
"178 633 QCURVE SMOOTH",
"178 546 OFFCURVE",
"233 122 OFFCURVE",
"233 22 QCURVE",
"325 141 OFFCURVE",
"369 221 QCURVE",
"369 240 OFFCURVE",
"309 561 OFFCURVE",
"309 656 QCURVE SMOOTH",
"309 777 OFFCURVE",
"354 827 QCURVE",
"512 827 LINE SMOOTH",
"632 827 OFFCURVE",
"697 840 QCURVE",
"685 781 OFFCURVE",
"685 716 QCURVE SMOOTH",
"685 640 OFFCURVE",
"748 335 OFFCURVE",
"748 230 QCURVE",
"873 435 LINE",
"869 462 OFFCURVE",
"807 622 OFFCURVE",
"807 702 QCURVE SMOOTH",
"807 824 OFFCURVE",
"882 862 QCURVE",
"862 1042 LINE",
"756 1022 OFFCURVE",
"575 1022 QCURVE SMOOTH",
"528 1022 OFFCURVE",
"339 1025 OFFCURVE",
"292 1025 QCURVE SMOOTH",
"223 1025 OFFCURVE",
"164 1084 QCURVE"
);
},
{
closed = 1;
nodes = (
"403 774 OFFCURVE",
"369 667 OFFCURVE",
"369 610 QCURVE SMOOTH",
"369 582 OFFCURVE",
"375 563 QCURVE",
"399 552 OFFCURVE",
"445 543 OFFCURVE",
"463 536 QCURVE",
"483 498 OFFCURVE",
"500 424 OFFCURVE",
"510 329 OFFCURVE",
"519 293 QCURVE",
"542 227 OFFCURVE",
"606 136 OFFCURVE",
"703 23 OFFCURVE",
"741 -37 QCURVE SMOOTH",
"759 -64 OFFCURVE",
"787 -64 QCURVE SMOOTH",
"831 -64 OFFCURVE",
"872 -16 QCURVE",
"941 46 OFFCURVE",
"1038 179 OFFCURVE",
"1099 286 QCURVE",
"1128 367 LINE",
"1128 418 OFFCURVE",
"1114 574 OFFCURVE",
"1114 606 QCURVE SMOOTH",
"1114 683 OFFCURVE",
"1141 752 QCURVE SMOOTH",
"1144 760 OFFCURVE",
"1159 774 OFFCURVE",
"1183 791 OFFCURVE",
"1187 794 QCURVE",
"1187 971 LINE",
"1093 1016 LINE SMOOTH",
"1006 1057 OFFCURVE",
"984 1095 QCURVE",
"955 1078 OFFCURVE",
"924 962 OFFCURVE",
"924 904 QCURVE SMOOTH",
"924 866 OFFCURVE",
"930 849 QCURVE",
"1060 798 LINE",
"1060 385 LINE",
"1056 379 OFFCURVE",
"1034 349 OFFCURVE",
"1025 338 OFFCURVE",
"1000 311 OFFCURVE",
"974 290 OFFCURVE",
"929 256 OFFCURVE",
"900 236 QCURVE",
"895 235 OFFCURVE",
"863 219 OFFCURVE",
"854 219 QCURVE SMOOTH",
"748 219 LINE SMOOTH",
"704 219 OFFCURVE",
"609 290 OFFCURVE",
"571 384 QCURVE SMOOTH",
"556 424 OFFCURVE",
"556 503 QCURVE SMOOTH",
"556 513 OFFCURVE",
"570 526 OFFCURVE",
"588 537 QCURVE",
"607 658 LINE",
"539 682 OFFCURVE",
"464 723 OFFCURVE",
"438 751 OFFCURVE",
"424 777 QCURVE"
);
}
);
width = 1389;
}
);
note = newshekel;
unicode = 20AA;
},
{
glyphname = Euro;
lastChange = "2018-07-29 14:56:13 +0000";
layers = (
{
layerId = "BE590684-9836-437F-B2F3-AE785A4EA4BE";
paths = (
{
closed = 1;
nodes = (
"651 1167 OFFCURVE",
"473 1089 OFFCURVE",
"344 957 OFFCURVE",
"251 801 OFFCURVE",
"224 714 QCURVE",
"170 704 OFFCURVE",
"138 681 QCURVE",
"131 668 OFFCURVE",
"131 634 OFFCURVE",
"144 591 QCURVE",
"181 591 LINE",
"181 511 LINE",
"148 511 LINE",
"127 487 OFFCURVE",
"127 449 QCURVE SMOOTH",
"127 424 LINE",
"194 424 LINE",
"231 266 OFFCURVE",
"386 44 OFFCURVE",
"572 -58 OFFCURVE",
"675 -58 QCURVE SMOOTH",
"779 -58 OFFCURVE",
"965 53 OFFCURVE",
"1028 157 QCURVE",
"1034 174 OFFCURVE",
"1034 188 QCURVE SMOOTH",
"1034 214 OFFCURVE",
"1006 214 QCURVE SMOOTH",
"1002 214 OFFCURVE",
"983 211 OFFCURVE",
"978 211 QCURVE",
"859 137 OFFCURVE",
"745 137 QCURVE SMOOTH",
"675 137 OFFCURVE",
"546 193 OFFCURVE",
"454 282 OFFCURVE",
"389 375 OFFCURVE",
"371 421 QCURVE",
"413 414 OFFCURVE",
"603 380 OFFCURVE",
"685 367 OFFCURVE",
"832 354 OFFCURVE",
"906 354 QCURVE",
"959 487 LINE",
"910 487 OFFCURVE",
"751 489 OFFCURVE",
"708 489 QCURVE SMOOTH",
"603 489 OFFCURVE",
"467 501 OFFCURVE",
"364 521 QCURVE",
"364 584 LINE",
"495 584 OFFCURVE",
"905 574 OFFCURVE",
"1022 574 QCURVE",
"1066 738 LINE",
"951 721 OFFCURVE",
"796 713 OFFCURVE",
"653 713 QCURVE SMOOTH",
"609 713 OFFCURVE",
"430 714 OFFCURVE",
"385 714 QCURVE",
"394 785 OFFCURVE",
"439 902 OFFCURVE",
"514 996 OFFCURVE",
"630 1049 OFFCURVE",
"704 1049 QCURVE SMOOTH",
"736 1049 LINE SMOOTH",
"805 1049 OFFCURVE",
"892 985 OFFCURVE",
"892 933 QCURVE SMOOTH",
"892 898 OFFCURVE",
"871 864 QCURVE",
"933 884 OFFCURVE",
"976 884 QCURVE SMOOTH",
"1027 884 OFFCURVE",
"1075 861 QCURVE",
"1075 921 LINE SMOOTH",
"1075 987 OFFCURVE",
"1043 1067 OFFCURVE",
"985 1118 QCURVE",
"864 1167 OFFCURVE",
"751 1167 QCURVE SMOOTH"
);
}
);
width = 1127;
}
);
note = Euro;
unicode = 20AC;
},
{
glyphname = dottedcircle;
lastChange = "2018-07-29 14:56:13 +0000";
layers = (
{
layerId = "BE590684-9836-437F-B2F3-AE785A4EA4BE";
paths = (
{
closed = 1;
nodes = (
"164 456 OFFCURVE",
"224 456 QCURVE SMOOTH",
"285 456 OFFCURVE",
"285 527 QCURVE SMOOTH",
"285 599 OFFCURVE",
"224 599 QCURVE SMOOTH",
"164 599 OFFCURVE",
"164 527 QCURVE SMOOTH"
);
},
{
closed = 1;
nodes = (
"960 456 OFFCURVE",
"1020 456 QCURVE SMOOTH",
"1081 456 OFFCURVE",
"1081 527 QCURVE SMOOTH",
"1081 599 OFFCURVE",
"1020 599 QCURVE SMOOTH",
"960 599 OFFCURVE",
"960 527 QCURVE SMOOTH"
);
},
{
closed = 1;
nodes = (
"562 924 OFFCURVE",
"622 924 QCURVE SMOOTH",
"683 924 OFFCURVE",
"683 995 QCURVE SMOOTH",
"683 1067 OFFCURVE",
"622 1067 QCURVE SMOOTH",
"562 1067 OFFCURVE",
"562 995 QCURVE SMOOTH"
);
},
{
closed = 1;
nodes = (
"562 -12 OFFCURVE",
"622 -12 QCURVE SMOOTH",
"683 -12 OFFCURVE",
"683 59 QCURVE SMOOTH",
"683 131 OFFCURVE",
"622 131 QCURVE SMOOTH",
"562 131 OFFCURVE",
"562 59 QCURVE SMOOTH"
);
},
{
closed = 1;
nodes = (
"909 690 OFFCURVE",
"969 690 QCURVE SMOOTH",
"1030 690 OFFCURVE",
"1030 761 QCURVE SMOOTH",
"1030 833 OFFCURVE",
"969 833 QCURVE SMOOTH",
"909 833 OFFCURVE",
"909 761 QCURVE SMOOTH"
);
},
{
closed = 1;
nodes = (
"909 222 OFFCURVE",
"969 222 QCURVE SMOOTH",
"1030 222 OFFCURVE",
"1030 293 QCURVE SMOOTH",
"1030 365 OFFCURVE",
"969 365 QCURVE SMOOTH",
"909 365 OFFCURVE",
"909 293 QCURVE SMOOTH"
);
},
{
closed = 1;
nodes = (
"215 690 OFFCURVE",
"275 690 QCURVE SMOOTH",
"336 690 OFFCURVE",
"336 761 QCURVE SMOOTH",
"336 833 OFFCURVE",
"275 833 QCURVE SMOOTH",
"215 833 OFFCURVE",
"215 761 QCURVE SMOOTH"
);
},
{
closed = 1;
nodes = (
"215 222 OFFCURVE",
"275 222 QCURVE SMOOTH",
"336 222 OFFCURVE",
"336 293 QCURVE SMOOTH",
"336 365 OFFCURVE",
"275 365 QCURVE SMOOTH",
"215 365 OFFCURVE",
"215 293 QCURVE SMOOTH"
);
},
{
closed = 1;
nodes = (
"363 864 OFFCURVE",
"423 864 QCURVE SMOOTH",
"484 864 OFFCURVE",
"484 935 QCURVE SMOOTH",
"484 1007 OFFCURVE",
"423 1007 QCURVE SMOOTH",
"363 1007 OFFCURVE",
"363 935 QCURVE SMOOTH"
);
},
{
closed = 1;
nodes = (
"761 864 OFFCURVE",
"821 864 QCURVE SMOOTH",
"882 864 OFFCURVE",
"882 935 QCURVE SMOOTH",
"882 1007 OFFCURVE",
"821 1007 QCURVE SMOOTH",
"761 1007 OFFCURVE",
"761 935 QCURVE SMOOTH"
);
},
{
closed = 1;
nodes = (
"363 48 OFFCURVE",
"423 48 QCURVE SMOOTH",
"484 48 OFFCURVE",
"484 119 QCURVE SMOOTH",
"484 191 OFFCURVE",
"423 191 QCURVE SMOOTH",
"363 191 OFFCURVE",
"363 119 QCURVE SMOOTH"
);
},
{
closed = 1;
nodes = (
"761 48 OFFCURVE",
"821 48 QCURVE SMOOTH",
"882 48 OFFCURVE",
"882 119 QCURVE SMOOTH",
"882 191 OFFCURVE",
"821 191 QCURVE SMOOTH",
"761 191 OFFCURVE",
"761 119 QCURVE SMOOTH"
);
}
);
width = 1150;
}
);
note = dottedcircle;
unicode = 25CC;
},
{
glyphname = jsvarika;
lastChange = "2018-07-29 14:56:13 +0000";
layers = (
{
layerId = "BE590684-9836-437F-B2F3-AE785A4EA4BE";
paths = (
{
closed = 1;
nodes = (
"14 1195 OFFCURVE",
"145 1324 OFFCURVE",
"186 1345 QCURVE",
"186 1361 LINE SMOOTH",
"186 1369 OFFCURVE",
"181 1374 QCURVE",
"102 1345 OFFCURVE",
"0 1283 QCURVE",
"-172 1388 OFFCURVE",
"-178 1390 QCURVE",
"-186 1378 OFFCURVE",
"-186 1377 QCURVE SMOOTH",
"-186 1361 LINE",
"-139 1328 OFFCURVE",
"-18 1199 OFFCURVE",
"0 1188 QCURVE"
);
}
);
width = 0;
}
);
note = jsvarika;
unicode = FB1E;
},
{
glyphname = yodyodpatah;
lastChange = "2018-07-29 16:30:33 +0000";
layers = (
{
layerId = "BE590684-9836-437F-B2F3-AE785A4EA4BE";
paths = (
{
closed = 1;
nodes = (
"855 378 LINE",
"305 378 LINE",
"305 280 LINE",
"855 280 LINE"
);
},
{
closed = 1;
nodes = (
"232 852 OFFCURVE",
"301 795 OFFCURVE",
"301 743 QCURVE SMOOTH",
"301 730 OFFCURVE",
"297 681 OFFCURVE",
"297 669 QCURVE SMOOTH",
"297 648 OFFCURVE",
"288 538 OFFCURVE",
"288 505 QCURVE",
"352 477 LINE",
"407 646 OFFCURVE",
"432 753 QCURVE SMOOTH",
"438 781 OFFCURVE",
"438 840 QCURVE SMOOTH",
"438 954 OFFCURVE",
"399 990 QCURVE",
"382 1004 OFFCURVE",
"366 1018 OFFCURVE",
"347 1029 OFFCURVE",
"342 1030 OFFCURVE",
"315 1038 OFFCURVE",
"306 1041 QCURVE",
"278 1046 OFFCURVE",
"227 1077 OFFCURVE",
"204 1099 OFFCURVE",
"162 1149 OFFCURVE",
"159 1152 QCURVE",
"99 1092 OFFCURVE",
"67 968 QCURVE",
"93 938 LINE",
"129 852 LINE"
);
},
{
closed = 1;
nodes = (
"744 852 OFFCURVE",
"813 795 OFFCURVE",
"813 743 QCURVE SMOOTH",
"813 730 OFFCURVE",
"809 681 OFFCURVE",
"809 669 QCURVE SMOOTH",
"809 648 OFFCURVE",
"800 538 OFFCURVE",
"800 505 QCURVE",
"864 477 LINE",
"919 646 OFFCURVE",
"944 753 QCURVE SMOOTH",
"950 781 OFFCURVE",
"950 840 QCURVE SMOOTH",
"950 954 OFFCURVE",
"911 990 QCURVE",
"894 1004 OFFCURVE",
"878 1018 OFFCURVE",
"859 1029 OFFCURVE",
"854 1030 OFFCURVE",
"827 1038 OFFCURVE",
"818 1041 QCURVE",
"790 1046 OFFCURVE",
"739 1077 OFFCURVE",
"716 1099 OFFCURVE",
"674 1149 OFFCURVE",
"671 1152 QCURVE",
"611 1092 OFFCURVE",
"579 968 QCURVE",
"605 938 LINE",
"641 852 LINE"
);
}
);
width = 1024;
}
);
note = yodyodpatah;
unicode = FB1F;
},
{
glyphname = ayin.alt;
lastChange = "2018-07-29 14:56:13 +0000";
layers = (
{
layerId = "BE590684-9836-437F-B2F3-AE785A4EA4BE";
paths = (
{
closed = 1;
nodes = (
"286 740 OFFCURVE",
"286 699 QCURVE SMOOTH",
"286 635 OFFCURVE",
"345 460 OFFCURVE",
"445 241 OFFCURVE",
"456 212 QCURVE",
"395 184 OFFCURVE",
"333 184 QCURVE SMOOTH",
"291 184 OFFCURVE",
"136 221 OFFCURVE",
"117 224 QCURVE",
"96 184 OFFCURVE",
"96 69 QCURVE SMOOTH",
"96 48 OFFCURVE",
"100 30 OFFCURVE",
"110 7 OFFCURVE",
"114 -14 QCURVE",
"238 -14 LINE SMOOTH",
"451 -14 OFFCURVE",
"587 71 QCURVE SMOOTH",
"877 243 OFFCURVE",
"877 806 QCURVE",
"917 822 LINE",
"982 986 LINE",
"961 997 OFFCURVE",
"873 1033 OFFCURVE",
"820 1058 OFFCURVE",
"748 1115 OFFCURVE",
"721 1154 QCURVE",
"677 1122 OFFCURVE",
"629 1025 OFFCURVE",
"629 974 QCURVE SMOOTH",
"629 942 OFFCURVE",
"637 918 QCURVE",
"651 892 OFFCURVE",
"689 857 OFFCURVE",
"720 843 OFFCURVE",
"773 822 OFFCURVE",
"789 814 QCURVE",
"789 719 OFFCURVE",
"761 531 OFFCURVE",
"702 348 OFFCURVE",
"588 234 OFFCURVE",
"512 234 QCURVE",
"514 244 OFFCURVE",
"514 254 QCURVE SMOOTH",
"514 265 OFFCURVE",
"511 306 OFFCURVE",
"511 310 QCURVE SMOOTH",
"511 353 OFFCURVE",
"474 472 OFFCURVE",
"430 576 OFFCURVE",
"393 720 OFFCURVE",
"393 786 QCURVE",
"410 856 OFFCURVE",
"477 990 QCURVE",
"332 1045 OFFCURVE",
"237 1122 QCURVE",
"169 1032 OFFCURVE",
"169 870 QCURVE",
"191 840 OFFCURVE",
"224 809 OFFCURVE",
"244 801 OFFCURVE",
"284 790 OFFCURVE",
"301 782 QCURVE"
);
}
);
width = 970;
}
);
note = ayin.alt;
unicode = FB20;
},
{
glyphname = alef.wide;
lastChange = "2018-07-29 14:56:13 +0000";
layers = (
{
layerId = "BE590684-9836-437F-B2F3-AE785A4EA4BE";
paths = (
{
closed = 1;
nodes = (
"1365 502 OFFCURVE",
"1421 675 OFFCURVE",
"1421 772 QCURVE",
"1469 764 LINE",
"1529 814 OFFCURVE",
"1573 938 QCURVE",
"1436 1016 OFFCURVE",
"1357 1120 QCURVE",
"1349 1107 OFFCURVE",
"1335 1083 OFFCURVE",
"1320 1055 OFFCURVE",
"1310 1036 OFFCURVE",
"1296 1004 OFFCURVE",
"1290 990 OFFCURVE",
"1274 953 OFFCURVE",
"1271 944 OFFCURVE",
"1254 903 OFFCURVE",
"1253 900 QCURVE",
"1335 845 OFFCURVE",
"1335 757 QCURVE SMOOTH",
"1335 708 OFFCURVE",
"1255 581 OFFCURVE",
"1191 534 QCURVE",
"1145 549 OFFCURVE",
"1098 565 OFFCURVE",
"981 608 OFFCURVE",
"904 645 OFFCURVE",
"783 709 OFFCURVE",
"698 771 OFFCURVE",
"593 861 OFFCURVE",
"518 956 OFFCURVE",
"449 1078 OFFCURVE",
"428 1144 QCURVE",
"285 925 LINE",
"370 828 LINE",
"300 721 OFFCURVE",
"219 508 OFFCURVE",
"219 384 QCURVE SMOOTH",
"219 325 OFFCURVE",
"288 188 OFFCURVE",
"338 142 QCURVE",
"336 139 OFFCURVE",
"309 104 OFFCURVE",
"301 93 OFFCURVE",
"281 62 OFFCURVE",
"272 42 OFFCURVE",
"260 11 OFFCURVE",
"256 -4 QCURVE",
"276 -48 LINE",
"337 -14 OFFCURVE",
"402 18 OFFCURVE",
"511 52 OFFCURVE",
"560 52 QCURVE",
"600 288 LINE",
"557 261 OFFCURVE",
"517 261 QCURVE SMOOTH",
"479 261 OFFCURVE",
"395 301 OFFCURVE",
"327 391 OFFCURVE",
"327 448 QCURVE SMOOTH",
"327 534 OFFCURVE",
"406 651 OFFCURVE",
"449 651 QCURVE",
"480 644 OFFCURVE",
"882 444 OFFCURVE",
"888 435 QCURVE",
"902 429 OFFCURVE",
"923 420 QCURVE SMOOTH",
"967 400 OFFCURVE",
"973 398 QCURVE",
"1195 299 OFFCURVE",
"1287 237 QCURVE SMOOTH",
"1435 137 OFFCURVE",
"1497 -12 QCURVE",
"1500 -12 OFFCURVE",
"1541 76 OFFCURVE",
"1590 210 OFFCURVE",
"1599 258 QCURVE",
"1525 317 OFFCURVE",
"1480 352 OFFCURVE",
"1380 418 OFFCURVE",
"1313 455 QCURVE"
);
}
);
width = 1673;
}
);
note = alef.wide;
unicode = FB21;
},
{
glyphname = dalet.wide;
lastChange = "2018-07-29 14:56:13 +0000";
layers = (
{
layerId = "BE590684-9836-437F-B2F3-AE785A4EA4BE";
paths = (
{
closed = 1;
nodes = (
"1195 767 OFFCURVE",
"1195 676 QCURVE SMOOTH",
"1195 606 LINE SMOOTH",
"1195 596 OFFCURVE",
"1207 491 OFFCURVE",
"1207 479 QCURVE",
"1240 353 OFFCURVE",
"1259 145 OFFCURVE",
"1259 -3 QCURVE",
"1283 -25 LINE",
"1367 90 OFFCURVE",
"1382 170 QCURVE SMOOTH",
"1389 202 OFFCURVE",
"1389 241 QCURVE SMOOTH",
"1389 315 OFFCURVE",
"1324 626 OFFCURVE",
"1324 682 QCURVE SMOOTH",
"1324 732 OFFCURVE",
"1412 834 OFFCURVE",
"1473 849 QCURVE",
"1473 964 OFFCURVE",
"1425 1053 QCURVE",
"1356 1044 OFFCURVE",
"899 1026 OFFCURVE",
"804 1026 QCURVE SMOOTH",
"735 1026 OFFCURVE",
"409 1038 OFFCURVE",
"354 1044 QCURVE",
"326 1049 OFFCURVE",
"285 1073 OFFCURVE",
"267 1094 OFFCURVE",
"242 1130 OFFCURVE",
"234 1138 QCURVE",
"163 1067 OFFCURVE",
"138 970 QCURVE",
"166 942 LINE",
"197 845 LINE",
"237 825 OFFCURVE",
"412 825 QCURVE SMOOTH",
"1138 825 OFFCURVE",
"1224 838 QCURVE"
);
}
);
width = 1550;
}
);
note = dalet.wide;
unicode = FB22;
},
{
glyphname = he.wide;
lastChange = "2018-07-29 14:56:13 +0000";
layers = (
{
layerId = "BE590684-9836-437F-B2F3-AE785A4EA4BE";
paths = (
{
closed = 1;
nodes = (
"402 256 OFFCURVE",
"374 330 OFFCURVE",
"369 387 OFFCURVE",
"369 438 QCURVE SMOOTH",
"369 462 LINE SMOOTH",
"369 486 OFFCURVE",
"374 537 OFFCURVE",
"385 599 OFFCURVE",
"394 642 OFFCURVE",
"412 725 OFFCURVE",
"417 746 QCURVE",
"337 654 OFFCURVE",
"247 398 OFFCURVE",
"247 268 QCURVE SMOOTH",
"247 169 OFFCURVE",
"279 -12 QCURVE",
"327 -36 LINE",
"363 22 OFFCURVE",
"429 224 QCURVE"
);
},
{
closed = 1;
nodes = (
"1418 783 OFFCURVE",
"1404 680 OFFCURVE",
"1404 610 QCURVE SMOOTH",
"1404 543 LINE",
"1421 463 OFFCURVE",
"1443 268 OFFCURVE",
"1461 40 OFFCURVE",
"1467 -14 QCURVE",
"1491 -35 LINE",
"1575 80 OFFCURVE",
"1590 160 QCURVE SMOOTH",
"1597 192 OFFCURVE",
"1597 231 QCURVE SMOOTH",
"1597 305 OFFCURVE",
"1532 630 OFFCURVE",
"1532 686 QCURVE SMOOTH",
"1532 792 OFFCURVE",
"1617 849 QCURVE",
"1617 945 OFFCURVE",
"1564 1043 QCURVE",
"1498 1034 OFFCURVE",
"1050 1023 OFFCURVE",
"929 1023 QCURVE SMOOTH",
"914 1023 OFFCURVE",
"714 1019 OFFCURVE",
"651 1019 QCURVE SMOOTH",
"502 1019 OFFCURVE",
"453 1029 QCURVE SMOOTH",
"425 1034 OFFCURVE",
"378 1061 OFFCURVE",
"357 1080 OFFCURVE",
"321 1124 OFFCURVE",
"317 1129 QCURVE",
"246 1058 OFFCURVE",
"221 961 QCURVE",
"247 933 LINE",
"281 831 LINE",
"852 831 LINE",
"903 831 LINE SMOOTH",
"1361 831 OFFCURVE",
"1443 843 QCURVE"
);
}
);
width = 1655;
}
);
note = he.wide;
unicode = FB23;
},
{
glyphname = kaf.wide;
lastChange = "2018-07-29 14:56:13 +0000";
layers = (
{
layerId = "BE590684-9836-437F-B2F3-AE785A4EA4BE";
paths = (
{
closed = 1;
nodes = (
"1360 981 OFFCURVE",
"1284 1026 OFFCURVE",
"1222 1026 QCURVE SMOOTH",
"1200 1026 OFFCURVE",
"888 1015 OFFCURVE",
"860 1015 QCURVE SMOOTH",
"808 1015 OFFCURVE",
"458 1027 OFFCURVE",
"428 1032 QCURVE",
"403 1040 OFFCURVE",
"366 1058 OFFCURVE",
"338 1081 OFFCURVE",
"323 1096 OFFCURVE",
"299 1125 OFFCURVE",
"294 1130 QCURVE",
"223 1059 OFFCURVE",
"198 962 QCURVE",
"226 934 LINE",
"258 832 LINE",
"1143 832 LINE",
"1178 828 OFFCURVE",
"1227 796 OFFCURVE",
"1256 739 OFFCURVE",
"1273 688 OFFCURVE",
"1293 607 OFFCURVE",
"1301 585 QCURVE",
"1304 575 OFFCURVE",
"1330 481 OFFCURVE",
"1340 429 OFFCURVE",
"1340 405 QCURVE SMOOTH",
"1340 344 OFFCURVE",
"1320 321 QCURVE SMOOTH",
"1213 198 OFFCURVE",
"274 198 QCURVE SMOOTH",
"237 198 LINE",
"230 183 OFFCURVE",
"219 153 OFFCURVE",
"210 118 OFFCURVE",
"204 96 OFFCURVE",
"196 55 OFFCURVE",
"193 38 OFFCURVE",
"184 -13 OFFCURVE",
"183 -21 QCURVE",
"461 -21 OFFCURVE",
"1259 80 OFFCURVE",
"1385 150 QCURVE",
"1461 248 OFFCURVE",
"1461 411 QCURVE SMOOTH",
"1461 465 OFFCURVE",
"1442 606 OFFCURVE",
"1424 700 OFFCURVE",
"1383 885 OFFCURVE",
"1376 918 QCURVE"
);
}
);
width = 1510;
}
);
note = kaf.wide;
unicode = FB24;
},
{
glyphname = lamed.wide;
lastChange = "2018-07-29 14:56:13 +0000";
layers = (
{
layerId = "BE590684-9836-437F-B2F3-AE785A4EA4BE";
paths = (
{
closed = 1;
nodes = (
"1170 1042 OFFCURVE",
"360 1028 OFFCURVE",
"310 1028 QCURVE SMOOTH",
"277 1028 OFFCURVE",
"248 1106 OFFCURVE",
"248 1156 QCURVE SMOOTH",
"248 1205 OFFCURVE",
"302 1491 OFFCURVE",
"302 1560 QCURVE SMOOTH",
"302 1601 OFFCURVE",
"295 1632 QCURVE",
"285 1652 OFFCURVE",
"261 1652 QCURVE SMOOTH",
"252 1652 OFFCURVE",
"245 1648 QCURVE",
"109 1496 LINE",
"102 1485 OFFCURVE",
"102 1473 QCURVE SMOOTH",
"102 1459 OFFCURVE",
"125 1443 OFFCURVE",
"139 1443 QCURVE",
"166 1451 OFFCURVE",
"182 1451 QCURVE SMOOTH",
"212 1451 OFFCURVE",
"212 1410 QCURVE SMOOTH",
"212 1377 OFFCURVE",
"166 1219 OFFCURVE",
"164 1204 QCURVE SMOOTH",
"151 1108 OFFCURVE",
"151 988 QCURVE SMOOTH",
"151 812 OFFCURVE",
"280 812 QCURVE SMOOTH",
"1108 832 LINE SMOOTH",
"1133 832 OFFCURVE",
"1179 768 OFFCURVE",
"1179 730 QCURVE SMOOTH",
"1179 715 LINE",
"1154 614 OFFCURVE",
"1083 442 OFFCURVE",
"1026 353 OFFCURVE",
"981 283 OFFCURVE",
"979 272 QCURVE",
"963 220 OFFCURVE",
"963 166 QCURVE SMOOTH",
"963 148 OFFCURVE",
"967 97 OFFCURVE",
"967 89 QCURVE SMOOTH",
"967 86 OFFCURVE",
"988 47 OFFCURVE",
"1033 -8 OFFCURVE",
"1058 -20 QCURVE",
"1121 96 OFFCURVE",
"1121 196 QCURVE",
"1101 201 OFFCURVE",
"1074 229 OFFCURVE",
"1074 246 QCURVE SMOOTH",
"1074 253 OFFCURVE",
"1077 262 QCURVE SMOOTH",
"1092 305 OFFCURVE",
"1327 731 OFFCURVE",
"1352 820 QCURVE",
"1352 932 OFFCURVE",
"1287 1009 QCURVE",
"1262 1034 OFFCURVE",
"1225 1042 QCURVE"
);
}
);
width = 1418;
}
);
note = lamed.wide;
unicode = FB25;
},
{
glyphname = finalmem.wide;
lastChange = "2018-07-29 14:56:13 +0000";
layers = (
{
layerId = "BE590684-9836-437F-B2F3-AE785A4EA4BE";
paths = (
{
closed = 1;
nodes = (
"1240 262 LINE SMOOTH",
"1044 255 OFFCURVE",
"578 214 OFFCURVE",
"506 187 QCURVE SMOOTH",
"489 180 OFFCURVE",
"472 180 QCURVE SMOOTH",
"444 180 OFFCURVE",
"407 221 OFFCURVE",
"402 253 QCURVE",
"386 308 LINE SMOOTH",
"369 364 OFFCURVE",
"336 567 OFFCURVE",
"336 659 QCURVE SMOOTH",
"336 754 OFFCURVE",
"354 819 QCURVE",
"401 826 OFFCURVE",
"859 841 OFFCURVE",
"948 841 QCURVE SMOOTH",
"1063 841 OFFCURVE",
"1399 766 OFFCURVE",
"1404 724 QCURVE",
"1437 574 OFFCURVE",
"1437 422 QCURVE SMOOTH",
"1437 270 OFFCURVE",
"1437 270 QCURVE"
);
},
{
closed = 1;
nodes = (
"193 845 OFFCURVE",
"216 838 OFFCURVE",
"244 831 OFFCURVE",
"252 831 QCURVE SMOOTH",
"300 831 LINE",
"294 824 LINE",
"289 816 OFFCURVE",
"273 773 OFFCURVE",
"257 710 OFFCURVE",
"246 596 OFFCURVE",
"246 526 QCURVE SMOOTH",
"246 341 OFFCURVE",
"286 109 QCURVE",
"286 37 OFFCURVE",
"309 -40 OFFCURVE",
"346 -63 OFFCURVE",
"378 -63 QCURVE",
"1562 116 LINE",
"1565 127 OFFCURVE",
"1581 184 OFFCURVE",
"1589 226 OFFCURVE",
"1589 248 QCURVE SMOOTH",
"1589 275 OFFCURVE",
"1580 306 QCURVE",
"1558 322 OFFCURVE",
"1548 354 QCURVE",
"1548 619 OFFCURVE",
"1506 888 QCURVE SMOOTH",
"1505 895 OFFCURVE",
"1499 932 OFFCURVE",
"1496 947 OFFCURVE",
"1487 975 OFFCURVE",
"1473 988 OFFCURVE",
"1452 1004 OFFCURVE",
"1419 1010 OFFCURVE",
"1398 1010 QCURVE SMOOTH",
"1351 1010 OFFCURVE",
"958 1034 OFFCURVE",
"910 1034 QCURVE SMOOTH",
"849 1034 OFFCURVE",
"654 1037 OFFCURVE",
"397 1047 OFFCURVE",
"366 1055 QCURVE",
"330 1062 OFFCURVE",
"283 1096 OFFCURVE",
"235 1162 OFFCURVE",
"232 1165 QCURVE",
"161 1094 OFFCURVE",
"136 997 QCURVE",
"164 969 LINE",
"192 845 LINE"
);
}
);
width = 1648;
}
);
note = finalmem.wide;
unicode = FB26;
},
{
glyphname = resh.wide;
lastChange = "2018-07-29 14:56:13 +0000";
layers = (
{
layerId = "BE590684-9836-437F-B2F3-AE785A4EA4BE";
paths = (
{
closed = 1;
nodes = (
"1321 447 OFFCURVE",
"1321 236 QCURVE SMOOTH",
"1321 108 OFFCURVE",
"1281 24 QCURVE",
"1324 8 LINE",
"1425 84 OFFCURVE",
"1425 376 QCURVE SMOOTH",
"1425 573 LINE SMOOTH",
"1425 671 OFFCURVE",
"1409 833 OFFCURVE",
"1373 974 OFFCURVE",
"1304 1054 OFFCURVE",
"1256 1054 QCURVE SMOOTH",
"376 1059 LINE",
"361 1062 OFFCURVE",
"335 1070 OFFCURVE",
"315 1078 OFFCURVE",
"294 1092 OFFCURVE",
"282 1100 OFFCURVE",
"263 1119 OFFCURVE",
"257 1124 OFFCURVE",
"238 1146 OFFCURVE",
"236 1148 QCURVE",
"172 1084 OFFCURVE",
"141 962 QCURVE",
"169 934 LINE",
"201 834 LINE",
"1201 829 LINE",
"1209 826 OFFCURVE",
"1223 816 OFFCURVE",
"1234 802 OFFCURVE",
"1242 791 OFFCURVE",
"1250 770 OFFCURVE",
"1255 758 OFFCURVE",
"1261 733 OFFCURVE",
"1264 723 OFFCURVE",
"1269 695 OFFCURVE",
"1270 692 QCURVE"
);
}
);
width = 1493;
}
);
note = resh.wide;
unicode = FB27;
},
